SplineFontDB: 3.0
FontName: Neuton-Extralight
FullName: Neuton Extralight
FamilyName: Neuton
Weight: Extralight
Copyright: Copyright (c) 2010, 2011 Brian M Zick (http://21326.info/),\nwith Reserved Font Name "Neuton".\nCleanup by Wallace Smith and William Zick.\n\nThis Font Software is licensed under the SIL Open Font License, Version 1.1.\nThis license is available with a FAQ at: http://scripts.sil.org/OFL\n   WITHOUT WARRANTIES OR CONDITIONS OF ANY KIND, either express or implied.\n   See the License for the specific language governing permissions and\n   limitations under the License.
UComments: "Neuton is a dark, dutch-inspired, compact text serif, intended for use on screen. Neuton is Brian Zick's debut font, and includes text figures, an extended character set, and smooth, readable forms. Neuton works well in any size, as well as in print." 
Version: 1.4
ItalicAngle: 0
UnderlinePosition: -249
UnderlineWidth: 109
Ascent: 1638
Descent: 410
LayerCount: 2
Layer: 0 0 "Back"  1
Layer: 1 0 "Fore"  0
NeedsXUIDChange: 1
FSType: 8
OS2Version: 0
OS2_WeightWidthSlopeOnly: 0
OS2_UseTypoMetrics: 0
CreationTime: 1304912001
ModificationTime: 1307474853
PfmFamily: 17
TTFWeight: 400
TTFWidth: 5
LineGap: 0
VLineGap: 0
OS2TypoAscent: 1548
OS2TypoAOffset: 0
OS2TypoDescent: -290
OS2TypoDOffset: 0
OS2TypoLinegap: 0
OS2WinAscent: 1548
OS2WinAOffset: 0
OS2WinDescent: 290
OS2WinDOffset: 0
HheadAscent: 1548
HheadAOffset: 0
HheadDescent: -290
HheadDOffset: 0
OS2Vendor: 'PfEd'
MarkAttachClasses: 1
DEI: 91125

StartChar: A
Encoding: 65 65 0
Width: 1413
VWidth: 0
Flags: W
HStem: 1 42<113 178.3 404.463 507 885 958.793 1216.46 1285> 478 56<500 893>
DStem2: 255 72 332 65 0.347469 0.937691<20.1913 458.883 518.343 1104.51> 746 1268 700 1085 0.326354 -0.945248<157.968 741.786 800.92 1229.11>
LayerCount: 2
Fore
SplineSet
500 534 m 1
 893 534 l 1
 700 1085 l 1
 500 534 l 1
108 0 m 1
 113 42 l 1
 255 72 l 1
 693 1254 l 1
 746 1268 l 1
 1161 66 l 1
 1293 47 l 1
 1285 1 l 1
 876 1 l 1
 885 43 l 1
 1051 73 l 1
 912 478 l 1
 480 478 l 1
 332 65 l 1
 516 46 l 1
 507 0 l 1
 108 0 l 1
EndSplineSet
Validated: 1
EndChar

StartChar: AE
Encoding: 198 198 1
Width: 1688
VWidth: 0
Flags: W
HStem: 0 54<46 63.5815 427.181 453 671 696.047 972 1536> 472 65<553 864> 605 54<972 1302> 1193 51<616 651.868 972 1506>
VStem: 867 105<72 472 537 605 659 1093> 1319 47<417 574.129> 1350 49<742.647 798> 1527 44<931 1067.91> 1607 42<268.685 316.413>
DStem2: 189 73 279 66 0.508651 0.860973<39.7518 509.348 584.64 584.64>
LayerCount: 2
Fore
SplineSet
553 537 m 1xf980
 867 537 l 1
 867 1093 l 1
 553 537 l 1xf980
42 3 m 1
 46 43 l 1
 189 73 l 1
 843 1180 l 1
 610 1205 l 1
 616 1244 l 1
 1603 1244 l 1
 1571 925 l 1
 1527 931 l 1
 1506 1193 l 1
 972 1193 l 1
 972 659 l 1
 1314 659 l 1
 1350 798 l 1
 1399 806 l 1xfb80
 1366 417 l 1
 1319 408 l 1xfd80
 1302 605 l 1
 972 605 l 1
 972 54 l 1
 1536 54 l 1
 1607 323 l 1
 1649 313 l 1
 1619 0 l 1
 665 0 l 1
 671 42 l 1
 864 72 l 1
 864 472 l 1
 515 472 l 1
 279 66 l 1
 463 48 l 1
 453 3 l 1
 42 3 l 1
EndSplineSet
Validated: 8388609
EndChar

StartChar: Aacute
Encoding: 193 193 2
Width: 1413
VWidth: 0
Flags: W
HStem: 1 42<113 178.3 404.463 507 885 958.793 1216.46 1285> 478 56<500 893>
DStem2: 255 72 332 65 0.347469 0.937691<20.1913 458.883 518.343 1104.51> 746 1268 700 1085 0.326354 -0.945248<157.968 741.786 800.92 1229.11>
LayerCount: 2
Fore
SplineSet
500 534 m 1
 893 534 l 1
 700 1085 l 1
 500 534 l 1
108 0 m 1
 113 42 l 1
 255 72 l 1
 693 1254 l 1
 746 1268 l 1
 1161 66 l 1
 1293 47 l 1
 1285 1 l 1
 876 1 l 1
 885 43 l 1
 1051 73 l 1
 912 478 l 1
 480 478 l 1
 332 65 l 1
 516 46 l 1
 507 0 l 1
 108 0 l 1
681 1376 m 1
 813 1713 l 1
 909 1674 l 1
 726 1350 l 1
 681 1376 l 1
EndSplineSet
Validated: 1
EndChar

StartChar: Abreve
Encoding: 258 258 3
Width: 1413
VWidth: 0
Flags: W
HStem: 1 42<113 178.3 404.463 507 885 958.793 1216.46 1285> 478 56<500 893> 1381 75<635.933 823.36>
VStem: 538 30<1556.77 1570.47>
DStem2: 255 72 332 65 0.347469 0.937691<20.1913 458.883 518.343 1104.51> 746 1268 700 1085 0.326354 -0.945248<157.968 741.786 800.92 1229.11>
LayerCount: 2
Fore
SplineSet
500 534 m 1
 893 534 l 1
 700 1085 l 1
 500 534 l 1
108 0 m 1
 113 42 l 1
 255 72 l 1
 693 1254 l 1
 746 1268 l 1
 1161 66 l 1
 1293 47 l 1
 1285 1 l 1
 876 1 l 1
 885 43 l 1
 1051 73 l 1
 912 478 l 1
 480 478 l 1
 332 65 l 1
 516 46 l 1
 507 0 l 1
 108 0 l 1
538 1559 m 1
 568 1583 l 1
 592 1537 644 1456 728 1456 c 0
 815 1456 870 1535 897 1585 c 1
 920 1564 l 1
 891 1476 838 1381 728 1381 c 0
 610 1381 560 1472 538 1559 c 1
EndSplineSet
Validated: 1
EndChar

StartChar: Acaron
Encoding: 461 461 4
Width: 1413
VWidth: 0
Flags: W
HStem: 1 42<113 178.3 404.463 507 885 958.793 1216.46 1285> 478 56<500 893>
DStem2: 255 72 332 65 0.347469 0.937691<20.1913 458.883 518.343 1104.51> 575 1592 520 1543 0.705134 -0.709074<0 236.886> 746 1268 700 1085 0.326354 -0.945248<157.968 741.786 800.92 1229.11> 750 1423 755 1377 0.687087 0.726575<0 218.138>
LayerCount: 2
Fore
SplineSet
500 534 m 1
 893 534 l 1
 700 1085 l 1
 500 534 l 1
108 0 m 1
 113 42 l 1
 255 72 l 1
 693 1254 l 1
 746 1268 l 1
 1161 66 l 1
 1293 47 l 1
 1285 1 l 1
 876 1 l 1
 885 43 l 1
 1051 73 l 1
 912 478 l 1
 480 478 l 1
 332 65 l 1
 516 46 l 1
 507 0 l 1
 108 0 l 1
520 1543 m 1
 575 1592 l 1
 741 1423 l 1
 750 1423 l 1
 893 1588 l 1
 929 1561 l 1
 755 1377 l 1
 699 1363 l 1
 520 1543 l 1
EndSplineSet
Validated: 1
EndChar

StartChar: Acircumflex
Encoding: 194 194 5
Width: 1413
VWidth: 0
Flags: W
HStem: 1 42<113 178.3 404.463 507 885 958.793 1216.46 1285> 478 56<500 893>
DStem2: 255 72 332 65 0.347469 0.937691<20.1913 458.883 518.343 1104.51> 746 1268 700 1085 0.326354 -0.945248<157.968 741.786 800.92 1229.11>
LayerCount: 2
Fore
SplineSet
500 534 m 1
 893 534 l 1
 700 1085 l 1
 500 534 l 1
108 0 m 1
 113 42 l 1
 255 72 l 1
 693 1254 l 1
 746 1268 l 1
 1161 66 l 1
 1293 47 l 1
 1285 1 l 1
 876 1 l 1
 885 43 l 1
 1051 73 l 1
 912 478 l 1
 480 478 l 1
 332 65 l 1
 516 46 l 1
 507 0 l 1
 108 0 l 1
525 1394 m 1
 692 1575 l 1
 746 1588 l 1
 925 1402 l 1
 893 1365 l 1
 712 1500 l 1
 703 1500 l 1
 546 1364 l 1
 525 1394 l 1
EndSplineSet
Validated: 1
EndChar

StartChar: Adieresis
Encoding: 196 196 6
Width: 1413
VWidth: 0
Flags: W
HStem: 1 42<113 178.3 404.463 507 885 958.793 1216.46 1285> 478 56<500 893> 1384 159<523.518 628.932 792.344 897.141>
VStem: 520 113<1385.06 1541.7> 789 112<1385.06 1541.7>
DStem2: 255 72 332 65 0.347469 0.937691<20.1913 458.883 518.343 1104.51> 746 1268 700 1085 0.326354 -0.945248<157.968 741.786 800.92 1229.11>
LayerCount: 2
Fore
SplineSet
789 1465 m 0
 789 1515 804 1543 843 1543 c 0
 880 1543 901 1516 901 1465 c 0
 901 1412 886 1384 844 1384 c 0
 802 1384 789 1414 789 1465 c 0
520 1465 m 0
 520 1515 536 1543 575 1543 c 0
 612 1543 633 1516 633 1465 c 0
 633 1412 619 1384 577 1384 c 0
 535 1384 520 1414 520 1465 c 0
500 534 m 1
 893 534 l 1
 700 1085 l 1
 500 534 l 1
108 0 m 1
 113 42 l 1
 255 72 l 1
 693 1254 l 1
 746 1268 l 1
 1161 66 l 1
 1293 47 l 1
 1285 1 l 1
 876 1 l 1
 885 43 l 1
 1051 73 l 1
 912 478 l 1
 480 478 l 1
 332 65 l 1
 516 46 l 1
 507 0 l 1
 108 0 l 1
EndSplineSet
Validated: 1
EndChar

StartChar: Agrave
Encoding: 192 192 7
Width: 1413
VWidth: 0
Flags: W
HStem: 1 42<113 178.3 404.463 507 885 958.793 1216.46 1285> 478 56<500 893>
DStem2: 255 72 332 65 0.347469 0.937691<20.1913 458.883 518.343 1104.51> 746 1268 700 1085 0.326354 -0.945248<157.968 741.786 800.92 1229.11>
LayerCount: 2
Fore
SplineSet
500 534 m 1
 893 534 l 1
 700 1085 l 1
 500 534 l 1
108 0 m 1
 113 42 l 1
 255 72 l 1
 693 1254 l 1
 746 1268 l 1
 1161 66 l 1
 1293 47 l 1
 1285 1 l 1
 876 1 l 1
 885 43 l 1
 1051 73 l 1
 912 478 l 1
 480 478 l 1
 332 65 l 1
 516 46 l 1
 507 0 l 1
 108 0 l 1
539 1667 m 1
 633 1704 l 1
 766 1368 l 1
 720 1341 l 1
 539 1667 l 1
EndSplineSet
Validated: 1
EndChar

StartChar: Amacron
Encoding: 256 256 8
Width: 1413
VWidth: 0
Flags: W
HStem: 1 42<113 178.3 404.463 507 885 958.793 1216.46 1285> 478 56<500 893> 1386 52<496 928>
DStem2: 255 72 332 65 0.347469 0.937691<20.1913 458.883 518.343 1104.51> 746 1268 700 1085 0.326354 -0.945248<157.968 741.786 800.92 1229.11>
LayerCount: 2
Fore
SplineSet
500 534 m 1
 893 534 l 1
 700 1085 l 1
 500 534 l 1
108 0 m 1
 113 42 l 1
 255 72 l 1
 693 1254 l 1
 746 1268 l 1
 1161 66 l 1
 1293 47 l 1
 1285 1 l 1
 876 1 l 1
 885 43 l 1
 1051 73 l 1
 912 478 l 1
 480 478 l 1
 332 65 l 1
 516 46 l 1
 507 0 l 1
 108 0 l 1
487 1386 m 1
 496 1438 l 1
 936 1438 l 1
 928 1386 l 1
 487 1386 l 1
EndSplineSet
Validated: 1
EndChar

StartChar: Aogonek
Encoding: 260 260 9
Width: 1413
VWidth: 0
Flags: W
HStem: -387 34<1316.49 1321.91> 1 42<113 178.3 404.463 507 885 958.793 1216.46 1228 1261.52 1285> 478 56<500 893>
VStem: 1102 98<-278.248 -88.7526>
DStem2: 255 72 332 65 0.347469 0.937691<20.1913 458.883 518.343 1104.51> 746 1268 700 1085 0.326354 -0.945248<157.968 741.786 800.92 1229.11>
LayerCount: 2
Fore
SplineSet
500 534 m 1
 893 534 l 1
 700 1085 l 1
 500 534 l 1
108 0 m 1
 113 42 l 1
 255 72 l 1
 693 1254 l 1
 746 1268 l 1
 1161 66 l 1
 1293 47 l 1
 1285 1 l 1
 1278 1 l 1
 1215 -76 1200 -121 1200 -166 c 0
 1200 -248 1250 -300 1341 -353 c 1
 1308 -387 l 1
 1164 -372 1102 -294 1102 -209 c 0
 1102 -156 1123 -98 1228 1 c 1
 876 1 l 1
 885 43 l 1
 1051 73 l 1
 912 478 l 1
 480 478 l 1
 332 65 l 1
 516 46 l 1
 507 0 l 1
 108 0 l 1
EndSplineSet
Validated: 1
EndChar

StartChar: Aring
Encoding: 197 197 10
Width: 1413
VWidth: 0
Flags: W
HStem: 1 42<113 178.3 404.463 507 885 958.793 1216.46 1285> 478 56<500 893> 1369 41<663.54 775.588> 1666 40<655.402 763.052>
VStem: 553 65<1444.49 1633.78> 813 66<1441.36 1629.68>
DStem2: 255 72 332 65 0.347469 0.937691<20.1913 458.883 518.343 1104.51> 746 1268 700 1085 0.326354 -0.945248<157.968 741.786 800.92 1229.11>
LayerCount: 2
Fore
SplineSet
500 534 m 1
 893 534 l 1
 700 1085 l 1
 500 534 l 1
108 0 m 1
 113 42 l 1
 255 72 l 1
 693 1254 l 1
 746 1268 l 1
 1161 66 l 1
 1293 47 l 1
 1285 1 l 1
 876 1 l 1
 885 43 l 1
 1051 73 l 1
 912 478 l 1
 480 478 l 1
 332 65 l 1
 516 46 l 1
 507 0 l 1
 108 0 l 1
618 1546 m 0
 618 1482 650 1410 719 1410 c 0
 778 1410 813 1453 813 1529 c 0
 813 1595 775 1666 709 1666 c 0
 645 1666 618 1606 618 1546 c 0
553 1535 m 0
 553 1627 627 1706 721 1706 c 0
 818 1706 879 1638 879 1544 c 0
 879 1453 811 1369 709 1369 c 0
 617 1369 553 1433 553 1535 c 0
EndSplineSet
Validated: 1
EndChar

StartChar: Atilde
Encoding: 195 195 11
Width: 1413
VWidth: 0
Flags: W
HStem: 1 42<113 178.3 404.463 507 885 958.793 1216.46 1285> 478 56<500 893>
VStem: 470 28<1382.86 1404.36>
DStem2: 255 72 332 65 0.347469 0.937691<20.1913 458.883 518.343 1104.51> 628 1524 597 1453 0.958262 -0.28589<-62.5169 248.786> 746 1268 700 1085 0.326354 -0.945248<157.968 741.786 800.92 1229.11>
LayerCount: 2
Fore
SplineSet
500 534 m 1
 893 534 l 1
 700 1085 l 1
 500 534 l 1
108 0 m 1
 113 42 l 1
 255 72 l 1
 693 1254 l 1
 746 1268 l 1
 1161 66 l 1
 1293 47 l 1
 1285 1 l 1
 876 1 l 1
 885 43 l 1
 1051 73 l 1
 912 478 l 1
 480 478 l 1
 332 65 l 1
 516 46 l 1
 507 0 l 1
 108 0 l 1
470 1389 m 1
 470 1389 503 1561 628 1524 c 2
 809 1470 l 2
 882 1448 905 1537 905 1537 c 1
 939 1535 l 1
 939 1535 900 1364 773 1401 c 2
 597 1453 l 1
 533 1473 498 1377 498 1377 c 1
 470 1389 l 1
EndSplineSet
Validated: 33
EndChar

StartChar: B
Encoding: 66 66 12
Width: 1123
VWidth: 0
Flags: W
HStem: 0 54<123 144.932 393 772.628> 631 49<393 734.615 763 791.309> 1175 36<130 232.081> 1212 45<393.92 676.749>
VStem: 292 101<72 631 680 1153> 868 102<818.271 1087.84> 969 106<198.316 503.626>
LayerCount: 2
Fore
SplineSet
393 680 m 1xfc
 703 680 l 1
 776 727 868 815 868 933 c 0
 868 1121 731 1212 515 1212 c 0
 489 1212 420 1212 393 1206 c 1
 393 680 l 1xfc
393 54 m 1
 639 54 l 2
 898 54 969 208 969 347 c 0xfa
 969 471 895 631 649 631 c 2
 393 631 l 1
 393 54 l 1
115 0 m 1
 123 42 l 1
 292 72 l 1
 292 1153 l 1
 120 1175 l 1
 130 1211 l 1
 276 1233 396 1257 573 1257 c 0
 836 1257 970 1118 970 967 c 0xfc
 970 831 881 743 763 678 c 1
 763 672 l 1
 969 661 1075 513 1075 380 c 0
 1075 185 957 0 540 0 c 2
 115 0 l 1
EndSplineSet
Validated: 8388609
EndChar

StartChar: C
Encoding: 67 67 13
Width: 1071
VWidth: 0
Flags: W
HStem: -26 83<530.991 864.172> 1215 56<552.007 834.953>
VStem: 154 112<357.175 861.915> 979 47<842 965.767>
LayerCount: 2
Fore
SplineSet
154 607 m 0
 154 903 334 1271 717 1271 c 0
 850 1271 960 1244 1057 1171 c 1
 1026 834 l 1
 979 842 l 1
 949 1101 l 1
 903 1161 829 1215 670 1215 c 0
 452 1215 266 976 266 643 c 0
 266 269 438 57 726 57 c 0
 880 57 1007 150 1089 243 c 1
 1112 206 l 1
 1049 112 881 -26 665 -26 c 0
 359 -26 154 222 154 607 c 0
EndSplineSet
Validated: 1
EndChar

StartChar: Cacute
Encoding: 262 262 14
Width: 1071
VWidth: 0
Flags: W
HStem: -26 83<530.991 864.172> 1215 56<552.007 834.953>
VStem: 154 112<357.175 861.915> 979 47<842 965.767>
LayerCount: 2
Fore
SplineSet
154 607 m 0
 154 903 334 1271 717 1271 c 0
 850 1271 960 1244 1057 1171 c 1
 1026 834 l 1
 979 842 l 1
 949 1101 l 1
 903 1161 829 1215 670 1215 c 0
 452 1215 266 976 266 643 c 0
 266 269 438 57 726 57 c 0
 880 57 1007 150 1089 243 c 1
 1112 206 l 1
 1049 112 881 -26 665 -26 c 0
 359 -26 154 222 154 607 c 0
671 1376 m 1
 803 1713 l 1
 899 1674 l 1
 716 1350 l 1
 671 1376 l 1
EndSplineSet
Validated: 1
EndChar

StartChar: Ccaron
Encoding: 268 268 15
Width: 1071
VWidth: 0
Flags: W
HStem: -26 83<530.991 864.172> 1215 56<552.007 834.953>
VStem: 154 112<357.175 861.915> 979 47<842 965.767>
DStem2: 572 1592 517 1543 0.705134 -0.709074<0 236.886> 747 1423 752 1377 0.687087 0.726575<0 218.138>
LayerCount: 2
Fore
SplineSet
154 607 m 0
 154 903 334 1271 717 1271 c 0
 850 1271 960 1244 1057 1171 c 1
 1026 834 l 1
 979 842 l 1
 949 1101 l 1
 903 1161 829 1215 670 1215 c 0
 452 1215 266 976 266 643 c 0
 266 269 438 57 726 57 c 0
 880 57 1007 150 1089 243 c 1
 1112 206 l 1
 1049 112 881 -26 665 -26 c 0
 359 -26 154 222 154 607 c 0
517 1543 m 1
 572 1592 l 1
 738 1423 l 1
 747 1423 l 1
 890 1588 l 1
 926 1561 l 1
 752 1377 l 1
 696 1363 l 1
 517 1543 l 1
EndSplineSet
Validated: 1
EndChar

StartChar: Ccedilla
Encoding: 199 199 16
Width: 1071
VWidth: 0
Flags: W
HStem: -26 83<532.625 668> 1215 56<552.007 834.953>
VStem: 154 112<357.175 861.915> 689 92<-306.084 -156.082> 979 47<842 965.767>
LayerCount: 2
Fore
SplineSet
154 607 m 0
 154 903 334 1271 717 1271 c 0
 850 1271 960 1244 1057 1171 c 1
 1026 834 l 1
 979 842 l 1
 949 1101 l 1
 903 1161 829 1215 670 1215 c 0
 452 1215 266 976 266 643 c 0
 266 269 438 57 726 57 c 0
 880 57 1007 150 1089 243 c 1
 1112 206 l 1
 1055 122 915 2 730 -22 c 1
 692 -76 l 1
 729 -109 781 -161 781 -227 c 0
 781 -306 700 -354 582 -390 c 1
 571 -347 l 1
 629 -327 689 -276 689 -247 c 0
 689 -182 639 -154 603 -118 c 1
 668 -26 l 2
 667 -26 666 -26 665 -26 c 0
 359 -26 154 222 154 607 c 0
EndSplineSet
Validated: 8388609
EndChar

StartChar: Cdotaccent
Encoding: 266 266 17
Width: 1071
VWidth: 0
Flags: W
HStem: -26 83<530.991 864.172> 1215 56<552.007 834.953> 1376 200<642.212 753.788>
VStem: 154 112<357.175 861.915> 635 126<1378.8 1573.53> 979 47<842 965.767>
LayerCount: 2
Fore
SplineSet
635 1479 m 0
 635 1542 655 1576 698 1576 c 0
 741 1576 761 1543 761 1479 c 0
 761 1413 744 1376 698 1376 c 0
 652 1376 635 1415 635 1479 c 0
154 607 m 0
 154 903 334 1271 717 1271 c 0
 850 1271 960 1244 1057 1171 c 1
 1026 834 l 1
 979 842 l 1
 949 1101 l 1
 903 1161 829 1215 670 1215 c 0
 452 1215 266 976 266 643 c 0
 266 269 438 57 726 57 c 0
 880 57 1007 150 1089 243 c 1
 1112 206 l 1
 1049 112 881 -26 665 -26 c 0
 359 -26 154 222 154 607 c 0
EndSplineSet
Validated: 1
EndChar

StartChar: D
Encoding: 68 68 18
Width: 1322
VWidth: 0
Flags: W
HStem: 0 54<123 144.932 393 765.025> 1175 36<130 232.081> 1205 54<394.1 762.406>
VStem: 292 101<72 1153> 1161 114<410.29 863.244>
LayerCount: 2
Fore
SplineSet
393 54 m 1xb8
 573 54 l 2
 927 54 1161 267 1161 599 c 0
 1161 962 956 1205 567 1205 c 0
 525 1205 435 1207 393 1201 c 1
 393 54 l 1xb8
115 0 m 1
 123 42 l 1
 292 72 l 1
 292 1153 l 1
 120 1175 l 1
 130 1211 l 1xd8
 327 1242 458 1259 604 1259 c 0
 1112 1259 1275 963 1275 655 c 0
 1275 313 1059 0 546 0 c 2
 115 0 l 1
EndSplineSet
Validated: 8388641
EndChar

StartChar: Dcaron
Encoding: 270 270 19
Width: 1322
VWidth: 0
Flags: W
HStem: 0 54<123 144.932 393 765.025> 1175 36<130 232.081> 1205 54<394.1 762.406>
VStem: 292 101<72 1153> 1161 114<410.29 863.244>
DStem2: 495 1592 440 1543 0.705134 -0.709074<0 236.886> 670 1423 675 1377 0.687087 0.726575<0 218.138>
LayerCount: 2
Fore
SplineSet
393 54 m 1xb8
 573 54 l 2
 927 54 1161 267 1161 599 c 0
 1161 962 956 1205 567 1205 c 0
 525 1205 435 1207 393 1201 c 1
 393 54 l 1xb8
115 0 m 1
 123 42 l 1
 292 72 l 1
 292 1153 l 1
 120 1175 l 1
 130 1211 l 1xd8
 327 1242 458 1259 604 1259 c 0
 1112 1259 1275 963 1275 655 c 0
 1275 313 1059 0 546 0 c 2
 115 0 l 1
440 1543 m 1
 495 1592 l 1
 661 1423 l 1
 670 1423 l 1
 813 1588 l 1
 849 1561 l 1
 675 1377 l 1
 619 1363 l 1
 440 1543 l 1
EndSplineSet
Validated: 8388641
EndChar

StartChar: Dcroat
Encoding: 272 272 20
Width: 1322
VWidth: 0
Flags: W
HStem: 0 54<123 144.932 393 765.025> 1175 36<130 232.081> 1205 54<394.1 762.406>
VStem: 292 101<72 605 672 1153> 1161 114<410.29 863.244>
DStem2: 120 653 111 592 0.997592 0.0693513<0 168.257 273.66 549.145>
LayerCount: 2
Fore
SplineSet
393 54 m 1xb8
 573 54 l 2
 927 54 1161 267 1161 599 c 0
 1161 962 956 1205 567 1205 c 0
 525 1205 435 1207 393 1201 c 1
 393 672 l 1
 680 691 l 1
 672 631 l 1
 393 612 l 1
 393 54 l 1xb8
111 592 m 1
 120 653 l 1
 292 664 l 1
 292 1153 l 1
 120 1175 l 1
 130 1211 l 1xd8
 327 1242 458 1259 604 1259 c 0
 1112 1259 1275 963 1275 655 c 0
 1275 313 1059 0 546 0 c 2
 115 0 l 1
 123 42 l 1
 292 72 l 1
 292 605 l 1
 111 592 l 1
EndSplineSet
Validated: 8388641
EndChar

StartChar: E
Encoding: 69 69 21
Width: 1071
VWidth: 0
Flags: W
HStem: 0 54<127 149.062 401 963> 605 54<401 731> 1193 51<125 171.064 401 935>
VStem: 297 104<72 605 659 1175> 747 47<417 584.512> 777 50<744.143 798> 954 46<931 1072.52> 1037 41<270.887 316.497>
LayerCount: 2
Fore
SplineSet
118 1202 m 1xfb
 125 1244 l 1
 1031 1244 l 1
 1000 925 l 1
 954 931 l 1
 935 1193 l 1
 401 1193 l 1
 401 659 l 1
 740 659 l 1
 777 798 l 1
 827 806 l 1xf7
 794 417 l 1
 747 408 l 1
 731 605 l 1
 401 605 l 1
 401 54 l 1
 963 54 l 1
 1037 323 l 1
 1078 313 l 1
 1048 0 l 1
 121 0 l 1
 127 42 l 1
 297 72 l 1
 297 1175 l 1
 118 1202 l 1xfb
EndSplineSet
Validated: 8388609
EndChar

StartChar: Eacute
Encoding: 201 201 22
Width: 1071
VWidth: 0
Flags: W
HStem: 0 54<127 149.062 401 963> 605 54<401 731> 1193 51<125 171.064 401 935>
VStem: 297 104<72 605 659 1175> 747 47<417 584.512> 777 50<744.143 798> 954 46<931 1072.52> 1037 41<270.887 316.497>
LayerCount: 2
Fore
SplineSet
118 1202 m 1xfb
 125 1244 l 1
 1031 1244 l 1
 1000 925 l 1
 954 931 l 1
 935 1193 l 1
 401 1193 l 1
 401 659 l 1
 740 659 l 1
 777 798 l 1
 827 806 l 1xf7
 794 417 l 1
 747 408 l 1
 731 605 l 1
 401 605 l 1
 401 54 l 1
 963 54 l 1
 1037 323 l 1
 1078 313 l 1
 1048 0 l 1
 121 0 l 1
 127 42 l 1
 297 72 l 1
 297 1175 l 1
 118 1202 l 1xfb
556 1376 m 1
 688 1713 l 1
 784 1674 l 1
 601 1350 l 1
 556 1376 l 1
EndSplineSet
Validated: 8388609
EndChar

StartChar: Ecaron
Encoding: 282 282 23
Width: 1071
VWidth: 0
Flags: W
HStem: 0 54<127 149.062 401 963> 605 54<401 731> 1193 51<125 171.064 401 935>
VStem: 297 104<72 605 659 1175> 747 47<417 584.512> 777 50<744.143 798> 954 46<931 1072.52> 1037 41<270.887 316.497>
DStem2: 489 1592 434 1543 0.705134 -0.709074<0 236.886> 664 1423 669 1377 0.687087 0.726575<0 218.138>
LayerCount: 2
Fore
SplineSet
118 1202 m 1xfb
 125 1244 l 1
 1031 1244 l 1
 1000 925 l 1
 954 931 l 1
 935 1193 l 1
 401 1193 l 1
 401 659 l 1
 740 659 l 1
 777 798 l 1
 827 806 l 1xf7
 794 417 l 1
 747 408 l 1
 731 605 l 1
 401 605 l 1
 401 54 l 1
 963 54 l 1
 1037 323 l 1
 1078 313 l 1
 1048 0 l 1
 121 0 l 1
 127 42 l 1
 297 72 l 1
 297 1175 l 1
 118 1202 l 1xfb
434 1543 m 1
 489 1592 l 1
 655 1423 l 1
 664 1423 l 1
 807 1588 l 1
 843 1561 l 1
 669 1377 l 1
 613 1363 l 1
 434 1543 l 1
EndSplineSet
Validated: 8388609
EndChar

StartChar: Ecircumflex
Encoding: 202 202 24
Width: 1071
VWidth: 0
Flags: W
HStem: 0 54<127 149.062 401 963> 605 54<401 731> 1193 51<125 171.064 401 935>
VStem: 297 104<72 605 659 1175> 747 47<417 584.512> 777 50<744.143 798> 954 46<931 1072.52> 1037 41<270.887 316.497>
LayerCount: 2
Fore
SplineSet
118 1202 m 1xfb
 125 1244 l 1
 1031 1244 l 1
 1000 925 l 1
 954 931 l 1
 935 1193 l 1
 401 1193 l 1
 401 659 l 1
 740 659 l 1
 777 798 l 1
 827 806 l 1xf7
 794 417 l 1
 747 408 l 1
 731 605 l 1
 401 605 l 1
 401 54 l 1
 963 54 l 1
 1037 323 l 1
 1078 313 l 1
 1048 0 l 1
 121 0 l 1
 127 42 l 1
 297 72 l 1
 297 1175 l 1
 118 1202 l 1xfb
423 1394 m 1
 590 1575 l 1
 644 1588 l 1
 823 1402 l 1
 791 1365 l 1
 610 1500 l 1
 601 1500 l 1
 444 1364 l 1
 423 1394 l 1
EndSplineSet
Validated: 8388609
EndChar

StartChar: Edieresis
Encoding: 203 203 25
Width: 1071
VWidth: 0
Flags: W
HStem: 0 54<127 149.062 401 963> 605 54<401 731> 1193 51<125 171.064 401 935> 1373 159<433.518 538.932 702.344 807.141>
VStem: 297 104<72 605 659 1175> 430 113<1374.06 1530.7> 699 112<1374.06 1530.7> 747 47<417 584.512> 777 50<744.143 798> 954 46<931 1072.52> 1037 41<270.887 316.497>
LayerCount: 2
Fore
SplineSet
118 1202 m 1xfd60
 125 1244 l 1
 1031 1244 l 1
 1000 925 l 1
 954 931 l 1
 935 1193 l 1
 401 1193 l 1
 401 659 l 1
 740 659 l 1
 777 798 l 1
 827 806 l 1xfce0
 794 417 l 1
 747 408 l 1
 731 605 l 1
 401 605 l 1
 401 54 l 1
 963 54 l 1
 1037 323 l 1
 1078 313 l 1
 1048 0 l 1
 121 0 l 1
 127 42 l 1
 297 72 l 1
 297 1175 l 1
 118 1202 l 1xfd60
699 1454 m 0xfe60
 699 1504 714 1532 753 1532 c 0
 790 1532 811 1505 811 1454 c 0
 811 1401 796 1373 754 1373 c 0
 712 1373 699 1403 699 1454 c 0xfe60
430 1454 m 0
 430 1504 446 1532 485 1532 c 0
 522 1532 543 1505 543 1454 c 0
 543 1401 529 1373 487 1373 c 0
 445 1373 430 1403 430 1454 c 0
EndSplineSet
Validated: 8388609
EndChar

StartChar: Edotaccent
Encoding: 278 278 26
Width: 1071
VWidth: 0
Flags: W
HStem: 0 54<127 149.062 401 963> 605 54<401 731> 1193 51<125 171.064 401 935> 1356 199<556.849 668.929>
VStem: 297 104<72 605 659 1175> 550 126<1358.74 1552.01> 747 47<417 584.512> 777 50<744.143 798> 954 46<931 1072.52> 1037 41<270.887 316.497>
LayerCount: 2
Fore
SplineSet
118 1202 m 1xfec0
 125 1244 l 1
 1031 1244 l 1
 1000 925 l 1
 954 931 l 1
 935 1193 l 1
 401 1193 l 1
 401 659 l 1
 740 659 l 1
 777 798 l 1
 827 806 l 1xfdc0
 794 417 l 1
 747 408 l 1
 731 605 l 1
 401 605 l 1
 401 54 l 1
 963 54 l 1
 1037 323 l 1
 1078 313 l 1
 1048 0 l 1
 121 0 l 1
 127 42 l 1
 297 72 l 1
 297 1175 l 1
 118 1202 l 1xfec0
550 1458 m 0
 550 1521 568 1555 611 1555 c 0
 654 1555 676 1522 676 1458 c 0
 676 1392 658 1356 612 1356 c 0
 566 1356 550 1394 550 1458 c 0
EndSplineSet
Validated: 8388609
EndChar

StartChar: Egrave
Encoding: 200 200 27
Width: 1071
VWidth: 0
Flags: W
HStem: 0 54<127 149.062 401 963> 605 54<401 731> 1193 51<125 171.064 401 935>
VStem: 297 104<72 605 659 1175> 747 47<417 584.512> 777 50<744.143 798> 954 46<931 1072.52> 1037 41<270.887 316.497>
LayerCount: 2
Fore
SplineSet
118 1202 m 1xfb
 125 1244 l 1
 1031 1244 l 1
 1000 925 l 1
 954 931 l 1
 935 1193 l 1
 401 1193 l 1
 401 659 l 1
 740 659 l 1
 777 798 l 1
 827 806 l 1xf7
 794 417 l 1
 747 408 l 1
 731 605 l 1
 401 605 l 1
 401 54 l 1
 963 54 l 1
 1037 323 l 1
 1078 313 l 1
 1048 0 l 1
 121 0 l 1
 127 42 l 1
 297 72 l 1
 297 1175 l 1
 118 1202 l 1xfb
457 1667 m 1
 551 1704 l 1
 684 1368 l 1
 638 1341 l 1
 457 1667 l 1
EndSplineSet
Validated: 8388609
EndChar

StartChar: Emacron
Encoding: 274 274 28
Width: 1071
VWidth: 0
Flags: W
HStem: 0 54<127 149.062 401 963> 605 54<401 731> 1193 51<125 171.064 401 935> 1386 52<388 820>
VStem: 297 104<72 605 659 1175> 747 47<417 584.512> 777 50<744.143 798> 954 46<931 1072.52> 1037 41<270.887 316.497>
LayerCount: 2
Fore
SplineSet
118 1202 m 1xfd80
 125 1244 l 1
 1031 1244 l 1
 1000 925 l 1
 954 931 l 1
 935 1193 l 1
 401 1193 l 1
 401 659 l 1
 740 659 l 1
 777 798 l 1
 827 806 l 1xfb80
 794 417 l 1
 747 408 l 1
 731 605 l 1
 401 605 l 1
 401 54 l 1
 963 54 l 1
 1037 323 l 1
 1078 313 l 1
 1048 0 l 1
 121 0 l 1
 127 42 l 1
 297 72 l 1
 297 1175 l 1
 118 1202 l 1xfd80
379 1386 m 1
 388 1438 l 1
 828 1438 l 1
 820 1386 l 1
 379 1386 l 1
EndSplineSet
Validated: 8388609
EndChar

StartChar: Eng
Encoding: 330 330 29
Width: 1377
VWidth: 0
Flags: W
HStem: 0 46<94 160.389 418.904 509> 1205 39<84 145.905 901 977.979 1235.18 1317>
VStem: 261 74<72 1133> 1078 73<179 1180>
DStem2: 387 1244 335 1133 0.552032 -0.833823<63.8487 1269.48>
LayerCount: 2
Fore
SplineSet
76 1208 m 1
 84 1244 l 1
 387 1244 l 1
 1078 179 l 1
 1078 1180 l 1
 895 1205 l 1
 901 1244 l 1
 1325 1244 l 1
 1317 1205 l 1
 1151 1182 l 1
 1151 151 l 2
 1151 -100 1063 -259 930 -353 c 1
 885 -384 l 1
 852 -335 l 1
 946 -265 1031 -158 1052 50 c 1
 335 1133 l 1
 335 65 l 1
 519 46 l 1
 509 0 l 1
 88 0 l 1
 94 42 l 1
 261 72 l 1
 261 1175 l 1
 76 1208 l 1
EndSplineSet
Validated: 1
EndChar

StartChar: Eogonek
Encoding: 280 280 30
Width: 1071
VWidth: 0
Flags: W
HStem: -387 34<1072.49 1077.91> 0 54<127 149.062 401 963> 605 54<401 731> 1193 51<125 171.064 401 935>
VStem: 297 104<72 605 659 1175> 747 47<417 584.512> 777 50<744.143 798> 858 98<-278.248 -89.4588> 954 46<931 1072.52> 1037 41<270.887 316.497>
LayerCount: 2
Fore
SplineSet
118 1202 m 1xfd40
 125 1244 l 1
 1031 1244 l 1
 1000 925 l 1
 954 931 l 1
 935 1193 l 1
 401 1193 l 1
 401 659 l 1
 740 659 l 1
 777 798 l 1
 827 806 l 1xfac0
 794 417 l 1
 747 408 l 1
 731 605 l 1
 401 605 l 1
 401 54 l 1
 963 54 l 1
 1037 323 l 1
 1078 313 l 1
 1048 0 l 1
 1034 -0 l 1
 972 -77 956 -122 956 -166 c 0
 956 -248 1006 -300 1097 -353 c 1
 1064 -387 l 1
 920 -372 858 -294 858 -209 c 0
 858 -157 879 -98 984 0 c 1
 121 0 l 1
 127 42 l 1
 297 72 l 1
 297 1175 l 1
 118 1202 l 1xfd40
EndSplineSet
Validated: 8388609
EndChar

StartChar: Eth
Encoding: 208 208 31
Width: 1322
VWidth: 0
Flags: W
HStem: 0 54<123 144.932 393 765.025> 1175 36<130 232.081> 1205 54<394.1 762.406>
VStem: 292 101<72 605 672 1153> 1161 114<410.29 863.244>
DStem2: 120 653 111 592 0.997592 0.0693513<0 168.257 273.66 549.145>
LayerCount: 2
Fore
SplineSet
393 54 m 1xb8
 573 54 l 2
 927 54 1161 267 1161 599 c 0
 1161 962 956 1205 567 1205 c 0
 525 1205 435 1207 393 1201 c 1
 393 672 l 1
 680 691 l 1
 672 631 l 1
 393 612 l 1
 393 54 l 1xb8
111 592 m 1
 120 653 l 1
 292 664 l 1
 292 1153 l 1
 120 1175 l 1
 130 1211 l 1xd8
 327 1242 458 1259 604 1259 c 0
 1112 1259 1275 963 1275 655 c 0
 1275 313 1059 0 546 0 c 2
 115 0 l 1
 123 42 l 1
 292 72 l 1
 292 605 l 1
 111 592 l 1
EndSplineSet
Validated: 8388641
EndChar

StartChar: Euro
Encoding: 8364 8364 32
Width: 1071
VWidth: 0
Flags: W
HStem: -26 69<515.186 794.465> 517 67<-36 139 266 747> 693 65<-29 144 270 793> 1206 65<522.141 814.469>
VStem: 139 123<320.026 517 584 693 758 889.77> 914 44<842 965.767> 931 44<315.52 432>
LayerCount: 2
Fore
SplineSet
-31 693 m 1xfa
 -29 758 l 1
 152 758 l 1
 199 1052 371 1271 684 1271 c 0
 817 1271 893 1244 990 1171 c 1
 958 834 l 1
 914 842 l 1xfc
 884 1101 l 1
 844 1168 793 1206 680 1206 c 0
 445 1206 304 1037 270 758 c 1
 806 758 l 1
 793 693 l 1
 264 693 l 1
 262 668 262 642 262 616 c 0
 262 605 262 595 262 584 c 1
 760 584 l 1
 747 517 l 1
 266 517 l 1
 292 199 448 43 679 43 c 0
 742 43 833 80 899 172 c 1
 931 432 l 1
 975 438 l 1
 1006 103 l 1
 888 20 791 -26 627 -26 c 0
 359 -26 164 186 141 517 c 1
 -37 517 l 1
 -36 584 l 1
 139 584 l 1
 139 621 141 657 144 693 c 1
 -31 693 l 1xfa
EndSplineSet
Validated: 8388609
EndChar

StartChar: Euro.osf
Encoding: 65536 -1 33
Width: 1071
VWidth: 0
Flags: W
HStem: -24 66<451.213 689.561> 358 67<15 139 272 582> 509 65<19 142 267 616> 908 64<421 648.091>
VStem: 139 123<241.522 358 425 509 574 682.492> 736 47<622 725.318> 752 46<212.199 317>
LayerCount: 2
Fore
SplineSet
15 509 m 1xfa
 19 574 l 1
 152 574 l 1
 195 794 348 972 576 972 c 0
 651 972 729 949 813 899 c 1
 783 614 l 1
 736 622 l 1xfc
 707 831 l 1
 656 883 596 908 535 908 c 0
 374 908 288 762 267 574 c 1
 628 574 l 1
 616 509 l 1
 263 509 l 1
 263 498 262 488 262 477 c 0
 262 460 263 442 264 425 c 1
 595 425 l 1
 582 358 l 1
 272 358 l 1
 303 182 405 42 581 42 c 0
 638 42 687 63 723 105 c 1
 752 317 l 1
 798 323 l 1
 829 54 l 1
 769 4 671 -24 571 -24 c 0
 324 -24 175 139 145 358 c 1
 7 358 l 1
 15 425 l 1
 139 425 l 1
 139 431 139 438 139 444 c 0
 139 466 140 488 142 509 c 1
 15 509 l 1xfa
EndSplineSet
Validated: 8388609
EndChar

StartChar: F
Encoding: 70 70 34
Width: 1181
VWidth: 0
Flags: W
HStem: 0 42<118 199.237 511.048 625> 580 53<391 719> 760 20G<767 817.402> 1193 51<118 163.471 391 921>
VStem: 288 103<72 580 633 1175> 737 51<392 540.103> 767 52<721.537 773> 942 49<930 1061.88>
LayerCount: 2
Fore
SplineSet
111 1202 m 1xfd
 118 1244 l 1
 1024 1244 l 1
 991 922 l 1
 942 930 l 1
 921 1193 l 1
 391 1193 l 1
 391 633 l 1
 728 633 l 1
 767 773 l 1
 819 780 l 1xfb
 788 392 l 1
 737 384 l 1
 719 580 l 1
 391 580 l 1
 391 70 l 1
 637 53 l 1
 625 0 l 1
 115 0 l 1
 118 42 l 1
 288 72 l 1
 288 1175 l 1
 111 1202 l 1xfd
EndSplineSet
Validated: 8388609
EndChar

StartChar: G
Encoding: 71 71 35
Width: 1413
VWidth: 0
Flags: W
HStem: -20 65<582.471 946.392> 517 39<791 923.199 1172.52 1264> 1203 59<571.338 894.71>
VStem: 154 114<363.337 847.538> 1024 106<91.5823 492> 1060 45<847 956.139>
LayerCount: 2
Fore
SplineSet
154 604 m 0xf8
 154 909 369 1262 752 1262 c 0
 885 1262 1038 1233 1135 1160 c 1
 1105 842 l 1
 1060 847 l 1xf4
 1029 1083 l 1
 983 1143 878 1203 719 1203 c 0
 438 1203 268 956 268 633 c 0
 268 343 395 45 764 45 c 0
 856 45 948 65 1024 118 c 1
 1026 492 l 1
 785 517 l 1
 791 556 l 1
 1271 556 l 1
 1264 517 l 1
 1130 496 l 1
 1130 79 l 1
 997 0 860 -20 660 -20 c 0
 384 -20 154 219 154 604 c 0xf8
EndSplineSet
Validated: 8388609
EndChar

StartChar: Gbreve
Encoding: 286 286 36
Width: 1413
VWidth: 0
Flags: W
HStem: -20 65<582.471 946.392> 517 39<791 923.199 1172.52 1264> 1203 59<571.338 894.71> 1381 75<647.933 835.36>
VStem: 154 114<363.337 847.538> 550 30<1556.77 1570.47> 1024 106<91.5823 492> 1060 45<847 956.139>
LayerCount: 2
Fore
SplineSet
154 604 m 0xfe
 154 909 369 1262 752 1262 c 0
 885 1262 1038 1233 1135 1160 c 1
 1105 842 l 1
 1060 847 l 1xfd
 1029 1083 l 1
 983 1143 878 1203 719 1203 c 0
 438 1203 268 956 268 633 c 0
 268 343 395 45 764 45 c 0
 856 45 948 65 1024 118 c 1
 1026 492 l 1
 785 517 l 1
 791 556 l 1
 1271 556 l 1
 1264 517 l 1
 1130 496 l 1
 1130 79 l 1
 997 0 860 -20 660 -20 c 0
 384 -20 154 219 154 604 c 0xfe
550 1559 m 1
 580 1583 l 1
 604 1537 656 1456 740 1456 c 0
 827 1456 882 1535 909 1585 c 1
 932 1564 l 1
 903 1476 850 1381 740 1381 c 0
 622 1381 572 1472 550 1559 c 1
EndSplineSet
Validated: 8388609
EndChar

StartChar: Gcommaaccent
Encoding: 290 290 37
Width: 1413
VWidth: 0
Flags: W
HStem: -390 37<641.801 685.016> -151 66<683.914 737.946> -20 65<582.471 946.392> 517 39<791 923.199 1172.52 1264> 1203 59<571.338 894.71>
VStem: 154 114<363.337 847.538> 758 76<-308.093 -170.559> 1024 106<91.5823 492> 1060 45<847 956.139>
LayerCount: 2
Fore
SplineSet
154 604 m 0xff
 154 909 369 1262 752 1262 c 0
 885 1262 1038 1233 1135 1160 c 1
 1105 842 l 1
 1060 847 l 1xfe80
 1029 1083 l 1
 983 1143 878 1203 719 1203 c 0
 438 1203 268 956 268 633 c 0
 268 343 395 45 764 45 c 0
 856 45 948 65 1024 118 c 1
 1026 492 l 1
 785 517 l 1
 791 556 l 1
 1271 556 l 1
 1264 517 l 1
 1130 496 l 1
 1130 79 l 1
 997 0 860 -20 660 -20 c 0
 384 -20 154 219 154 604 c 0xff
632 -353 m 1
 711 -334 758 -294 758 -241 c 0
 758 -176 710 -155 653 -151 c 1
 653 -121 684 -85 730 -85 c 0
 787 -85 834 -127 834 -206 c 0
 834 -269 789 -363 648 -390 c 1
 632 -353 l 1
EndSplineSet
Validated: 8388609
EndChar

StartChar: Gdotaccent
Encoding: 288 288 38
Width: 1413
VWidth: 0
Flags: W
HStem: -20 65<582.471 946.392> 517 39<791 923.199 1172.52 1264> 1203 59<571.338 894.71> 1376 200<650.212 761.788>
VStem: 154 114<363.337 847.538> 643 126<1378.8 1573.53> 1024 106<91.5823 492> 1060 45<847 956.139>
LayerCount: 2
Fore
SplineSet
643 1479 m 0xfc
 643 1542 663 1576 706 1576 c 0
 749 1576 769 1543 769 1479 c 0
 769 1413 752 1376 706 1376 c 0
 660 1376 643 1415 643 1479 c 0xfc
154 604 m 0
 154 909 369 1262 752 1262 c 0
 885 1262 1038 1233 1135 1160 c 1
 1105 842 l 1
 1060 847 l 1xfd
 1029 1083 l 1
 983 1143 878 1203 719 1203 c 0
 438 1203 268 956 268 633 c 0
 268 343 395 45 764 45 c 0
 856 45 948 65 1024 118 c 1
 1026 492 l 1
 785 517 l 1
 791 556 l 1
 1271 556 l 1
 1264 517 l 1
 1130 496 l 1
 1130 79 l 1xfe
 997 0 860 -20 660 -20 c 0
 384 -20 154 219 154 604 c 0
EndSplineSet
Validated: 8388609
EndChar

StartChar: H
Encoding: 72 72 39
Width: 1413
VWidth: 0
Flags: W
HStem: 0 46<130 196.389 486.816 577 954 1019.99 1306.45 1399> 591 60<402 1120> 1205 39<120 220.219 465.662 571 943 1041.51 1285.91 1390>
VStem: 297 105<72 591 651 1180> 1120 103<72 591 651 1180>
LayerCount: 2
Fore
SplineSet
117 1205 m 1
 120 1244 l 1
 576 1244 l 1
 571 1205 l 1
 402 1182 l 1
 402 651 l 1
 1120 651 l 1
 1120 1180 l 1
 936 1205 l 1
 943 1244 l 1
 1398 1244 l 1
 1390 1205 l 1
 1223 1182 l 1
 1223 65 l 1
 1406 46 l 1
 1399 0 l 1
 946 0 l 1
 954 42 l 1
 1120 72 l 1
 1120 591 l 1
 402 591 l 1
 402 65 l 1
 588 46 l 1
 577 0 l 1
 125 0 l 1
 130 42 l 1
 297 72 l 1
 297 1180 l 1
 117 1205 l 1
EndSplineSet
Validated: 1
EndChar

StartChar: Hbar
Encoding: 294 294 40
Width: 1413
VWidth: 0
Flags: W
HStem: 0 46<130 196.389 486.816 577 954 1019.99 1306.45 1399> 591 60<402 1120> 943 69<132 297 402 1120 1223 1371> 1205 39<120 220.219 465.662 571 943 1041.51 1285.91 1390>
VStem: 297 105<72 591 651 943 1012 1180> 1120 103<72 591 651 943 1012 1180>
LayerCount: 2
Fore
SplineSet
123 943 m 1
 132 1012 l 1
 297 1012 l 1
 297 1180 l 1
 117 1205 l 1
 120 1244 l 1
 576 1244 l 1
 571 1205 l 1
 402 1182 l 1
 402 1006 l 1
 1120 1006 l 1
 1120 1180 l 1
 936 1205 l 1
 943 1244 l 1
 1398 1244 l 1
 1390 1205 l 1
 1223 1182 l 1
 1223 1012 l 1
 1378 1012 l 1
 1371 943 l 1
 1223 943 l 1
 1223 65 l 1
 1406 46 l 1
 1399 0 l 1
 946 0 l 1
 954 42 l 1
 1120 72 l 1
 1120 591 l 1
 402 591 l 1
 402 65 l 1
 588 46 l 1
 577 0 l 1
 125 0 l 1
 130 42 l 1
 297 72 l 1
 297 943 l 1
 123 943 l 1
1120 952 m 1
 402 952 l 1
 402 651 l 1
 1120 651 l 1
 1120 952 l 1
EndSplineSet
Validated: 1
EndChar

StartChar: I
Encoding: 73 73 41
Width: 692
VWidth: 0
Flags: W
HStem: 0 46<136 198.811 490.008 586> 1205 39<127 220.205 467.922 577>
VStem: 294 108<72 1180>
LayerCount: 2
Fore
SplineSet
121 1205 m 1
 127 1244 l 1
 584 1244 l 1
 577 1205 l 1
 402 1182 l 1
 402 65 l 1
 595 46 l 1
 586 0 l 1
 131 0 l 1
 136 42 l 1
 294 72 l 1
 294 1180 l 1
 121 1205 l 1
EndSplineSet
Validated: 1
EndChar

StartChar: Iacute
Encoding: 205 205 42
Width: 692
VWidth: 0
Flags: W
HStem: 0 46<136 198.811 490.008 586> 1205 39<127 220.205 467.922 577>
VStem: 294 108<72 1180>
LayerCount: 2
Fore
SplineSet
121 1205 m 1
 127 1244 l 1
 584 1244 l 1
 577 1205 l 1
 402 1182 l 1
 402 65 l 1
 595 46 l 1
 586 0 l 1
 131 0 l 1
 136 42 l 1
 294 72 l 1
 294 1180 l 1
 121 1205 l 1
303 1376 m 1
 435 1713 l 1
 531 1674 l 1
 348 1350 l 1
 303 1376 l 1
EndSplineSet
Validated: 8388609
EndChar

StartChar: Icaron
Encoding: 463 463 43
Width: 692
VWidth: 0
Flags: W
HStem: 0 46<136 198.811 490.008 586> 1205 39<127 220.205 467.922 577>
VStem: 294 108<72 1180>
DStem2: 204 1592 149 1543 0.705134 -0.709074<0 236.886> 379 1423 384 1377 0.687087 0.726575<0 218.138>
LayerCount: 2
Fore
SplineSet
121 1205 m 1
 127 1244 l 1
 584 1244 l 1
 577 1205 l 1
 402 1182 l 1
 402 65 l 1
 595 46 l 1
 586 0 l 1
 131 0 l 1
 136 42 l 1
 294 72 l 1
 294 1180 l 1
 121 1205 l 1
149 1543 m 1
 204 1592 l 1
 370 1423 l 1
 379 1423 l 1
 522 1588 l 1
 558 1561 l 1
 384 1377 l 1
 328 1363 l 1
 149 1543 l 1
EndSplineSet
Validated: 8388609
EndChar

StartChar: Icircumflex
Encoding: 206 206 44
Width: 692
VWidth: 0
Flags: W
HStem: 0 46<136 198.811 490.008 586> 1205 39<127 220.205 467.922 577>
VStem: 294 108<72 1180>
LayerCount: 2
Fore
SplineSet
121 1205 m 1
 127 1244 l 1
 584 1244 l 1
 577 1205 l 1
 402 1182 l 1
 402 65 l 1
 595 46 l 1
 586 0 l 1
 131 0 l 1
 136 42 l 1
 294 72 l 1
 294 1180 l 1
 121 1205 l 1
148 1394 m 1
 315 1575 l 1
 369 1588 l 1
 548 1402 l 1
 516 1365 l 1
 335 1500 l 1
 326 1500 l 1
 169 1364 l 1
 148 1394 l 1
EndSplineSet
Validated: 8388609
EndChar

StartChar: Idieresis
Encoding: 207 207 45
Width: 692
VWidth: 0
Flags: W
HStem: 0 46<136 198.811 490.008 586> 1205 39<127 220.205 467.922 577> 1373 159<166.518 271.932 435.344 540.141>
VStem: 163 113<1374.06 1530.7> 294 108<72 1180> 432 112<1374.06 1530.7>
LayerCount: 2
Fore
SplineSet
121 1205 m 1
 127 1244 l 1
 584 1244 l 1
 577 1205 l 1
 402 1182 l 1
 402 65 l 1
 595 46 l 1
 586 0 l 1
 131 0 l 1
 136 42 l 1
 294 72 l 1
 294 1180 l 1
 121 1205 l 1
432 1454 m 0
 432 1504 447 1532 486 1532 c 0
 523 1532 544 1505 544 1454 c 0
 544 1401 529 1373 487 1373 c 0
 445 1373 432 1403 432 1454 c 0
163 1454 m 0
 163 1504 179 1532 218 1532 c 0
 255 1532 276 1505 276 1454 c 0
 276 1401 262 1373 220 1373 c 0
 178 1373 163 1403 163 1454 c 0
EndSplineSet
Validated: 1
EndChar

StartChar: Idotaccent
Encoding: 304 304 46
Width: 692
VWidth: 0
Flags: W
HStem: 0 46<136 198.811 490.008 586> 1205 39<127 220.205 467.922 577> 1382 200<295.212 406.788>
VStem: 294 108<72 1180 1383.32 1580.79>
LayerCount: 2
Fore
SplineSet
121 1205 m 1
 127 1244 l 1
 584 1244 l 1
 577 1205 l 1
 402 1182 l 1
 402 65 l 1
 595 46 l 1
 586 0 l 1
 131 0 l 1
 136 42 l 1
 294 72 l 1
 294 1180 l 1
 121 1205 l 1
288 1485 m 0
 288 1548 308 1582 351 1582 c 0
 394 1582 414 1549 414 1485 c 0
 414 1419 397 1382 351 1382 c 0
 305 1382 288 1421 288 1485 c 0
EndSplineSet
Validated: 8388609
EndChar

StartChar: Igrave
Encoding: 204 204 47
Width: 692
VWidth: 0
Flags: W
HStem: 0 46<136 198.811 490.008 586> 1205 39<127 220.205 467.922 577>
VStem: 294 108<72 1180>
LayerCount: 2
Fore
SplineSet
121 1205 m 1
 127 1244 l 1
 584 1244 l 1
 577 1205 l 1
 402 1182 l 1
 402 65 l 1
 595 46 l 1
 586 0 l 1
 131 0 l 1
 136 42 l 1
 294 72 l 1
 294 1180 l 1
 121 1205 l 1
173 1667 m 1
 267 1704 l 1
 400 1368 l 1
 354 1341 l 1
 173 1667 l 1
EndSplineSet
Validated: 8388609
EndChar

StartChar: Imacron
Encoding: 298 298 48
Width: 692
VWidth: 0
Flags: W
HStem: 0 46<136 198.811 490.008 586> 1205 39<127 220.205 467.922 577> 1386 52<136 568>
VStem: 294 108<72 1180>
LayerCount: 2
Fore
SplineSet
121 1205 m 1
 127 1244 l 1
 584 1244 l 1
 577 1205 l 1
 402 1182 l 1
 402 65 l 1
 595 46 l 1
 586 0 l 1
 131 0 l 1
 136 42 l 1
 294 72 l 1
 294 1180 l 1
 121 1205 l 1
127 1386 m 1
 136 1438 l 1
 576 1438 l 1
 568 1386 l 1
 127 1386 l 1
EndSplineSet
Validated: 8388609
EndChar

StartChar: Iogonek
Encoding: 302 302 49
Width: 692
VWidth: 0
Flags: W
HStem: -387 34<597.495 602.914> 0 42<136 211.503 474.702 509 542.751 586> 1205 39<127 220.205 467.922 577>
VStem: 294 108<72 1180> 383 98<-278.248 -89.4588>
LayerCount: 2
Fore
SplineSet
121 1205 m 1xf0
 127 1244 l 1
 584 1244 l 1
 577 1205 l 1
 402 1182 l 1
 402 65 l 1xf0
 595 46 l 1
 586 0 l 1
 559 0 l 1
 497 -77 481 -122 481 -166 c 0
 481 -248 531 -300 622 -353 c 1
 589 -387 l 1
 445 -372 383 -294 383 -209 c 0xe8
 383 -157 404 -98 509 0 c 1
 131 0 l 1
 136 42 l 1
 294 72 l 1
 294 1180 l 1
 121 1205 l 1xf0
EndSplineSet
Validated: 8388609
EndChar

StartChar: J
Encoding: 74 74 50
Width: 589
VWidth: 0
Flags: W
HStem: 1205 39<118 217.94 465.662 571>
VStem: 296 102<8.28918 1180>
LayerCount: 2
Fore
SplineSet
42 -281 m 1
 209 -139 296 0 296 282 c 2
 296 1180 l 1
 113 1205 l 1
 118 1244 l 1
 577 1244 l 1
 571 1205 l 1
 402 1182 l 1
 398 360 l 1
 395 -30 314 -151 64 -325 c 1
 42 -281 l 1
EndSplineSet
Validated: 1
EndChar

StartChar: K
Encoding: 75 75 51
Width: 1212
VWidth: 0
Flags: W
HStem: 0 46<136 198.414 485.816 576> 1205 39<125 219.205 465.038 571 764 859.205 1072.63 1168>
VStem: 293 108<72 1180>
DStem2: 567 644 457 604 0.629497 -0.777003<0 753.095> 602 783 567 644 0.639903 0.768455<-129.212 516.885>
LayerCount: 2
Fore
SplineSet
455 619 m 1
 498 665 536 704 602 783 c 2
 933 1180 l 1
 760 1205 l 1
 764 1244 l 1
 1171 1244 l 1
 1168 1205 l 1
 1015 1182 l 1
 567 644 l 1
 829 332 l 2
 971 163 1049 72 1169 54 c 2
 1223 46 l 1
 1211 3 l 1
 1165 -12 1147 -22 1105 -22 c 0
 972 -22 877 89 760 230 c 1
 457 604 l 1
 455 619 l 1
120 1205 m 1
 125 1244 l 1
 574 1244 l 1
 571 1205 l 1
 401 1182 l 1
 401 65 l 1
 587 46 l 1
 576 0 l 1
 130 0 l 1
 136 42 l 1
 293 72 l 1
 293 1180 l 1
 120 1205 l 1
EndSplineSet
Validated: 1
EndChar

StartChar: Kcommaaccent
Encoding: 310 310 52
Width: 1212
VWidth: 0
Flags: W
HStem: -411 37<637.801 681.016> -172 66<679.914 733.946> 0 46<136 198.414 485.816 576> 1205 39<125 219.205 465.038 571 764 859.205 1072.63 1168>
VStem: 293 108<72 1180> 754 76<-329.093 -191.559>
DStem2: 567 644 457 604 0.629497 -0.777003<0 753.095> 602 783 567 644 0.639903 0.768455<-129.212 516.885>
LayerCount: 2
Fore
SplineSet
455 619 m 1
 498 665 536 704 602 783 c 2
 933 1180 l 1
 760 1205 l 1
 764 1244 l 1
 1171 1244 l 1
 1168 1205 l 1
 1015 1182 l 1
 567 644 l 1
 829 332 l 2
 971 163 1049 72 1169 54 c 2
 1223 46 l 1
 1211 3 l 1
 1165 -12 1147 -22 1105 -22 c 0
 972 -22 877 89 760 230 c 1
 457 604 l 1
 455 619 l 1
120 1205 m 1
 125 1244 l 1
 574 1244 l 1
 571 1205 l 1
 401 1182 l 1
 401 65 l 1
 587 46 l 1
 576 0 l 1
 130 0 l 1
 136 42 l 1
 293 72 l 1
 293 1180 l 1
 120 1205 l 1
628 -374 m 1
 707 -355 754 -315 754 -262 c 0
 754 -197 706 -176 649 -172 c 1
 649 -142 680 -106 726 -106 c 0
 783 -106 830 -148 830 -227 c 0
 830 -290 785 -384 644 -411 c 1
 628 -374 l 1
EndSplineSet
Validated: 1
EndChar

StartChar: L
Encoding: 76 76 53
Width: 1079
VWidth: 0
Flags: W
HStem: 0 54<136 157.932 408 942> 1203 40<137 231.632 465.12 588>
VStem: 305 103<72 1178> 1019 44<285.124 332.607>
LayerCount: 2
Fore
SplineSet
131 0 m 1
 136 42 l 1
 305 72 l 1
 305 1178 l 1
 133 1203 l 1
 137 1243 l 1
 592 1243 l 1
 588 1203 l 1
 408 1182 l 1
 408 54 l 1
 942 54 l 1
 1019 338 l 1
 1063 330 l 1
 1031 0 l 1
 131 0 l 1
EndSplineSet
Validated: 1
EndChar

StartChar: Lacute
Encoding: 313 313 54
Width: 1079
VWidth: 0
Flags: W
HStem: 0 54<136 157.932 408 942> 1203 40<137 231.632 465.12 588>
VStem: 305 103<72 1178> 1019 44<285.124 332.607>
LayerCount: 2
Fore
SplineSet
131 0 m 1
 136 42 l 1
 305 72 l 1
 305 1178 l 1
 133 1203 l 1
 137 1243 l 1
 592 1243 l 1
 588 1203 l 1
 408 1182 l 1
 408 54 l 1
 942 54 l 1
 1019 338 l 1
 1063 330 l 1
 1031 0 l 1
 131 0 l 1
303 1376 m 1
 435 1713 l 1
 531 1674 l 1
 348 1350 l 1
 303 1376 l 1
EndSplineSet
Validated: 8388609
EndChar

StartChar: Lcaron
Encoding: 317 317 55
Width: 1079
VWidth: 0
Flags: W
HStem: 0 54<136 157.932 408 942> 782 21G<666.667 776.5> 1175 106<710.646 809.197> 1203 40<137 231.632 465.12 588>
VStem: 305 103<72 1178> 838 100<930.827 1148.54> 1019 44<285.124 332.607>
LayerCount: 2
Fore
SplineSet
131 0 m 1xde
 136 42 l 1
 305 72 l 1
 305 1178 l 1
 133 1203 l 1
 137 1243 l 1
 592 1243 l 1
 588 1203 l 1
 408 1182 l 1
 408 54 l 1
 942 54 l 1
 1019 338 l 1
 1063 330 l 1
 1031 0 l 1
 131 0 l 1xde
660 827 m 1
 803 884 838 951 838 1033 c 0
 838 1120 788 1175 729 1175 c 0
 720 1175 711 1175 702 1171 c 1
 699 1180 699 1181 699 1190 c 0
 699 1245 738 1281 795 1281 c 0xee
 871 1281 938 1210 938 1072 c 0
 938 978 881 848 672 782 c 1
 660 827 l 1
EndSplineSet
Validated: 8388609
EndChar

StartChar: Lcommaaccent
Encoding: 315 315 56
Width: 1079
VWidth: 0
Flags: W
HStem: -375 37<513.801 557.016> -136 66<555.914 609.946> 0 54<136 157.932 408 942> 1203 40<137 231.632 465.12 588>
VStem: 305 103<72 1178> 630 76<-293.093 -155.559> 1019 44<285.124 332.607>
LayerCount: 2
Fore
SplineSet
131 0 m 1
 136 42 l 1
 305 72 l 1
 305 1178 l 1
 133 1203 l 1
 137 1243 l 1
 592 1243 l 1
 588 1203 l 1
 408 1182 l 1
 408 54 l 1
 942 54 l 1
 1019 338 l 1
 1063 330 l 1
 1031 0 l 1
 131 0 l 1
504 -338 m 1
 583 -319 630 -279 630 -226 c 0
 630 -161 582 -140 525 -136 c 1
 525 -106 556 -70 602 -70 c 0
 659 -70 706 -112 706 -191 c 0
 706 -254 661 -348 520 -375 c 1
 504 -338 l 1
EndSplineSet
Validated: 1
EndChar

StartChar: Lslash
Encoding: 321 321 57
Width: 1079
VWidth: 0
Flags: W
HStem: 0 54<136 157.932 408 942> 1203 40<137 231.632 465.12 588>
VStem: 305 103<72 585 719 1178> 1019 44<285.124 332.607>
DStem2: 131 558 118 475 0.862566 0.505945<0 163.747 320.388 516.025>
LayerCount: 2
Fore
SplineSet
118 475 m 1
 131 558 l 1
 305 659 l 1
 305 1178 l 1
 133 1203 l 1
 137 1243 l 1
 592 1243 l 1
 588 1203 l 1
 408 1182 l 1
 408 719 l 1
 622 843 l 1
 609 763 l 1
 408 645 l 1
 408 54 l 1
 942 54 l 1
 1019 338 l 1
 1063 330 l 1
 1031 0 l 1
 131 0 l 1
 136 42 l 1
 305 72 l 1
 305 585 l 1
 118 475 l 1
EndSplineSet
Validated: 1
EndChar

StartChar: M
Encoding: 77 77 58
Width: 1661
VWidth: 0
Flags: W
HStem: 0 33<83 160.229 389.883 492 1205 1284.08 1555.48 1661> 1208 36<156 228.934 1517.81 1600>
DStem2: 250 64 317 57 0.0744999 0.997221<0 1094.86> 475 1244 396 1151 0.347481 -0.937687<59.7539 1087.41> 860 227 854 60 0.386681 0.922213<0 1046.21>
LayerCount: 2
Fore
SplineSet
78 0 m 1
 83 33 l 1
 250 64 l 1
 333 1175 l 1
 149 1208 l 1
 156 1244 l 1
 475 1244 l 1
 546 1056 l 1
 860 227 l 1
 1218 1099 l 1
 1279 1244 l 1
 1605 1244 l 1
 1600 1208 l 1
 1428 1178 l 1
 1483 57 l 1
 1663 40 l 1
 1661 0 l 1
 1199 0 l 1
 1205 33 l 1
 1376 64 l 1
 1319 1169 l 1
 854 60 l 1
 804 50 l 1
 396 1151 l 1
 317 57 l 1
 498 40 l 1
 492 0 l 1
 78 0 l 1
EndSplineSet
Validated: 1
EndChar

StartChar: N
Encoding: 78 78 59
Width: 1413
VWidth: 0
Flags: W
HStem: -18 21G<1083.76 1151> 0 46<94 160.389 418.904 509> 1205 39<84 145.905 901 977.979 1235.18 1317>
VStem: 261 74<72 1133> 1078 73<179 1180>
DStem2: 387 1244 335 1133 0.552022 -0.833829<63.8499 1269.48>
LayerCount: 2
Fore
SplineSet
76 1208 m 1x78
 84 1244 l 1
 387 1244 l 1
 1078 179 l 1
 1078 1180 l 1
 895 1205 l 1
 901 1244 l 1
 1325 1244 l 1
 1317 1205 l 1
 1151 1182 l 1
 1151 -7 l 1
 1097 -18 l 1xb8
 335 1133 l 1
 335 65 l 1
 519 46 l 1
 509 0 l 1
 88 0 l 1
 94 42 l 1
 261 72 l 1
 261 1175 l 1
 76 1208 l 1x78
EndSplineSet
Validated: 8388609
EndChar

StartChar: Nacute
Encoding: 323 323 60
Width: 1413
VWidth: 0
Flags: W
HStem: -18 21G<1083.76 1151> 0 46<94 160.389 418.904 509> 1205 39<84 145.905 901 977.979 1235.18 1317>
VStem: 261 74<72 1133> 1078 73<179 1180>
DStem2: 387 1244 335 1133 0.552022 -0.833829<63.8499 1269.48>
LayerCount: 2
Fore
SplineSet
76 1208 m 1x78
 84 1244 l 1
 387 1244 l 1
 1078 179 l 1
 1078 1180 l 1
 895 1205 l 1
 901 1244 l 1
 1325 1244 l 1
 1317 1205 l 1
 1151 1182 l 1
 1151 -7 l 1
 1097 -18 l 1xb8
 335 1133 l 1
 335 65 l 1
 519 46 l 1
 509 0 l 1
 88 0 l 1
 94 42 l 1
 261 72 l 1
 261 1175 l 1
 76 1208 l 1x78
619 1376 m 1
 751 1713 l 1
 847 1674 l 1
 664 1350 l 1
 619 1376 l 1
EndSplineSet
Validated: 8388609
EndChar

StartChar: Ncaron
Encoding: 327 327 61
Width: 1413
VWidth: 0
Flags: W
HStem: -18 21G<1083.76 1151> 0 46<94 160.389 418.904 509> 1205 39<84 145.905 901 977.979 1235.18 1317>
VStem: 261 74<72 1133> 1078 73<179 1180>
DStem2: 387 1244 335 1133 0.552022 -0.833829<63.8499 1269.48> 546 1592 491 1543 0.705134 -0.709074<0 236.886> 721 1423 726 1377 0.687087 0.726575<0 218.138>
LayerCount: 2
Fore
SplineSet
76 1208 m 1x78
 84 1244 l 1
 387 1244 l 1
 1078 179 l 1
 1078 1180 l 1
 895 1205 l 1
 901 1244 l 1
 1325 1244 l 1
 1317 1205 l 1
 1151 1182 l 1
 1151 -7 l 1
 1097 -18 l 1xb8
 335 1133 l 1
 335 65 l 1
 519 46 l 1
 509 0 l 1
 88 0 l 1
 94 42 l 1
 261 72 l 1
 261 1175 l 1
 76 1208 l 1x78
491 1543 m 1
 546 1592 l 1
 712 1423 l 1
 721 1423 l 1
 864 1588 l 1
 900 1561 l 1
 726 1377 l 1
 670 1363 l 1
 491 1543 l 1
EndSplineSet
Validated: 8388609
EndChar

StartChar: Ncommaaccent
Encoding: 325 325 62
Width: 1413
VWidth: 0
Flags: W
HStem: -390 37<624.801 668.016> -151 66<666.914 720.946> -18 21G<1083.76 1151> 0 46<94 160.389 418.904 509> 1205 39<84 145.905 901 977.979 1235.18 1317>
VStem: 261 74<72 1133> 741 76<-308.093 -170.559> 1078 73<179 1180>
DStem2: 387 1244 335 1133 0.552022 -0.833829<63.8499 1269.48>
LayerCount: 2
Fore
SplineSet
76 1208 m 1xdf
 84 1244 l 1
 387 1244 l 1
 1078 179 l 1
 1078 1180 l 1
 895 1205 l 1
 901 1244 l 1
 1325 1244 l 1
 1317 1205 l 1
 1151 1182 l 1
 1151 -7 l 1
 1097 -18 l 1xef
 335 1133 l 1
 335 65 l 1
 519 46 l 1
 509 0 l 1
 88 0 l 1
 94 42 l 1
 261 72 l 1
 261 1175 l 1
 76 1208 l 1xdf
615 -353 m 1
 694 -334 741 -294 741 -241 c 0
 741 -176 693 -155 636 -151 c 1
 636 -121 667 -85 713 -85 c 0
 770 -85 817 -127 817 -206 c 0
 817 -269 772 -363 631 -390 c 1
 615 -353 l 1
EndSplineSet
Validated: 8388609
EndChar

StartChar: Ntilde
Encoding: 209 209 63
Width: 1413
VWidth: 0
Flags: W
HStem: -18 21G<1083.76 1151> 0 46<94 160.389 418.904 509> 1205 39<84 145.905 901 977.979 1235.18 1317>
VStem: 261 74<72 1133> 442 28<1382.86 1404.36> 1078 73<179 1180>
DStem2: 387 1244 335 1133 0.552022 -0.833829<63.8499 1269.48> 600 1524 569 1453 0.958262 -0.28589<-62.5169 248.786>
LayerCount: 2
Fore
SplineSet
76 1208 m 1x7c
 84 1244 l 1
 387 1244 l 1
 1078 179 l 1
 1078 1180 l 1
 895 1205 l 1
 901 1244 l 1
 1325 1244 l 1
 1317 1205 l 1
 1151 1182 l 1
 1151 -7 l 1
 1097 -18 l 1xbc
 335 1133 l 1
 335 65 l 1
 519 46 l 1
 509 0 l 1
 88 0 l 1
 94 42 l 1
 261 72 l 1
 261 1175 l 1
 76 1208 l 1x7c
442 1389 m 1
 442 1389 475 1561 600 1524 c 2
 781 1470 l 2
 854 1448 877 1537 877 1537 c 1
 911 1535 l 1
 911 1535 872 1364 745 1401 c 2
 569 1453 l 1
 505 1473 470 1377 470 1377 c 1
 442 1389 l 1
EndSplineSet
Validated: 8388641
EndChar

StartChar: O
Encoding: 79 79 64
Width: 1320
VWidth: 0
Flags: W
HStem: -27 64<574.719 875.801> 1218 56<564.625 848.311>
VStem: 162 110<382.459 884.832> 1165 108<371.363 873.298>
LayerCount: 2
Fore
SplineSet
272 679 m 0
 272 310 438 37 731 37 c 0
 1021 37 1165 330 1165 573 c 0
 1165 954 990 1218 704 1218 c 0
 411 1218 272 940 272 679 c 0
162 620 m 0
 162 1005 389 1274 752 1274 c 0
 1094 1274 1273 996 1273 627 c 0
 1273 321 1089 -27 683 -27 c 0
 366 -27 162 267 162 620 c 0
EndSplineSet
Validated: 1
EndChar

StartChar: OE
Encoding: 338 338 65
Width: 1649
VWidth: 0
Flags: W
HStem: -27 58<484.736 780.154> 0 54<894 1416> 605 54<894 1182> 1193 52<894 1386> 1218 56<467.461 728.939>
VStem: 64 108<381.823 884.832> 788 106<54.4251 605 659 1182.01> 1200 46<417 564.9> 1229 51<744.143 798> 1407 46<931 1077.44> 1488 43<269.439 316.334>
LayerCount: 2
Fore
SplineSet
172 679 m 0xae60
 172 310 346 31 632 31 c 0
 692 31 742 41 788 63 c 1
 788 1151 l 1
 735 1196 676 1218 607 1218 c 0
 314 1218 172 940 172 679 c 0xae60
64 620 m 0
 64 1005 292 1274 655 1274 c 0xaf60
 716 1274 779 1265 832 1245 c 1
 1483 1244 l 1
 1453 925 l 1
 1407 931 l 1
 1386 1193 l 1
 894 1193 l 1
 894 659 l 1
 1192 659 l 1
 1229 798 l 1
 1280 806 l 1x36e0
 1246 417 l 1
 1200 408 l 1
 1182 605 l 1
 894 605 l 1
 894 54 l 1
 1416 54 l 1
 1488 323 l 1
 1531 313 l 1
 1499 0 l 1
 785 0 l 1x7760
 719 -15 650 -27 586 -27 c 0
 269 -27 64 267 64 620 c 0
EndSplineSet
Validated: 8388609
EndChar

StartChar: Oacute
Encoding: 211 211 66
Width: 1320
VWidth: 0
Flags: W
HStem: -27 64<574.719 875.801> 1218 56<564.625 848.311>
VStem: 162 110<382.459 884.832> 1165 108<371.363 873.298>
LayerCount: 2
Fore
SplineSet
272 679 m 0
 272 310 438 37 731 37 c 0
 1021 37 1165 330 1165 573 c 0
 1165 954 990 1218 704 1218 c 0
 411 1218 272 940 272 679 c 0
162 620 m 0
 162 1005 389 1274 752 1274 c 0
 1094 1274 1273 996 1273 627 c 0
 1273 321 1089 -27 683 -27 c 0
 366 -27 162 267 162 620 c 0
640 1376 m 1
 772 1713 l 1
 868 1674 l 1
 685 1350 l 1
 640 1376 l 1
EndSplineSet
Validated: 1
EndChar

StartChar: Ocaron
Encoding: 465 465 67
Width: 1320
VWidth: 0
Flags: W
HStem: -27 64<574.719 875.801> 1218 56<564.625 848.311>
VStem: 162 110<382.459 884.832> 1165 108<371.363 873.298>
DStem2: 569 1592 514 1543 0.705134 -0.709074<0 236.886> 744 1423 749 1377 0.687087 0.726575<0 218.138>
LayerCount: 2
Fore
SplineSet
272 679 m 0
 272 310 438 37 731 37 c 0
 1021 37 1165 330 1165 573 c 0
 1165 954 990 1218 704 1218 c 0
 411 1218 272 940 272 679 c 0
162 620 m 0
 162 1005 389 1274 752 1274 c 0
 1094 1274 1273 996 1273 627 c 0
 1273 321 1089 -27 683 -27 c 0
 366 -27 162 267 162 620 c 0
514 1543 m 1
 569 1592 l 1
 735 1423 l 1
 744 1423 l 1
 887 1588 l 1
 923 1561 l 1
 749 1377 l 1
 693 1363 l 1
 514 1543 l 1
EndSplineSet
Validated: 1
EndChar

StartChar: Ocircumflex
Encoding: 212 212 68
Width: 1320
VWidth: 0
Flags: W
HStem: -27 64<574.719 875.801> 1218 56<564.625 848.311>
VStem: 162 110<382.459 884.832> 1165 108<371.363 873.298>
LayerCount: 2
Fore
SplineSet
272 679 m 0
 272 310 438 37 731 37 c 0
 1021 37 1165 330 1165 573 c 0
 1165 954 990 1218 704 1218 c 0
 411 1218 272 940 272 679 c 0
162 620 m 0
 162 1005 389 1274 752 1274 c 0
 1094 1274 1273 996 1273 627 c 0
 1273 321 1089 -27 683 -27 c 0
 366 -27 162 267 162 620 c 0
514 1394 m 1
 681 1575 l 1
 735 1588 l 1
 914 1402 l 1
 882 1365 l 1
 701 1500 l 1
 692 1500 l 1
 535 1364 l 1
 514 1394 l 1
EndSplineSet
Validated: 1
EndChar

StartChar: Odieresis
Encoding: 214 214 69
Width: 1320
VWidth: 0
Flags: W
HStem: -27 64<574.719 875.801> 1218 56<564.625 848.311> 1373 159<532.518 637.932 801.344 906.141>
VStem: 162 110<382.459 884.832> 529 113<1374.06 1530.7> 798 112<1374.06 1530.7> 1165 108<371.363 873.298>
LayerCount: 2
Fore
SplineSet
272 679 m 0
 272 310 438 37 731 37 c 0
 1021 37 1165 330 1165 573 c 0
 1165 954 990 1218 704 1218 c 0
 411 1218 272 940 272 679 c 0
162 620 m 0
 162 1005 389 1274 752 1274 c 0
 1094 1274 1273 996 1273 627 c 0
 1273 321 1089 -27 683 -27 c 0
 366 -27 162 267 162 620 c 0
798 1454 m 0
 798 1504 813 1532 852 1532 c 0
 889 1532 910 1505 910 1454 c 0
 910 1401 895 1373 853 1373 c 0
 811 1373 798 1403 798 1454 c 0
529 1454 m 0
 529 1504 545 1532 584 1532 c 0
 621 1532 642 1505 642 1454 c 0
 642 1401 628 1373 586 1373 c 0
 544 1373 529 1403 529 1454 c 0
EndSplineSet
Validated: 1
EndChar

StartChar: Ograve
Encoding: 210 210 70
Width: 1320
VWidth: 0
Flags: W
HStem: -27 64<574.719 875.801> 1218 56<564.625 848.311>
VStem: 162 110<382.459 884.832> 1165 108<371.363 873.298>
LayerCount: 2
Fore
SplineSet
272 679 m 0
 272 310 438 37 731 37 c 0
 1021 37 1165 330 1165 573 c 0
 1165 954 990 1218 704 1218 c 0
 411 1218 272 940 272 679 c 0
162 620 m 0
 162 1005 389 1274 752 1274 c 0
 1094 1274 1273 996 1273 627 c 0
 1273 321 1089 -27 683 -27 c 0
 366 -27 162 267 162 620 c 0
530 1667 m 1
 624 1704 l 1
 757 1368 l 1
 711 1341 l 1
 530 1667 l 1
EndSplineSet
Validated: 1
EndChar

StartChar: Ohungarumlaut
Encoding: 336 336 71
Width: 1320
VWidth: 0
Flags: W
HStem: -27 64<574.719 875.801> 1218 56<564.625 848.311>
VStem: 162 110<382.459 884.832> 1165 108<371.363 873.298>
LayerCount: 2
Fore
SplineSet
272 679 m 0
 272 310 438 37 731 37 c 0
 1021 37 1165 330 1165 573 c 0
 1165 954 990 1218 704 1218 c 0
 411 1218 272 940 272 679 c 0
162 620 m 0
 162 1005 389 1274 752 1274 c 0
 1094 1274 1273 996 1273 627 c 0
 1273 321 1089 -27 683 -27 c 0
 366 -27 162 267 162 620 c 0
735 1398 m 1
 992 1597 l 1
 1048 1533 l 1
 756 1365 l 1
 735 1398 l 1
526 1398 m 1
 786 1607 l 1
 846 1537 l 1
 547 1365 l 1
 526 1398 l 1
EndSplineSet
Validated: 1
EndChar

StartChar: Omacron
Encoding: 332 332 72
Width: 1320
VWidth: 0
Flags: W
HStem: -27 64<574.719 875.801> 1218 56<564.625 848.311> 1386 52<511 943>
VStem: 162 110<382.459 884.832> 1165 108<371.363 873.298>
LayerCount: 2
Fore
SplineSet
272 679 m 0
 272 310 438 37 731 37 c 0
 1021 37 1165 330 1165 573 c 0
 1165 954 990 1218 704 1218 c 0
 411 1218 272 940 272 679 c 0
162 620 m 0
 162 1005 389 1274 752 1274 c 0
 1094 1274 1273 996 1273 627 c 0
 1273 321 1089 -27 683 -27 c 0
 366 -27 162 267 162 620 c 0
502 1386 m 1
 511 1438 l 1
 951 1438 l 1
 943 1386 l 1
 502 1386 l 1
EndSplineSet
Validated: 1
EndChar

StartChar: Oslash
Encoding: 216 216 73
Width: 1330
VWidth: 0
Flags: W
HStem: -27 64<571.498 875.801> 1218 56<564.625 851.734>
VStem: 162 110<377.408 884.832> 1165 108<371.363 872.901>
DStem2: 343 308 367 261 0.719219 0.694783<0 984.746>
LayerCount: 2
Fore
SplineSet
162 620 m 0
 162 1005 389 1274 752 1274 c 0
 927 1274 1060 1203 1147 1083 c 1
 1226 1161 l 1
 1314 1127 l 1
 1186 1022 l 1
 1244 915 1273 780 1273 627 c 0
 1273 321 1089 -27 683 -27 c 0
 517 -27 382 53 291 180 c 1
 208 92 l 1
 124 127 l 1
 254 240 l 1
 195 347 162 479 162 620 c 0
1092 950 m 1
 367 261 l 1
 445 122 569 37 731 37 c 0
 1021 37 1165 330 1165 573 c 0
 1165 718 1139 847 1092 950 c 1
1069 995 m 1
 990 1135 864 1218 704 1218 c 0
 411 1218 272 940 272 679 c 0
 272 538 296 411 343 308 c 1
 1069 995 l 1
EndSplineSet
Validated: 1
EndChar

StartChar: Otilde
Encoding: 213 213 74
Width: 1320
VWidth: 0
Flags: W
HStem: -27 64<574.719 875.801> 1218 56<564.625 848.311>
VStem: 162 110<382.459 884.832> 477 28<1376.86 1398.36> 1165 108<371.363 873.298>
DStem2: 635 1518 604 1447 0.958262 -0.28589<-62.5169 248.786>
LayerCount: 2
Fore
SplineSet
477 1383 m 1
 477 1383 510 1555 635 1518 c 2
 816 1464 l 2
 889 1442 912 1531 912 1531 c 1
 946 1529 l 1
 946 1529 907 1358 780 1395 c 2
 604 1447 l 1
 540 1467 505 1371 505 1371 c 1
 477 1383 l 1
272 679 m 0
 272 310 438 37 731 37 c 0
 1021 37 1165 330 1165 573 c 0
 1165 954 990 1218 704 1218 c 0
 411 1218 272 940 272 679 c 0
162 620 m 0
 162 1005 389 1274 752 1274 c 0
 1094 1274 1273 996 1273 627 c 0
 1273 321 1089 -27 683 -27 c 0
 366 -27 162 267 162 620 c 0
EndSplineSet
Validated: 33
EndChar

StartChar: P
Encoding: 80 80 75
Width: 1160
VWidth: 0
Flags: W
HStem: 0 42<125 200.503 487.224 619> 482 47<482 658.538> 1175 36<130 226.565> 1212 44<394.903 650.068>
VStem: 283 110<72 1153> 894 124<724.662 1037.11>
LayerCount: 2
Fore
SplineSet
120 0 m 1
 125 42 l 1
 283 72 l 1
 283 1153 l 1
 121 1175 l 1
 130 1211 l 1
 260 1231 362 1256 534 1256 c 0
 797 1256 1018 1147 1018 893 c 0
 1018 648 782 482 532 482 c 0
 517 482 497 481 482 484 c 1
 472 526 l 1
 526 529 l 1
 793 541 894 695 894 873 c 0
 894 1045 766 1212 503 1212 c 0
 461 1212 393 1206 393 1206 c 1
 393 66 l 1
 627 46 l 1
 619 0 l 1
 120 0 l 1
EndSplineSet
Validated: 1
EndChar

StartChar: Q
Encoding: 81 81 76
Width: 1330
VWidth: 0
Flags: W
HStem: -358 45<1157.95 1246.09> 1218 56<566.786 848.311>
VStem: 162 111<396.971 887.945> 1165 108<382.444 871.855>
LayerCount: 2
Fore
SplineSet
273 660 m 0
 273 297 489 33 770 27 c 1
 1003 72 1165 330 1165 573 c 0
 1165 954 990 1218 704 1218 c 0
 423 1218 273 972 273 660 c 0
162 620 m 0
 162 1005 389 1274 752 1274 c 0
 1094 1274 1273 989 1273 627 c 0
 1273 356 1114 54 813 -12 c 1
 926 -257 1060 -298 1252 -313 c 1
 1249 -319 1246 -352 1243 -358 c 1
 1210 -373 1147 -385 1090 -385 c 0
 914 -385 797 -217 763 -22 c 1
 737 -25 710 -27 683 -27 c 0
 386 -27 162 267 162 620 c 0
EndSplineSet
Validated: 1
EndChar

StartChar: R
Encoding: 82 82 77
Width: 1181
VWidth: 0
Flags: W
HStem: -18 21G<1066 1142.5> 0 42<167 241.547 505.483 627> 571 56<426 640> 1174 36<172 272.227> 1207 46<427.944 704.347>
VStem: 323 103<72 571 627 1153> 887 110<794.508 1088.15>
DStem2: 721 609 640 571 0.520516 -0.853852<0 603.126>
LayerCount: 2
Fore
SplineSet
426 627 m 1x2e
 653 627 l 1
 782 675 887 797 887 933 c 0
 887 1114 755 1207 547 1207 c 0
 493 1207 426 1202 426 1202 c 1
 426 627 l 1x2e
160 0 m 1x66
 167 42 l 1
 323 72 l 1
 323 1153 l 1
 163 1174 l 1
 172 1210 l 1x76
 321 1234 448 1253 597 1253 c 0
 815 1253 997 1155 997 960 c 0
 997 824 930 713 721 610 c 1
 721 609 l 1
 914 323 l 2
 1063 103 1109 74 1175 50 c 1
 1223 34 l 1
 1217 -3 l 1
 1174 -18 1161 -18 1124 -18 c 0xae
 1008 -18 934 90 843 238 c 2
 640 571 l 1
 426 571 l 1
 426 65 l 1
 637 46 l 1
 627 0 l 1
 160 0 l 1x66
EndSplineSet
Validated: 8388609
EndChar

StartChar: Racute
Encoding: 340 340 78
Width: 1181
VWidth: 0
Flags: W
HStem: -18 21G<1066 1142.5> 0 42<167 241.547 505.483 627> 571 56<426 640> 1174 36<172 272.227> 1207 46<427.944 704.347>
VStem: 323 103<72 571 627 1153> 887 110<794.508 1088.15>
DStem2: 721 609 640 571 0.520516 -0.853852<0 603.126>
LayerCount: 2
Fore
SplineSet
426 627 m 1x2e
 653 627 l 1
 782 675 887 797 887 933 c 0
 887 1114 755 1207 547 1207 c 0
 493 1207 426 1202 426 1202 c 1
 426 627 l 1x2e
160 0 m 1x66
 167 42 l 1
 323 72 l 1
 323 1153 l 1
 163 1174 l 1
 172 1210 l 1x76
 321 1234 448 1253 597 1253 c 0
 815 1253 997 1155 997 960 c 0
 997 824 930 713 721 610 c 1
 721 609 l 1
 914 323 l 2
 1063 103 1109 74 1175 50 c 1
 1223 34 l 1
 1217 -3 l 1
 1174 -18 1161 -18 1124 -18 c 0xae
 1008 -18 934 90 843 238 c 2
 640 571 l 1
 426 571 l 1
 426 65 l 1
 637 46 l 1
 627 0 l 1
 160 0 l 1x66
526 1376 m 1
 658 1713 l 1
 754 1674 l 1
 571 1350 l 1
 526 1376 l 1
EndSplineSet
Validated: 8388609
EndChar

StartChar: Rcaron
Encoding: 344 344 79
Width: 1181
VWidth: 0
Flags: W
HStem: -18 21G<1066 1142.5> 0 42<167 241.547 505.483 627> 571 56<426 640> 1174 36<172 272.227> 1207 46<427.944 704.347>
VStem: 323 103<72 571 627 1153> 887 110<794.508 1088.15>
DStem2: 450 1592 395 1543 0.705134 -0.709074<0 236.886> 625 1423 630 1377 0.687087 0.726575<0 218.138> 721 609 640 571 0.520516 -0.853852<0 603.126>
LayerCount: 2
Fore
SplineSet
426 627 m 1x2e
 653 627 l 1
 782 675 887 797 887 933 c 0
 887 1114 755 1207 547 1207 c 0
 493 1207 426 1202 426 1202 c 1
 426 627 l 1x2e
160 0 m 1x66
 167 42 l 1
 323 72 l 1
 323 1153 l 1
 163 1174 l 1
 172 1210 l 1x76
 321 1234 448 1253 597 1253 c 0
 815 1253 997 1155 997 960 c 0
 997 824 930 713 721 610 c 1
 721 609 l 1
 914 323 l 2
 1063 103 1109 74 1175 50 c 1
 1223 34 l 1
 1217 -3 l 1
 1174 -18 1161 -18 1124 -18 c 0xae
 1008 -18 934 90 843 238 c 2
 640 571 l 1
 426 571 l 1
 426 65 l 1
 637 46 l 1
 627 0 l 1
 160 0 l 1x66
395 1543 m 1
 450 1592 l 1
 616 1423 l 1
 625 1423 l 1
 768 1588 l 1
 804 1561 l 1
 630 1377 l 1
 574 1363 l 1
 395 1543 l 1
EndSplineSet
Validated: 8388609
EndChar

StartChar: Rcommaaccent
Encoding: 342 342 80
Width: 1181
VWidth: 0
Flags: W
HStem: -390 37<701.801 745.016> -151 66<743.914 797.946> -18 21G<1066 1142.5> 0 42<167 241.547 505.483 627> 571 56<426 640> 1174 36<172 272.227> 1207 46<427.944 704.347>
VStem: 323 103<72 571 627 1153> 818 76<-308.093 -170.559> 887 110<794.508 1088.15>
DStem2: 721 609 640 571 0.520516 -0.853852<0 603.126>
LayerCount: 2
Fore
SplineSet
426 627 m 1xcb40
 653 627 l 1
 782 675 887 797 887 933 c 0
 887 1114 755 1207 547 1207 c 0
 493 1207 426 1202 426 1202 c 1
 426 627 l 1xcb40
160 0 m 1xd940
 167 42 l 1
 323 72 l 1
 323 1153 l 1
 163 1174 l 1
 172 1210 l 1xdd40
 321 1234 448 1253 597 1253 c 0
 815 1253 997 1155 997 960 c 0
 997 824 930 713 721 610 c 1
 721 609 l 1
 914 323 l 2
 1063 103 1109 74 1175 50 c 1
 1223 34 l 1
 1217 -3 l 1
 1174 -18 1161 -18 1124 -18 c 0xeb40
 1008 -18 934 90 843 238 c 2
 640 571 l 1
 426 571 l 1
 426 65 l 1
 637 46 l 1
 627 0 l 1
 160 0 l 1xd940
692 -353 m 1
 771 -334 818 -294 818 -241 c 0
 818 -176 770 -155 713 -151 c 1
 713 -121 744 -85 790 -85 c 0
 847 -85 894 -127 894 -206 c 0xc980
 894 -269 849 -363 708 -390 c 1
 692 -353 l 1
EndSplineSet
Validated: 8388609
EndChar

StartChar: S
Encoding: 83 83 81
Width: 860
VWidth: 0
Flags: W
HStem: -26 63<326.703 601.089> 1214 57<341.834 563.437>
VStem: 124 48<280.872 393> 143 98<871.223 1118.12> 688 46<858 985.672> 716 110<147.731 394.512>
LayerCount: 2
Fore
SplineSet
94 116 m 1xd4
 124 401 l 1
 172 393 l 1
 200 174 l 1
 245 87 363 37 476 37 c 0
 600 37 716 113 716 262 c 0xe4
 716 561 143 609 143 959 c 0
 143 1158 315 1271 475 1271 c 0
 583 1271 700 1236 767 1161 c 1
 734 851 l 1
 688 858 l 1xd8
 661 1101 l 1
 625 1167 531 1214 449 1214 c 0
 337 1214 241 1137 241 1006 c 0
 241 689 826 631 826 308 c 0
 826 119 672 -26 424 -26 c 0
 280 -26 158 37 94 116 c 1xd4
EndSplineSet
Validated: 8388609
EndChar

StartChar: Sacute
Encoding: 346 346 82
Width: 860
VWidth: 0
Flags: W
HStem: -26 63<326.703 601.089> 1214 57<341.834 563.437>
VStem: 124 48<280.872 393> 143 98<871.223 1118.12> 688 46<858 985.672> 716 110<147.731 394.512>
LayerCount: 2
Fore
SplineSet
94 116 m 1xd4
 124 401 l 1
 172 393 l 1
 200 174 l 1
 245 87 363 37 476 37 c 0
 600 37 716 113 716 262 c 0xe4
 716 561 143 609 143 959 c 0
 143 1158 315 1271 475 1271 c 0
 583 1271 700 1236 767 1161 c 1
 734 851 l 1
 688 858 l 1xd8
 661 1101 l 1
 625 1167 531 1214 449 1214 c 0
 337 1214 241 1137 241 1006 c 0
 241 689 826 631 826 308 c 0
 826 119 672 -26 424 -26 c 0
 280 -26 158 37 94 116 c 1xd4
420 1373 m 1
 552 1710 l 1
 648 1671 l 1
 465 1347 l 1
 420 1373 l 1
EndSplineSet
Validated: 8388609
EndChar

StartChar: Scaron
Encoding: 352 352 83
Width: 860
VWidth: 0
Flags: W
HStem: -26 63<326.703 601.089> 1214 57<341.834 563.437>
VStem: 124 48<280.872 393> 143 98<871.223 1118.12> 688 46<858 985.672> 716 110<147.731 394.512>
DStem2: 320 1589 265 1540 0.705134 -0.709074<0 236.886> 495 1420 500 1374 0.687087 0.726575<0 218.138>
LayerCount: 2
Fore
SplineSet
94 116 m 1xd4
 124 401 l 1
 172 393 l 1
 200 174 l 1
 245 87 363 37 476 37 c 0
 600 37 716 113 716 262 c 0xe4
 716 561 143 609 143 959 c 0
 143 1158 315 1271 475 1271 c 0
 583 1271 700 1236 767 1161 c 1
 734 851 l 1
 688 858 l 1xd8
 661 1101 l 1
 625 1167 531 1214 449 1214 c 0
 337 1214 241 1137 241 1006 c 0
 241 689 826 631 826 308 c 0
 826 119 672 -26 424 -26 c 0
 280 -26 158 37 94 116 c 1xd4
265 1540 m 1
 320 1589 l 1
 486 1420 l 1
 495 1420 l 1
 638 1585 l 1
 674 1558 l 1
 500 1374 l 1
 444 1360 l 1
 265 1540 l 1
EndSplineSet
Validated: 8388609
EndChar

StartChar: Scedilla
Encoding: 350 350 84
Width: 860
VWidth: 0
Flags: W
HStem: -26 63<326.839 445> 1214 57<341.834 563.437>
VStem: 124 48<280.872 393> 143 98<871.223 1118.12> 466 92<-306.084 -156.082> 688 46<858 985.672> 716 110<146.673 394.512>
LayerCount: 2
Fore
SplineSet
94 116 m 1xda
 124 401 l 1
 172 393 l 1
 200 174 l 1
 245 87 363 37 476 37 c 0
 600 37 716 113 716 262 c 0xea
 716 561 143 609 143 959 c 0
 143 1158 315 1271 475 1271 c 0
 583 1271 700 1236 767 1161 c 1
 734 851 l 1
 688 858 l 1xdc
 661 1101 l 1
 625 1167 531 1214 449 1214 c 0
 337 1214 241 1137 241 1006 c 0
 241 689 826 631 826 308 c 0
 826 141 706 9 508 -20 c 1
 469 -76 l 1
 506 -109 558 -161 558 -227 c 0
 558 -306 477 -354 359 -390 c 1
 348 -347 l 1
 406 -327 466 -276 466 -247 c 0
 466 -182 416 -154 380 -118 c 1
 445 -26 l 1
 438 -26 431 -26 424 -26 c 0
 280 -26 158 37 94 116 c 1xda
EndSplineSet
Validated: 8388609
EndChar

StartChar: Scommaaccent
Encoding: 536 536 85
Width: 860
VWidth: 0
Flags: W
HStem: -386 37<319.801 363.016> -147 66<361.914 415.946> -26 63<326.703 601.089> 1214 57<341.834 563.437>
VStem: 124 48<280.872 393> 143 98<871.223 1118.12> 436 76<-304.093 -166.559> 688 46<858 985.672> 716 110<147.731 394.512>
LayerCount: 2
Fore
SplineSet
94 116 m 1xf680
 124 401 l 1
 172 393 l 1
 200 174 l 1
 245 87 363 37 476 37 c 0
 600 37 716 113 716 262 c 0xfa80
 716 561 143 609 143 959 c 0
 143 1158 315 1271 475 1271 c 0
 583 1271 700 1236 767 1161 c 1
 734 851 l 1
 688 858 l 1xf7
 661 1101 l 1
 625 1167 531 1214 449 1214 c 0
 337 1214 241 1137 241 1006 c 0
 241 689 826 631 826 308 c 0
 826 119 672 -26 424 -26 c 0
 280 -26 158 37 94 116 c 1xf680
310 -349 m 1
 389 -330 436 -290 436 -237 c 0
 436 -172 388 -151 331 -147 c 1
 331 -117 362 -81 408 -81 c 0
 465 -81 512 -123 512 -202 c 0
 512 -265 467 -359 326 -386 c 1
 310 -349 l 1
EndSplineSet
Validated: 8388609
EndChar

StartChar: T
Encoding: 84 84 86
Width: 1121
VWidth: 0
Flags: W
HStem: 0 46<365 434.569 756.242 813> 1193 51<184 540 647 1018>
VStem: 97 52<922 1028.28> 540 107<73 1193> 1035 50<918 1047.99>
LayerCount: 2
Fore
SplineSet
87 1244 m 1
 1120 1244 l 1
 1085 912 l 1
 1035 918 l 1
 1018 1193 l 1
 647 1193 l 1
 647 73 l 1
 824 46 l 1
 813 0 l 1
 360 0 l 1
 365 42 l 1
 540 72 l 1
 540 1193 l 1
 184 1193 l 1
 149 914 l 1
 97 922 l 1
 87 1244 l 1
EndSplineSet
Validated: 1
EndChar

StartChar: Tbar
Encoding: 358 358 87
Width: 1121
VWidth: 0
Flags: W
HStem: 0 46<365 434.569 756.242 813> 591 61<263 540 647 931> 1193 51<184 540 647 1018>
VStem: 97 52<922 1028.28> 540 107<73 591 652 1193> 1035 50<918 1047.99>
LayerCount: 2
Fore
SplineSet
255 591 m 1
 263 652 l 1
 540 652 l 1
 540 1193 l 1
 184 1193 l 1
 149 914 l 1
 97 922 l 1
 87 1244 l 1
 1120 1244 l 1
 1085 912 l 1
 1035 918 l 1
 1018 1193 l 1
 647 1193 l 1
 647 652 l 1
 938 652 l 1
 931 591 l 1
 647 591 l 1
 647 73 l 1
 824 46 l 1
 813 0 l 1
 360 0 l 1
 365 42 l 1
 540 72 l 1
 540 591 l 1
 255 591 l 1
EndSplineSet
Validated: 1
EndChar

StartChar: Tcaron
Encoding: 356 356 88
Width: 1121
VWidth: 0
Flags: W
HStem: 0 46<365 434.569 756.242 813> 1193 51<184 540 647 1018>
VStem: 97 52<922 1028.28> 540 107<73 1193> 1035 50<918 1047.99>
DStem2: 459 1592 404 1543 0.705134 -0.709074<0 236.886> 634 1423 639 1377 0.687087 0.726575<0 218.138>
LayerCount: 2
Fore
SplineSet
87 1244 m 1
 1120 1244 l 1
 1085 912 l 1
 1035 918 l 1
 1018 1193 l 1
 647 1193 l 1
 647 73 l 1
 824 46 l 1
 813 0 l 1
 360 0 l 1
 365 42 l 1
 540 72 l 1
 540 1193 l 1
 184 1193 l 1
 149 914 l 1
 97 922 l 1
 87 1244 l 1
404 1543 m 1
 459 1592 l 1
 625 1423 l 1
 634 1423 l 1
 777 1588 l 1
 813 1561 l 1
 639 1377 l 1
 583 1363 l 1
 404 1543 l 1
EndSplineSet
Validated: 8388609
EndChar

StartChar: Tcedilla
Encoding: 354 354 89
Width: 1121
VWidth: 0
Flags: W
HStem: 0 42<365 448.627 797 813> 1193 51<184 540 647 1018>
VStem: 97 52<922 1028.28> 540 107<73 1193> 741 92<-306.084 -156.082> 1035 50<918 1047.99>
LayerCount: 2
Fore
SplineSet
87 1244 m 1
 1120 1244 l 1
 1085 912 l 1
 1035 918 l 1
 1018 1193 l 1
 647 1193 l 1
 647 73 l 1
 824 46 l 1
 813 0 l 1
 797 -0 l 1
 744 -76 l 1
 781 -109 833 -161 833 -227 c 0
 833 -306 752 -354 634 -390 c 1
 623 -347 l 1
 681 -327 741 -276 741 -247 c 0
 741 -182 691 -154 655 -118 c 1
 738 -0 l 1
 360 0 l 1
 365 42 l 1
 540 72 l 1
 540 1193 l 1
 184 1193 l 1
 149 914 l 1
 97 922 l 1
 87 1244 l 1
EndSplineSet
Validated: 8388609
EndChar

StartChar: Tcommaaccent
Encoding: 538 538 90
Width: 1121
VWidth: 0
Flags: W
HStem: -390 37<447.801 491.016> -151 66<489.914 543.946> 0 46<365 434.569 756.242 813> 1193 51<184 540 647 1018>
VStem: 97 52<922 1028.28> 540 107<73 1193> 564 76<-308.093 -170.559> 1035 50<918 1047.99>
LayerCount: 2
Fore
SplineSet
87 1244 m 1xfd
 1120 1244 l 1
 1085 912 l 1
 1035 918 l 1
 1018 1193 l 1
 647 1193 l 1
 647 73 l 1
 824 46 l 1
 813 0 l 1
 360 0 l 1
 365 42 l 1
 540 72 l 1
 540 1193 l 1
 184 1193 l 1
 149 914 l 1
 97 922 l 1
 87 1244 l 1xfd
438 -353 m 1
 517 -334 564 -294 564 -241 c 0
 564 -176 516 -155 459 -151 c 1
 459 -121 490 -85 536 -85 c 0
 593 -85 640 -127 640 -206 c 0xfb
 640 -269 595 -363 454 -390 c 1
 438 -353 l 1
EndSplineSet
Validated: 8388609
EndChar

StartChar: Thorn
Encoding: 222 222 91
Width: 692
VWidth: 0
Flags: W
HStem: 0 46<125 187.811 506.069 619> 248 48<482 661.303> 979 45<393 655.191> 1205 39<118 212.205 460.052 571>
VStem: 283 110<72 975.828 1021 1180> 894 124<486.957 804.373>
LayerCount: 2
Fore
SplineSet
113 1205 m 1
 118 1244 l 1
 576 1244 l 1
 571 1205 l 1
 393 1182 l 1
 393 1021 l 1
 435 1024 492 1024 534 1024 c 0
 802 1024 1018 915 1018 660 c 0
 1018 410 785 248 535 248 c 0
 518 248 499 247 482 250 c 1
 472 293 l 1
 526 296 l 1
 793 308 894 462 894 640 c 0
 894 812 766 979 503 979 c 0
 461 979 393 972 393 972 c 1
 393 66 l 1
 627 46 l 1
 619 0 l 1
 120 0 l 1
 125 42 l 1
 283 72 l 1
 286 1180 l 1
 113 1205 l 1
EndSplineSet
Validated: 1
EndChar

StartChar: U
Encoding: 85 85 92
Width: 1341
VWidth: 0
Flags: W
HStem: -27 69<579.397 925.633> 1205 39<104 203.793 448.662 554 936 1037.66 1249.53 1353>
VStem: 281 104<237.059 1180> 1117 67<254.146 1180>
LayerCount: 2
Fore
SplineSet
100 1205 m 1
 104 1244 l 1
 558 1244 l 1
 554 1205 l 1
 385 1182 l 1
 385 495 l 2
 385 150 537 42 757 42 c 0
 984 42 1117 182 1117 449 c 2
 1117 1180 l 1
 931 1205 l 1
 936 1244 l 1
 1361 1244 l 1
 1353 1205 l 1
 1187 1182 l 1
 1184 490 l 2
 1183 165 1059 -27 724 -27 c 0
 494 -27 281 75 281 462 c 2
 281 1180 l 1
 100 1205 l 1
EndSplineSet
Validated: 1
EndChar

StartChar: Uacute
Encoding: 218 218 93
Width: 1341
VWidth: 0
Flags: W
HStem: -27 69<579.397 925.633> 1205 39<104 203.793 448.662 554 936 1037.66 1249.53 1353>
VStem: 281 104<237.059 1180> 1117 67<254.146 1180>
LayerCount: 2
Fore
SplineSet
100 1205 m 1
 104 1244 l 1
 558 1244 l 1
 554 1205 l 1
 385 1182 l 1
 385 495 l 2
 385 150 537 42 757 42 c 0
 984 42 1117 182 1117 449 c 2
 1117 1180 l 1
 931 1205 l 1
 936 1244 l 1
 1361 1244 l 1
 1353 1205 l 1
 1187 1182 l 1
 1184 490 l 2
 1183 165 1059 -27 724 -27 c 0
 494 -27 281 75 281 462 c 2
 281 1180 l 1
 100 1205 l 1
678 1376 m 1
 810 1713 l 1
 906 1674 l 1
 723 1350 l 1
 678 1376 l 1
EndSplineSet
Validated: 1
EndChar

StartChar: Ucaron
Encoding: 467 467 94
Width: 1341
VWidth: 0
Flags: W
HStem: -27 69<579.397 925.633> 1205 39<104 203.793 448.662 554 936 1037.66 1249.53 1353>
VStem: 281 104<237.059 1180> 1117 67<254.146 1180>
DStem2: 579 1592 524 1543 0.705134 -0.709074<0 236.886> 754 1423 759 1377 0.687087 0.726575<0 218.138>
LayerCount: 2
Fore
SplineSet
100 1205 m 1
 104 1244 l 1
 558 1244 l 1
 554 1205 l 1
 385 1182 l 1
 385 495 l 2
 385 150 537 42 757 42 c 0
 984 42 1117 182 1117 449 c 2
 1117 1180 l 1
 931 1205 l 1
 936 1244 l 1
 1361 1244 l 1
 1353 1205 l 1
 1187 1182 l 1
 1184 490 l 2
 1183 165 1059 -27 724 -27 c 0
 494 -27 281 75 281 462 c 2
 281 1180 l 1
 100 1205 l 1
524 1543 m 1
 579 1592 l 1
 745 1423 l 1
 754 1423 l 1
 897 1588 l 1
 933 1561 l 1
 759 1377 l 1
 703 1363 l 1
 524 1543 l 1
EndSplineSet
Validated: 1
EndChar

StartChar: Ucircumflex
Encoding: 219 219 95
Width: 1341
VWidth: 0
Flags: W
HStem: -27 69<579.397 925.633> 1205 39<104 203.793 448.662 554 936 1037.66 1249.53 1353>
VStem: 281 104<237.059 1180> 1117 67<254.146 1180>
LayerCount: 2
Fore
SplineSet
100 1205 m 1
 104 1244 l 1
 558 1244 l 1
 554 1205 l 1
 385 1182 l 1
 385 495 l 2
 385 150 537 42 757 42 c 0
 984 42 1117 182 1117 449 c 2
 1117 1180 l 1
 931 1205 l 1
 936 1244 l 1
 1361 1244 l 1
 1353 1205 l 1
 1187 1182 l 1
 1184 490 l 2
 1183 165 1059 -27 724 -27 c 0
 494 -27 281 75 281 462 c 2
 281 1180 l 1
 100 1205 l 1
539 1394 m 1
 706 1575 l 1
 760 1588 l 1
 939 1402 l 1
 907 1365 l 1
 726 1500 l 1
 717 1500 l 1
 560 1364 l 1
 539 1394 l 1
EndSplineSet
Validated: 1
EndChar

StartChar: Udieresis
Encoding: 220 220 96
Width: 1341
VWidth: 0
Flags: W
HStem: -27 69<579.397 925.633> 1205 39<104 203.793 448.662 554 936 1037.66 1249.53 1353> 1373 159<542.518 647.932 811.344 916.141>
VStem: 281 104<237.059 1180> 539 113<1374.06 1530.7> 808 112<1374.06 1530.7> 1117 67<254.146 1180>
LayerCount: 2
Fore
SplineSet
100 1205 m 1
 104 1244 l 1
 558 1244 l 1
 554 1205 l 1
 385 1182 l 1
 385 495 l 2
 385 150 537 42 757 42 c 0
 984 42 1117 182 1117 449 c 2
 1117 1180 l 1
 931 1205 l 1
 936 1244 l 1
 1361 1244 l 1
 1353 1205 l 1
 1187 1182 l 1
 1184 490 l 2
 1183 165 1059 -27 724 -27 c 0
 494 -27 281 75 281 462 c 2
 281 1180 l 1
 100 1205 l 1
808 1454 m 0
 808 1504 823 1532 862 1532 c 0
 899 1532 920 1505 920 1454 c 0
 920 1401 905 1373 863 1373 c 0
 821 1373 808 1403 808 1454 c 0
539 1454 m 0
 539 1504 555 1532 594 1532 c 0
 631 1532 652 1505 652 1454 c 0
 652 1401 638 1373 596 1373 c 0
 554 1373 539 1403 539 1454 c 0
EndSplineSet
Validated: 1
EndChar

StartChar: Udieresisacute
Encoding: 471 471 97
Width: 1341
VWidth: 0
Flags: W
HStem: -27 69<579.397 925.633> 1205 39<104 203.793 448.662 554 936 1037.66 1249.53 1353> 1384 159<559.518 664.932 828.344 933.141>
VStem: 281 104<237.059 1180> 556 113<1385.06 1541.7> 825 112<1385.06 1541.7> 1117 67<254.146 1180>
LayerCount: 2
Fore
SplineSet
825 1465 m 0
 825 1515 840 1543 879 1543 c 0
 916 1543 937 1516 937 1465 c 0
 937 1412 922 1384 880 1384 c 0
 838 1384 825 1414 825 1465 c 0
556 1465 m 0
 556 1515 572 1543 611 1543 c 0
 648 1543 669 1516 669 1465 c 0
 669 1412 655 1384 613 1384 c 0
 571 1384 556 1414 556 1465 c 0
100 1205 m 1
 104 1244 l 1
 558 1244 l 1
 554 1205 l 1
 385 1182 l 1
 385 495 l 2
 385 150 537 42 757 42 c 0
 984 42 1117 182 1117 449 c 2
 1117 1180 l 1
 931 1205 l 1
 936 1244 l 1
 1361 1244 l 1
 1353 1205 l 1
 1187 1182 l 1
 1184 490 l 2
 1183 165 1059 -27 724 -27 c 0
 494 -27 281 75 281 462 c 2
 281 1180 l 1
 100 1205 l 1
707 1551 m 1
 839 1888 l 1
 935 1849 l 1
 752 1525 l 1
 707 1551 l 1
EndSplineSet
Validated: 8388609
EndChar

StartChar: Udieresiscaron
Encoding: 473 473 98
Width: 1341
VWidth: 0
Flags: W
HStem: -27 69<579.397 925.633> 1205 39<104 203.793 448.662 554 936 1037.66 1249.53 1353> 1358 159<559.518 664.932 828.344 933.141>
VStem: 281 104<237.059 1180> 556 113<1359.06 1515.7> 825 112<1359.06 1515.7> 1117 67<254.146 1180>
DStem2: 597 1792 542 1743 0.705134 -0.709074<0 236.886> 772 1623 777 1577 0.687087 0.726575<0 218.138>
LayerCount: 2
Fore
SplineSet
825 1439 m 0
 825 1489 840 1517 879 1517 c 0
 916 1517 937 1490 937 1439 c 0
 937 1386 922 1358 880 1358 c 0
 838 1358 825 1388 825 1439 c 0
556 1439 m 0
 556 1489 572 1517 611 1517 c 0
 648 1517 669 1490 669 1439 c 0
 669 1386 655 1358 613 1358 c 0
 571 1358 556 1388 556 1439 c 0
100 1205 m 1
 104 1244 l 1
 558 1244 l 1
 554 1205 l 1
 385 1182 l 1
 385 495 l 2
 385 150 537 42 757 42 c 0
 984 42 1117 182 1117 449 c 2
 1117 1180 l 1
 931 1205 l 1
 936 1244 l 1
 1361 1244 l 1
 1353 1205 l 1
 1187 1182 l 1
 1184 490 l 2
 1183 165 1059 -27 724 -27 c 0
 494 -27 281 75 281 462 c 2
 281 1180 l 1
 100 1205 l 1
542 1743 m 1
 597 1792 l 1
 763 1623 l 1
 772 1623 l 1
 915 1788 l 1
 951 1761 l 1
 777 1577 l 1
 721 1563 l 1
 542 1743 l 1
EndSplineSet
Validated: 8388609
EndChar

StartChar: Udieresisgrave
Encoding: 475 475 99
Width: 1341
VWidth: 0
Flags: W
HStem: -27 69<579.397 925.633> 1205 39<104 203.793 448.662 554 936 1037.66 1249.53 1353> 1358 159<559.518 664.932 828.344 933.141>
VStem: 281 104<237.059 1180> 556 113<1359.06 1515.7> 825 112<1359.06 1515.7> 1117 67<254.146 1180>
LayerCount: 2
Fore
SplineSet
825 1439 m 0
 825 1489 840 1517 879 1517 c 0
 916 1517 937 1490 937 1439 c 0
 937 1386 922 1358 880 1358 c 0
 838 1358 825 1388 825 1439 c 0
556 1439 m 0
 556 1489 572 1517 611 1517 c 0
 648 1517 669 1490 669 1439 c 0
 669 1386 655 1358 613 1358 c 0
 571 1358 556 1388 556 1439 c 0
100 1205 m 1
 104 1244 l 1
 558 1244 l 1
 554 1205 l 1
 385 1182 l 1
 385 495 l 2
 385 150 537 42 757 42 c 0
 984 42 1117 182 1117 449 c 2
 1117 1180 l 1
 931 1205 l 1
 936 1244 l 1
 1361 1244 l 1
 1353 1205 l 1
 1187 1182 l 1
 1184 490 l 2
 1183 165 1059 -27 724 -27 c 0
 494 -27 281 75 281 462 c 2
 281 1180 l 1
 100 1205 l 1
551 1842 m 1
 645 1879 l 1
 778 1543 l 1
 732 1516 l 1
 551 1842 l 1
EndSplineSet
Validated: 8388609
EndChar

StartChar: Udieresismacron
Encoding: 469 469 100
Width: 1341
VWidth: 0
Flags: W
HStem: -27 69<579.397 925.633> 1205 39<104 203.793 448.662 554 936 1037.66 1249.53 1353> 1384 159<559.518 664.932 828.344 933.141> 1594 52<529 961>
VStem: 281 104<237.059 1180> 556 113<1385.06 1541.7> 825 112<1385.06 1541.7> 1117 67<254.146 1180>
LayerCount: 2
Fore
SplineSet
825 1465 m 0
 825 1515 840 1543 879 1543 c 0
 916 1543 937 1516 937 1465 c 0
 937 1412 922 1384 880 1384 c 0
 838 1384 825 1414 825 1465 c 0
556 1465 m 0
 556 1515 572 1543 611 1543 c 0
 648 1543 669 1516 669 1465 c 0
 669 1412 655 1384 613 1384 c 0
 571 1384 556 1414 556 1465 c 0
100 1205 m 1
 104 1244 l 1
 558 1244 l 1
 554 1205 l 1
 385 1182 l 1
 385 495 l 2
 385 150 537 42 757 42 c 0
 984 42 1117 182 1117 449 c 2
 1117 1180 l 1
 931 1205 l 1
 936 1244 l 1
 1361 1244 l 1
 1353 1205 l 1
 1187 1182 l 1
 1184 490 l 2
 1183 165 1059 -27 724 -27 c 0
 494 -27 281 75 281 462 c 2
 281 1180 l 1
 100 1205 l 1
520 1594 m 1
 529 1646 l 1
 969 1646 l 1
 961 1594 l 1
 520 1594 l 1
EndSplineSet
Validated: 8388609
EndChar

StartChar: Ugrave
Encoding: 217 217 101
Width: 1341
VWidth: 0
Flags: W
HStem: -27 69<579.397 925.633> 1205 39<104 203.793 448.662 554 936 1037.66 1249.53 1353>
VStem: 281 104<237.059 1180> 1117 67<254.146 1180>
LayerCount: 2
Fore
SplineSet
100 1205 m 1
 104 1244 l 1
 558 1244 l 1
 554 1205 l 1
 385 1182 l 1
 385 495 l 2
 385 150 537 42 757 42 c 0
 984 42 1117 182 1117 449 c 2
 1117 1180 l 1
 931 1205 l 1
 936 1244 l 1
 1361 1244 l 1
 1353 1205 l 1
 1187 1182 l 1
 1184 490 l 2
 1183 165 1059 -27 724 -27 c 0
 494 -27 281 75 281 462 c 2
 281 1180 l 1
 100 1205 l 1
546 1667 m 1
 640 1704 l 1
 773 1368 l 1
 727 1341 l 1
 546 1667 l 1
EndSplineSet
Validated: 1
EndChar

StartChar: Uhungarumlaut
Encoding: 368 368 102
Width: 1341
VWidth: 0
Flags: W
HStem: -27 69<579.397 925.633> 1205 39<104 203.793 448.662 554 936 1037.66 1249.53 1353>
VStem: 281 104<237.059 1180> 1117 67<254.146 1180>
LayerCount: 2
Fore
SplineSet
100 1205 m 1
 104 1244 l 1
 558 1244 l 1
 554 1205 l 1
 385 1182 l 1
 385 495 l 2
 385 150 537 42 757 42 c 0
 984 42 1117 182 1117 449 c 2
 1117 1180 l 1
 931 1205 l 1
 936 1244 l 1
 1361 1244 l 1
 1353 1205 l 1
 1187 1182 l 1
 1184 490 l 2
 1183 165 1059 -27 724 -27 c 0
 494 -27 281 75 281 462 c 2
 281 1180 l 1
 100 1205 l 1
753 1398 m 1
 1010 1597 l 1
 1066 1533 l 1
 774 1365 l 1
 753 1398 l 1
544 1398 m 1
 804 1607 l 1
 864 1537 l 1
 565 1365 l 1
 544 1398 l 1
EndSplineSet
Validated: 1
EndChar

StartChar: Umacron
Encoding: 362 362 103
Width: 1341
VWidth: 0
Flags: W
HStem: -27 69<579.397 925.633> 1205 39<104 203.793 448.662 554 936 1037.66 1249.53 1353> 1380 52<529 961>
VStem: 281 104<237.059 1180> 1117 67<254.146 1180>
LayerCount: 2
Fore
SplineSet
520 1380 m 1
 529 1432 l 1
 969 1432 l 1
 961 1380 l 1
 520 1380 l 1
100 1205 m 1
 104 1244 l 1
 558 1244 l 1
 554 1205 l 1
 385 1182 l 1
 385 495 l 2
 385 150 537 42 757 42 c 0
 984 42 1117 182 1117 449 c 2
 1117 1180 l 1
 931 1205 l 1
 936 1244 l 1
 1361 1244 l 1
 1353 1205 l 1
 1187 1182 l 1
 1184 490 l 2
 1183 165 1059 -27 724 -27 c 0
 494 -27 281 75 281 462 c 2
 281 1180 l 1
 100 1205 l 1
EndSplineSet
Validated: 1
EndChar

StartChar: Uogonek
Encoding: 370 370 104
Width: 1341
VWidth: 0
Flags: W
HStem: -387 34<932.495 937.914> -27 69<579.397 872.974> 1205 39<104 203.793 448.662 554 936 1037.66 1249.53 1353>
VStem: 281 104<237.059 1180> 718 98<-278.248 -90.1686> 1117 67<254.146 1180>
LayerCount: 2
Fore
SplineSet
100 1205 m 1
 104 1244 l 1
 558 1244 l 1
 554 1205 l 1
 385 1182 l 1
 385 495 l 2
 385 150 537 42 757 42 c 0
 984 42 1117 182 1117 449 c 2
 1117 1180 l 1
 931 1205 l 1
 936 1244 l 1
 1361 1244 l 1
 1353 1205 l 1
 1187 1182 l 1
 1184 490 l 2
 1183 224 1100 48 887 -8 c 1
 830 -80 816 -123 816 -166 c 0
 816 -248 866 -300 957 -353 c 1
 924 -387 l 1
 780 -372 718 -294 718 -209 c 0
 718 -160 736 -107 822 -21 c 1
 792 -25 759 -27 724 -27 c 0
 494 -27 281 75 281 462 c 2
 281 1180 l 1
 100 1205 l 1
EndSplineSet
Validated: 8388609
EndChar

StartChar: Uring
Encoding: 366 366 105
Width: 1341
VWidth: 0
Flags: W
HStem: -27 69<579.397 925.633> 1205 39<104 203.793 448.662 554 936 1037.66 1249.53 1353> 1337 41<687.54 799.588> 1634 40<679.402 787.052>
VStem: 281 104<237.059 1180> 577 65<1412.49 1601.78> 837 66<1409.36 1597.68> 1117 67<254.146 1180>
LayerCount: 2
Fore
SplineSet
642 1514 m 0
 642 1450 674 1378 743 1378 c 0
 802 1378 837 1421 837 1497 c 0
 837 1563 799 1634 733 1634 c 0
 669 1634 642 1574 642 1514 c 0
577 1503 m 0
 577 1595 651 1674 745 1674 c 0
 842 1674 903 1606 903 1512 c 0
 903 1421 835 1337 733 1337 c 0
 641 1337 577 1401 577 1503 c 0
100 1205 m 1
 104 1244 l 1
 558 1244 l 1
 554 1205 l 1
 385 1182 l 1
 385 495 l 2
 385 150 537 42 757 42 c 0
 984 42 1117 182 1117 449 c 2
 1117 1180 l 1
 931 1205 l 1
 936 1244 l 1
 1361 1244 l 1
 1353 1205 l 1
 1187 1182 l 1
 1184 490 l 2
 1183 165 1059 -27 724 -27 c 0
 494 -27 281 75 281 462 c 2
 281 1180 l 1
 100 1205 l 1
EndSplineSet
Validated: 1
EndChar

StartChar: V
Encoding: 86 86 106
Width: 1282
VWidth: 0
Flags: W
HStem: 1208 36<102 168.246 429.367 522 894 979.883 1208.87 1280>
DStem2: 354 1182 245 1178 0.325168 -0.945656<0 1078.97> 700 160 710 -11 0.346725 0.937967<0 1085.57>
LayerCount: 2
Fore
SplineSet
98 1208 m 1
 102 1244 l 1
 526 1244 l 1
 522 1208 l 1
 354 1182 l 1
 700 160 l 1
 1077 1178 l 1
 891 1208 l 1
 894 1244 l 1
 1284 1244 l 1
 1280 1208 l 1
 1151 1182 l 1
 710 -11 l 1
 659 -26 l 1
 245 1178 l 1
 98 1208 l 1
EndSplineSet
Validated: 1
EndChar

StartChar: W
Encoding: 87 87 107
Width: 1957
VWidth: 0
Flags: W
HStem: 1207 37<105 137.276 433.382 495 1386 1435.56 1728.01 1766>
DStem2: 330 1182 220 1178 0.268263 -0.963346<0 1043.92> 616 178 626 -13 0.280288 0.959916<0 864.94> 961 1208 921 990 0.264939 -0.964265<199.612 1068.17> 1244 178 1254 -13 0.314075 0.949398<0 1048.31>
LayerCount: 2
Fore
SplineSet
98 1207 m 1
 105 1244 l 1
 498 1244 l 1
 495 1212 l 1
 330 1182 l 1
 616 178 l 1
 915 1202 l 1
 961 1208 l 1
 1244 178 l 1
 1568 1175 l 1
 1381 1210 l 1
 1386 1244 l 1
 1769 1244 l 1
 1766 1208 l 1
 1648 1178 l 1
 1254 -13 l 1
 1189 -26 l 1
 921 990 l 1
 626 -13 l 1
 555 -25 l 1
 220 1178 l 1
 98 1207 l 1
EndSplineSet
Validated: 1
EndChar

StartChar: Wacute
Encoding: 7810 7810 108
Width: 1957
VWidth: 0
Flags: W
HStem: 1207 37<105 137.276 433.382 495 1386 1435.56 1728.01 1766>
DStem2: 330 1182 220 1178 0.268263 -0.963346<0 1043.92> 616 178 626 -13 0.280288 0.959916<0 864.94> 961 1208 921 990 0.264939 -0.964265<199.612 1068.17> 1244 178 1254 -13 0.314075 0.949398<0 1048.31>
LayerCount: 2
Fore
SplineSet
98 1207 m 1
 105 1244 l 1
 498 1244 l 1
 495 1212 l 1
 330 1182 l 1
 616 178 l 1
 915 1202 l 1
 961 1208 l 1
 1244 178 l 1
 1568 1175 l 1
 1381 1210 l 1
 1386 1244 l 1
 1769 1244 l 1
 1766 1208 l 1
 1648 1178 l 1
 1254 -13 l 1
 1189 -26 l 1
 921 990 l 1
 626 -13 l 1
 555 -25 l 1
 220 1178 l 1
 98 1207 l 1
910 1376 m 1
 1042 1713 l 1
 1138 1674 l 1
 955 1350 l 1
 910 1376 l 1
EndSplineSet
Validated: 1
EndChar

StartChar: Wcircumflex
Encoding: 372 372 109
Width: 1957
VWidth: 0
Flags: W
HStem: 1207 37<105 137.276 433.382 495 1386 1435.56 1728.01 1766>
DStem2: 330 1182 220 1178 0.268263 -0.963346<0 1043.92> 616 178 626 -13 0.280288 0.959916<0 864.94> 961 1208 921 990 0.264939 -0.964265<199.612 1068.17> 1244 178 1254 -13 0.314075 0.949398<0 1048.31>
LayerCount: 2
Fore
SplineSet
740 1331 m 1
 907 1512 l 1
 961 1525 l 1
 1140 1339 l 1
 1108 1302 l 1
 927 1437 l 1
 918 1437 l 1
 761 1301 l 1
 740 1331 l 1
98 1207 m 1
 105 1244 l 1
 498 1244 l 1
 495 1212 l 1
 330 1182 l 1
 616 178 l 1
 915 1202 l 1
 961 1208 l 1
 1244 178 l 1
 1568 1175 l 1
 1381 1210 l 1
 1386 1244 l 1
 1769 1244 l 1
 1766 1208 l 1
 1648 1178 l 1
 1254 -13 l 1
 1189 -26 l 1
 921 990 l 1
 626 -13 l 1
 555 -25 l 1
 220 1178 l 1
 98 1207 l 1
EndSplineSet
Validated: 1
EndChar

StartChar: Wdieresis
Encoding: 7812 7812 110
Width: 1957
VWidth: 0
Flags: W
HStem: 1207 37<105 137.276 433.382 495 1386 1435.56 1728.01 1766> 1373 159<766.518 871.932 1035.34 1140.14>
VStem: 763 113<1374.06 1530.7> 1032 112<1374.06 1530.7>
DStem2: 330 1182 220 1178 0.268263 -0.963346<0 1043.92> 616 178 626 -13 0.280288 0.959916<0 864.94> 961 1208 921 990 0.264939 -0.964265<199.612 1068.17> 1244 178 1254 -13 0.314075 0.949398<0 1048.31>
LayerCount: 2
Fore
SplineSet
98 1207 m 1
 105 1244 l 1
 498 1244 l 1
 495 1212 l 1
 330 1182 l 1
 616 178 l 1
 915 1202 l 1
 961 1208 l 1
 1244 178 l 1
 1568 1175 l 1
 1381 1210 l 1
 1386 1244 l 1
 1769 1244 l 1
 1766 1208 l 1
 1648 1178 l 1
 1254 -13 l 1
 1189 -26 l 1
 921 990 l 1
 626 -13 l 1
 555 -25 l 1
 220 1178 l 1
 98 1207 l 1
1032 1454 m 0
 1032 1504 1047 1532 1086 1532 c 0
 1123 1532 1144 1505 1144 1454 c 0
 1144 1401 1129 1373 1087 1373 c 0
 1045 1373 1032 1403 1032 1454 c 0
763 1454 m 0
 763 1504 779 1532 818 1532 c 0
 855 1532 876 1505 876 1454 c 0
 876 1401 862 1373 820 1373 c 0
 778 1373 763 1403 763 1454 c 0
EndSplineSet
Validated: 1
EndChar

StartChar: Wgrave
Encoding: 7808 7808 111
Width: 1957
VWidth: 0
Flags: W
HStem: 1207 37<105 137.276 433.382 495 1386 1435.56 1728.01 1766>
DStem2: 330 1182 220 1178 0.268263 -0.963346<0 1043.92> 616 178 626 -13 0.280288 0.959916<0 864.94> 961 1208 921 990 0.264939 -0.964265<199.612 1068.17> 1244 178 1254 -13 0.314075 0.949398<0 1048.31>
LayerCount: 2
Fore
SplineSet
98 1207 m 1
 105 1244 l 1
 498 1244 l 1
 495 1212 l 1
 330 1182 l 1
 616 178 l 1
 915 1202 l 1
 961 1208 l 1
 1244 178 l 1
 1568 1175 l 1
 1381 1210 l 1
 1386 1244 l 1
 1769 1244 l 1
 1766 1208 l 1
 1648 1178 l 1
 1254 -13 l 1
 1189 -26 l 1
 921 990 l 1
 626 -13 l 1
 555 -25 l 1
 220 1178 l 1
 98 1207 l 1
746 1667 m 1
 840 1704 l 1
 973 1368 l 1
 927 1341 l 1
 746 1667 l 1
EndSplineSet
Validated: 1
EndChar

StartChar: X
Encoding: 88 88 112
Width: 1196
VWidth: 0
Flags: W
HStem: 0 36<3 26.6309 334.315 363 772 808.24 1157 1193> 1212 32<22 87.632 362.453 437 803 886.064 1098.75 1171>
DStem2: 127 64 206 60 0.597149 0.80213<43.9663 677.786 802.776 1401.78> 281 1182 154 1184 0.569399 -0.822061<0 582.808 673.099 1294.74>
LayerCount: 2
Fore
SplineSet
-3 0 m 1
 3 36 l 1
 127 64 l 1
 543 625 l 1
 154 1184 l 1
 18 1212 l 1
 22 1244 l 1
 442 1244 l 1
 437 1212 l 1
 281 1182 l 1
 613 703 l 1
 970 1184 l 1
 798 1207 l 1
 803 1244 l 1
 1171 1244 l 1
 1171 1208 l 1
 1045 1187 l 1
 649 651 l 1
 1063 53 l 1
 1200 36 l 1
 1193 0 l 1
 768 0 l 1
 772 27 l 1
 935 60 l 1
 581 571 l 1
 206 60 l 1
 371 42 l 1
 363 0 l 1
 -3 0 l 1
EndSplineSet
Validated: 1
EndChar

StartChar: Y
Encoding: 89 89 113
Width: 1103
VWidth: 0
Flags: W
HStem: 0 46<323 392.569 695.914 777> 1207 36<8 65.7901 335.855 421 695 778.074 1013.19 1082>
VStem: 498 106<72 489>
DStem2: 255 1181 143 1177 0.458544 -0.888672<0 685.614> 568 571 604 489 0.449789 0.893135<0 681.567>
LayerCount: 2
Fore
SplineSet
4 1207 m 1
 8 1243 l 1
 425 1243 l 1
 421 1207 l 1
 255 1181 l 1
 568 571 l 1
 878 1178 l 1
 693 1208 l 1
 695 1244 l 1
 1085 1244 l 1
 1082 1208 l 1
 953 1182 l 1
 604 489 l 1
 604 67 l 1
 785 46 l 1
 777 0 l 1
 317 0 l 1
 323 42 l 1
 498 72 l 1
 498 489 l 1
 143 1177 l 1
 4 1207 l 1
EndSplineSet
Validated: 1
EndChar

StartChar: Yacute
Encoding: 221 221 114
Width: 1103
VWidth: 0
Flags: W
HStem: 0 46<323 392.569 695.914 777> 1207 36<8 65.7901 335.855 421 695 778.074 1013.19 1082>
VStem: 498 106<72 489>
DStem2: 255 1181 143 1177 0.458544 -0.888672<0 685.614> 568 571 604 489 0.449789 0.893135<0 681.567>
LayerCount: 2
Fore
SplineSet
4 1207 m 1
 8 1243 l 1
 425 1243 l 1
 421 1207 l 1
 255 1181 l 1
 568 571 l 1
 878 1178 l 1
 693 1208 l 1
 695 1244 l 1
 1085 1244 l 1
 1082 1208 l 1
 953 1182 l 1
 604 489 l 1
 604 67 l 1
 785 46 l 1
 777 0 l 1
 317 0 l 1
 323 42 l 1
 498 72 l 1
 498 489 l 1
 143 1177 l 1
 4 1207 l 1
505 1376 m 1
 637 1713 l 1
 733 1674 l 1
 550 1350 l 1
 505 1376 l 1
EndSplineSet
Validated: 8388609
EndChar

StartChar: Ycircumflex
Encoding: 374 374 115
Width: 1103
VWidth: 0
Flags: W
HStem: 0 46<323 392.569 695.914 777> 1207 36<8 65.7901 335.855 421 695 778.074 1013.19 1082>
VStem: 498 106<72 489>
DStem2: 255 1181 143 1177 0.458544 -0.888672<0 685.614> 568 571 604 489 0.449789 0.893135<0 681.567>
LayerCount: 2
Fore
SplineSet
351 1388 m 1
 518 1569 l 1
 572 1582 l 1
 751 1396 l 1
 719 1359 l 1
 538 1494 l 1
 529 1494 l 1
 372 1358 l 1
 351 1388 l 1
4 1207 m 1
 8 1243 l 1
 425 1243 l 1
 421 1207 l 1
 255 1181 l 1
 568 571 l 1
 878 1178 l 1
 693 1208 l 1
 695 1244 l 1
 1085 1244 l 1
 1082 1208 l 1
 953 1182 l 1
 604 489 l 1
 604 67 l 1
 785 46 l 1
 777 0 l 1
 317 0 l 1
 323 42 l 1
 498 72 l 1
 498 489 l 1
 143 1177 l 1
 4 1207 l 1
EndSplineSet
Validated: 8388609
EndChar

StartChar: Ydieresis
Encoding: 376 376 116
Width: 1103
VWidth: 0
Flags: W
HStem: 0 46<323 392.569 695.914 777> 1207 36<8 65.7901 335.855 421 695 778.074 1013.19 1082> 1384 159<366.518 471.932 635.344 740.141>
VStem: 363 113<1385.06 1541.7> 498 106<72 489> 632 112<1385.06 1541.7>
DStem2: 255 1181 143 1177 0.458544 -0.888672<0 685.614> 568 571 604 489 0.449789 0.893135<0 681.567>
LayerCount: 2
Fore
SplineSet
632 1465 m 0
 632 1515 647 1543 686 1543 c 0
 723 1543 744 1516 744 1465 c 0
 744 1412 729 1384 687 1384 c 0
 645 1384 632 1414 632 1465 c 0
363 1465 m 0
 363 1515 379 1543 418 1543 c 0
 455 1543 476 1516 476 1465 c 0
 476 1412 462 1384 420 1384 c 0
 378 1384 363 1414 363 1465 c 0
4 1207 m 1
 8 1243 l 1
 425 1243 l 1
 421 1207 l 1
 255 1181 l 1
 568 571 l 1
 878 1178 l 1
 693 1208 l 1
 695 1244 l 1
 1085 1244 l 1
 1082 1208 l 1
 953 1182 l 1
 604 489 l 1
 604 67 l 1
 785 46 l 1
 777 0 l 1
 317 0 l 1
 323 42 l 1
 498 72 l 1
 498 489 l 1
 143 1177 l 1
 4 1207 l 1
EndSplineSet
Validated: 1
EndChar

StartChar: Ygrave
Encoding: 7922 7922 117
Width: 1103
VWidth: 0
Flags: W
HStem: 0 46<323 392.569 695.914 777> 1207 36<8 65.7901 335.855 421 695 778.074 1013.19 1082>
VStem: 498 106<72 489>
DStem2: 255 1181 143 1177 0.458544 -0.888672<0 685.614> 568 571 604 489 0.449789 0.893135<0 681.567>
LayerCount: 2
Fore
SplineSet
4 1207 m 1
 8 1243 l 1
 425 1243 l 1
 421 1207 l 1
 255 1181 l 1
 568 571 l 1
 878 1178 l 1
 693 1208 l 1
 695 1244 l 1
 1085 1244 l 1
 1082 1208 l 1
 953 1182 l 1
 604 489 l 1
 604 67 l 1
 785 46 l 1
 777 0 l 1
 317 0 l 1
 323 42 l 1
 498 72 l 1
 498 489 l 1
 143 1177 l 1
 4 1207 l 1
382 1667 m 1
 476 1704 l 1
 609 1368 l 1
 563 1341 l 1
 382 1667 l 1
EndSplineSet
Validated: 8388609
EndChar

StartChar: Z
Encoding: 90 90 118
Width: 1005
VWidth: 0
Flags: W
HStem: 0 58<176 843> 1189 55<209 845>
VStem: 91 40<914 955.565>
DStem2: 43 37 176 58 0.571357 0.820702<93.2252 1403.68>
LayerCount: 2
Fore
SplineSet
43 37 m 1
 845 1189 l 1
 209 1189 l 1
 131 903 l 1
 91 914 l 1
 100 1244 l 1
 976 1244 l 1
 981 1207 l 1
 176 58 l 1
 843 58 l 1
 949 342 l 1
 993 335 l 1
 953 0 l 1
 48 0 l 1
 43 37 l 1
EndSplineSet
Validated: 1
EndChar

StartChar: Zacute
Encoding: 377 377 119
Width: 1005
VWidth: 0
Flags: W
HStem: 0 58<176 843> 1189 55<209 845>
VStem: 91 40<914 955.565>
DStem2: 43 37 176 58 0.571357 0.820702<93.2252 1403.68>
LayerCount: 2
Fore
SplineSet
43 37 m 1
 845 1189 l 1
 209 1189 l 1
 131 903 l 1
 91 914 l 1
 100 1244 l 1
 976 1244 l 1
 981 1207 l 1
 176 58 l 1
 843 58 l 1
 949 342 l 1
 993 335 l 1
 953 0 l 1
 48 0 l 1
 43 37 l 1
472 1376 m 1
 604 1713 l 1
 700 1674 l 1
 517 1350 l 1
 472 1376 l 1
EndSplineSet
Validated: 1
EndChar

StartChar: Zcaron
Encoding: 381 381 120
Width: 1005
VWidth: 0
Flags: W
HStem: 0 58<176 843> 1189 55<209 845>
VStem: 91 40<914 955.565>
DStem2: 43 37 176 58 0.571357 0.820702<93.2252 1403.68> 373 1592 318 1543 0.705134 -0.709074<0 236.886> 548 1423 553 1377 0.687087 0.726575<0 218.138>
LayerCount: 2
Fore
SplineSet
43 37 m 1
 845 1189 l 1
 209 1189 l 1
 131 903 l 1
 91 914 l 1
 100 1244 l 1
 976 1244 l 1
 981 1207 l 1
 176 58 l 1
 843 58 l 1
 949 342 l 1
 993 335 l 1
 953 0 l 1
 48 0 l 1
 43 37 l 1
318 1543 m 1
 373 1592 l 1
 539 1423 l 1
 548 1423 l 1
 691 1588 l 1
 727 1561 l 1
 553 1377 l 1
 497 1363 l 1
 318 1543 l 1
EndSplineSet
Validated: 1
EndChar

StartChar: Zdotaccent
Encoding: 379 379 121
Width: 1005
VWidth: 0
Flags: W
HStem: 0 58<176 843> 1189 55<209 845> 1382 200<482.212 593.788>
VStem: 91 40<914 955.565> 475 126<1384.8 1579.53>
DStem2: 43 37 176 58 0.571357 0.820702<93.2252 1403.68>
LayerCount: 2
Fore
SplineSet
43 37 m 1
 845 1189 l 1
 209 1189 l 1
 131 903 l 1
 91 914 l 1
 100 1244 l 1
 976 1244 l 1
 981 1207 l 1
 176 58 l 1
 843 58 l 1
 949 342 l 1
 993 335 l 1
 953 0 l 1
 48 0 l 1
 43 37 l 1
475 1485 m 0
 475 1548 495 1582 538 1582 c 0
 581 1582 601 1549 601 1485 c 0
 601 1419 584 1382 538 1382 c 0
 492 1382 475 1421 475 1485 c 0
EndSplineSet
Validated: 1
EndChar

StartChar: a
Encoding: 97 97 122
Width: 864
VWidth: 0
Flags: W
HStem: -26 69<288.545 485.365 779 839.049> 432 45<485.785 601> 826 51<339.43 512.31>
VStem: 138 100<82.3071 309.481> 172 82<636.349 759.163> 601 90<68.5534 432 473.321 758.702>
LayerCount: 2
Fore
SplineSet
238 199 m 0xf4
 238 117 290 43 378 43 c 0
 474 43 555 106 601 185 c 1
 601 432 l 1
 401 403 238 358 238 199 c 0xf4
138 169 m 0
 138 331 269 440 601 477 c 1
 601 516 l 2
 601 725 564 826 410 826 c 0
 299 826 269 730 254 609 c 1
 211 609 172 631 172 676 c 0xec
 172 779 327 877 463 877 c 0
 617 877 691 780 691 569 c 2
 691 229 l 2
 691 137 692 65 779 50 c 1
 845 37 l 1
 840 3 l 1
 820 -6 781 -18 739 -18 c 0
 657 -18 614 45 614 117 c 2
 614 130 l 1
 609 130 l 1
 587 69 485 -26 346 -26 c 0
 240 -26 138 46 138 169 c 0
EndSplineSet
Validated: 8388609
EndChar

StartChar: aacute
Encoding: 225 225 123
Width: 864
VWidth: 0
Flags: W
HStem: -26 69<288.545 485.365 779 839.049> 432 45<485.785 601> 826 51<339.43 512.31>
VStem: 138 100<82.3071 309.481> 172 82<636.349 759.163> 601 90<68.5534 432 473.321 758.702>
LayerCount: 2
Fore
SplineSet
238 199 m 0xf4
 238 117 290 43 378 43 c 0
 474 43 555 106 601 185 c 1
 601 432 l 1
 401 403 238 358 238 199 c 0xf4
138 169 m 0
 138 331 269 440 601 477 c 1
 601 516 l 2
 601 725 564 826 410 826 c 0
 299 826 269 730 254 609 c 1
 211 609 172 631 172 676 c 0xec
 172 779 327 877 463 877 c 0
 617 877 691 780 691 569 c 2
 691 229 l 2
 691 137 692 65 779 50 c 1
 845 37 l 1
 840 3 l 1
 820 -6 781 -18 739 -18 c 0
 657 -18 614 45 614 117 c 2
 614 130 l 1
 609 130 l 1
 587 69 485 -26 346 -26 c 0
 240 -26 138 46 138 169 c 0
396 1007 m 1
 528 1344 l 1
 624 1305 l 1
 441 981 l 1
 396 1007 l 1
EndSplineSet
Validated: 8388609
EndChar

StartChar: abreve
Encoding: 259 259 124
Width: 864
VWidth: 0
Flags: W
HStem: -26 69<288.545 485.365 779 839.049> 432 45<485.785 601> 826 51<339.43 512.31> 1012 75<345.933 533.36>
VStem: 138 100<82.3071 309.481> 172 82<636.349 759.163> 248 30<1187.77 1201.47> 601 90<68.5534 432 473.321 758.702>
LayerCount: 2
Fore
SplineSet
238 199 m 0xf9
 238 117 290 43 378 43 c 0
 474 43 555 106 601 185 c 1
 601 432 l 1
 401 403 238 358 238 199 c 0xf9
138 169 m 0
 138 331 269 440 601 477 c 1
 601 516 l 2
 601 725 564 826 410 826 c 0
 299 826 269 730 254 609 c 1
 211 609 172 631 172 676 c 0xf5
 172 779 327 877 463 877 c 0
 617 877 691 780 691 569 c 2
 691 229 l 2
 691 137 692 65 779 50 c 1
 845 37 l 1
 840 3 l 1
 820 -6 781 -18 739 -18 c 0
 657 -18 614 45 614 117 c 2
 614 130 l 1
 609 130 l 1
 587 69 485 -26 346 -26 c 0
 240 -26 138 46 138 169 c 0
248 1190 m 1xf3
 278 1214 l 1
 302 1168 354 1087 438 1087 c 0
 525 1087 580 1166 607 1216 c 1
 630 1195 l 1
 601 1107 548 1012 438 1012 c 0
 320 1012 270 1103 248 1190 c 1xf3
EndSplineSet
Validated: 8388609
EndChar

StartChar: acaron
Encoding: 462 462 125
Width: 864
VWidth: 0
Flags: W
HStem: -26 69<288.545 485.365 779 839.049> 432 45<485.785 601> 826 51<339.43 512.31>
VStem: 138 100<82.3071 309.481> 172 82<636.349 759.163> 601 90<68.5534 432 473.321 758.702>
DStem2: 295 1223 240 1174 0.705134 -0.709074<0 236.886> 470 1054 475 1008 0.687087 0.726575<0 218.138>
LayerCount: 2
Fore
SplineSet
238 199 m 0xf4
 238 117 290 43 378 43 c 0
 474 43 555 106 601 185 c 1
 601 432 l 1
 401 403 238 358 238 199 c 0xf4
138 169 m 0
 138 331 269 440 601 477 c 1
 601 516 l 2
 601 725 564 826 410 826 c 0
 299 826 269 730 254 609 c 1
 211 609 172 631 172 676 c 0xec
 172 779 327 877 463 877 c 0
 617 877 691 780 691 569 c 2
 691 229 l 2
 691 137 692 65 779 50 c 1
 845 37 l 1
 840 3 l 1
 820 -6 781 -18 739 -18 c 0
 657 -18 614 45 614 117 c 2
 614 130 l 1
 609 130 l 1
 587 69 485 -26 346 -26 c 0
 240 -26 138 46 138 169 c 0
240 1174 m 1
 295 1223 l 1
 461 1054 l 1
 470 1054 l 1
 613 1219 l 1
 649 1192 l 1
 475 1008 l 1
 419 994 l 1
 240 1174 l 1
EndSplineSet
Validated: 8388609
EndChar

StartChar: acircumflex
Encoding: 226 226 126
Width: 864
VWidth: 0
Flags: W
HStem: -26 69<288.545 485.365 779 839.049> 432 45<485.785 601> 826 51<339.43 512.31>
VStem: 138 100<82.3071 309.481> 172 82<636.349 759.163> 601 90<68.5534 432 473.321 758.702>
LayerCount: 2
Fore
SplineSet
238 199 m 0xf4
 238 117 290 43 378 43 c 0
 474 43 555 106 601 185 c 1
 601 432 l 1
 401 403 238 358 238 199 c 0xf4
138 169 m 0
 138 331 269 440 601 477 c 1
 601 516 l 2
 601 725 564 826 410 826 c 0
 299 826 269 730 254 609 c 1
 211 609 172 631 172 676 c 0xec
 172 779 327 877 463 877 c 0
 617 877 691 780 691 569 c 2
 691 229 l 2
 691 137 692 65 779 50 c 1
 845 37 l 1
 840 3 l 1
 820 -6 781 -18 739 -18 c 0
 657 -18 614 45 614 117 c 2
 614 130 l 1
 609 130 l 1
 587 69 485 -26 346 -26 c 0
 240 -26 138 46 138 169 c 0
248 1025 m 1
 415 1206 l 1
 469 1219 l 1
 648 1033 l 1
 616 996 l 1
 435 1131 l 1
 426 1131 l 1
 269 995 l 1
 248 1025 l 1
EndSplineSet
Validated: 8388609
EndChar

StartChar: acute
Encoding: 180 180 127
Width: 613
VWidth: 0
Flags: W
HStem: 1344 363
VStem: 227 228
LayerCount: 2
Fore
SplineSet
227 1370 m 1
 359 1707 l 1
 455 1668 l 1
 272 1344 l 1
 227 1370 l 1
EndSplineSet
Validated: 1
EndChar

StartChar: adieresis
Encoding: 228 228 128
Width: 864
VWidth: 0
Flags: W
HStem: -26 69<288.545 485.365 779 839.049> 432 45<485.785 601> 826 51<339.43 512.31> 1004 159<257.518 362.932 526.344 631.141>
VStem: 138 100<82.3071 309.481> 172 82<636.349 759.163> 254 113<1005.06 1161.7> 523 112<1005.06 1161.7> 601 90<68.5534 432 473.321 758.702>
LayerCount: 2
Fore
SplineSet
238 199 m 0xf880
 238 117 290 43 378 43 c 0
 474 43 555 106 601 185 c 1
 601 432 l 1
 401 403 238 358 238 199 c 0xf880
138 169 m 0
 138 331 269 440 601 477 c 1
 601 516 l 2
 601 725 564 826 410 826 c 0
 299 826 269 730 254 609 c 1xfa80
 211 609 172 631 172 676 c 0xf4
 172 779 327 877 463 877 c 0
 617 877 691 780 691 569 c 2
 691 229 l 2
 691 137 692 65 779 50 c 1
 845 37 l 1
 840 3 l 1
 820 -6 781 -18 739 -18 c 0
 657 -18 614 45 614 117 c 2
 614 130 l 1
 609 130 l 1
 587 69 485 -26 346 -26 c 0
 240 -26 138 46 138 169 c 0
523 1085 m 0xf1
 523 1135 538 1163 577 1163 c 0
 614 1163 635 1136 635 1085 c 0
 635 1032 620 1004 578 1004 c 0
 536 1004 523 1034 523 1085 c 0xf1
254 1085 m 0xf2
 254 1135 270 1163 309 1163 c 0
 346 1163 367 1136 367 1085 c 0
 367 1032 353 1004 311 1004 c 0
 269 1004 254 1034 254 1085 c 0xf2
EndSplineSet
Validated: 8388609
EndChar

StartChar: ae
Encoding: 230 230 129
Width: 1257
VWidth: 0
Flags: W
HStem: -27 69<286.1 478.597 860.438 1092.63> 818 56<328.422 533.502 820.745 993.252>
VStem: 138 98<81.2901 306.237> 172 81<632.975 756.844> 600 85<209.913 424 476 688.409> 1083 104<513.427 744.198>
DStem2: 600 467 600 424 0.995099 0.0988788<-203.674 -4.25179 86.4685 475.329>
LayerCount: 2
Fore
SplineSet
686 476 m 1xcc
 1073 514 l 1
 1082 536 1083 592 1083 607 c 0
 1083 725 1002 818 905 818 c 0
 774 818 686 683 686 476 c 1xcc
236 196 m 0xec
 236 114 289 42 377 42 c 0
 479 42 600 128 600 248 c 2
 600 424 l 1
 400 395 236 355 236 196 c 0xec
138 169 m 0
 138 331 268 430 600 467 c 1
 600 538 l 2
 600 747 562 825 408 825 c 0
 297 825 268 730 253 609 c 1
 210 609 172 628 172 673 c 0xdc
 172 776 324 875 463 875 c 0
 561 875 652 826 679 718 c 1
 752 835 857 874 954 874 c 0
 1100 874 1187 784 1187 573 c 0
 1187 542 1180 487 1171 451 c 1
 685 429 l 1
 685 209 773 53 981 53 c 0
 1076 53 1148 90 1195 137 c 1
 1213 104 l 1
 1156 29 1058 -29 925 -29 c 0
 825 -29 678 51 632 169 c 1
 615 105 504 -27 345 -27 c 0
 239 -27 138 46 138 169 c 0
EndSplineSet
Validated: 8388609
EndChar

StartChar: agrave
Encoding: 224 224 130
Width: 864
VWidth: 0
Flags: W
HStem: -26 69<288.545 485.365 779 839.049> 432 45<485.785 601> 826 51<339.43 512.31>
VStem: 138 100<82.3071 309.481> 172 82<636.349 759.163> 601 90<68.5534 432 473.321 758.702>
LayerCount: 2
Fore
SplineSet
238 199 m 0xf4
 238 117 290 43 378 43 c 0
 474 43 555 106 601 185 c 1
 601 432 l 1
 401 403 238 358 238 199 c 0xf4
138 169 m 0
 138 331 269 440 601 477 c 1
 601 516 l 2
 601 725 564 826 410 826 c 0
 299 826 269 730 254 609 c 1
 211 609 172 631 172 676 c 0xec
 172 779 327 877 463 877 c 0
 617 877 691 780 691 569 c 2
 691 229 l 2
 691 137 692 65 779 50 c 1
 845 37 l 1
 840 3 l 1
 820 -6 781 -18 739 -18 c 0
 657 -18 614 45 614 117 c 2
 614 130 l 1
 609 130 l 1
 587 69 485 -26 346 -26 c 0
 240 -26 138 46 138 169 c 0
277 1298 m 1
 371 1335 l 1
 504 999 l 1
 458 972 l 1
 277 1298 l 1
EndSplineSet
Validated: 8388609
EndChar

StartChar: amacron
Encoding: 257 257 131
Width: 864
VWidth: 0
Flags: W
HStem: -26 69<288.545 485.365 779 839.049> 432 45<485.785 601> 826 51<339.43 512.31> 1017 52<227 659>
VStem: 138 100<82.3071 309.481> 172 82<636.349 759.163> 601 90<68.5534 432 473.321 758.702>
LayerCount: 2
Fore
SplineSet
238 199 m 0xfa
 238 117 290 43 378 43 c 0
 474 43 555 106 601 185 c 1
 601 432 l 1
 401 403 238 358 238 199 c 0xfa
138 169 m 0
 138 331 269 440 601 477 c 1
 601 516 l 2
 601 725 564 826 410 826 c 0
 299 826 269 730 254 609 c 1
 211 609 172 631 172 676 c 0xf6
 172 779 327 877 463 877 c 0
 617 877 691 780 691 569 c 2
 691 229 l 2
 691 137 692 65 779 50 c 1
 845 37 l 1
 840 3 l 1
 820 -6 781 -18 739 -18 c 0
 657 -18 614 45 614 117 c 2
 614 130 l 1
 609 130 l 1
 587 69 485 -26 346 -26 c 0
 240 -26 138 46 138 169 c 0
218 1017 m 1
 227 1069 l 1
 667 1069 l 1
 659 1017 l 1
 218 1017 l 1
EndSplineSet
Validated: 8388609
EndChar

StartChar: ampersand
Encoding: 38 38 132
Width: 1282
VWidth: 0
Flags: W
HStem: -20 85<280.104 542.069> 752 34<804 876.455 1131.95 1215> 1212 60<401.928 581.973>
VStem: 78 112<152.066 404.065> 245 78<900.098 1126.24> 674 99<880.499 1137.21>
DStem2: 520 680 438 622 0.649305 -0.760528<0 389.929> 775 385 824 332 0.495421 0.868653<0 385.007>
LayerCount: 2
Fore
SplineSet
323 1026 m 0
 323 936 398 829 477 731 c 1
 586 813 674 896 674 1000 c 0
 674 1115 592 1212 492 1212 c 0
 390 1212 323 1122 323 1026 c 0
190 281 m 0
 190 161 285 65 408 65 c 0
 538 65 637 158 721 290 c 1
 438 622 l 1
 435 622 l 1
 305 525 190 426 190 281 c 0
78 243 m 0
 78 433 242 556 396 672 c 1
 326 757 245 869 245 975 c 0
 245 1131 360 1272 520 1272 c 0
 674 1272 773 1175 773 1021 c 0
 773 879 652 781 520 683 c 1
 520 680 l 1
 775 385 l 1
 963 721 l 1
 802 752 l 1
 804 786 l 1
 1220 786 l 1
 1215 752 l 1
 1047 723 l 1
 824 332 l 1
 960 154 1077 76 1169 47 c 1
 1215 34 l 1
 1208 -3 l 1
 1165 -18 1154 -20 1117 -20 c 0
 1019 -20 924 54 870 116 c 2
 767 236 l 1
 682 111 561 -20 365 -20 c 0
 187 -20 78 98 78 243 c 0
EndSplineSet
Validated: 1
EndChar

StartChar: ampersand.osf
Encoding: 65537 -1 133
Width: 1282
VWidth: 0
Flags: W
HStem: -20 67<345.552 571.577> 550 33<721 777.255 983.134 1058> 917 54<407.776 567.138>
VStem: 167 114<99.3635 330.754> 268 88<652.741 870.06> 628 94<652.424 876.466>
DStem2: 518 502 439 445 0.633363 -0.773855<0 320.348>
LayerCount: 2
Fore
SplineSet
708 116 m 1xec
 640 32 551 -20 408 -20 c 0
 230 -20 168 98 167 200 c 1xf4
 167 333 284 412 401 490 c 1
 332 574 268 657 268 750 c 0
 268 861 378 971 505 971 c 0
 643 971 722 889 722 789 c 0
 722 662 622 578 518 502 c 1
 521 498 l 1
 711 269 l 1
 722 255 l 1
 762 326 800 414 842 520 c 1
 718 550 l 1
 721 583 l 1
 1062 583 l 1
 1058 550 l 1
 917 523 l 1
 861 407 819 295 767 204 c 1
 868 94 923 69 997 47 c 1
 1044 34 l 1
 1038 -3 l 1
 995 -18 980 -20 943 -20 c 0
 888 -20 806 -3 714 109 c 2
 708 116 l 1xec
666 168 m 1
 439 445 l 1
 353 382 281 319 281 236 c 0
 281 116 347 47 449 47 c 0
 537 47 605 88 666 168 c 1
481 545 m 1
 562 605 628 670 628 763 c 0
 628 842 579 917 486 917 c 0
 410 917 356 862 356 775 c 0xec
 356 699 418 620 481 545 c 1
EndSplineSet
Validated: 8388609
EndChar

StartChar: aogonek
Encoding: 261 261 134
Width: 864
VWidth: 0
Flags: W
HStem: -387 34<851.495 856.914> -26 69<288.545 485.365> 432 45<485.785 601> 826 51<339.43 512.31>
VStem: 138 100<82.3071 309.481> 172 82<636.349 759.163> 601 90<68.5534 432 473.321 758.702> 637 98<-278.248 -90.1467>
LayerCount: 2
Fore
SplineSet
238 199 m 0xfa
 238 117 290 43 378 43 c 0
 474 43 555 106 601 185 c 1
 601 432 l 1
 401 403 238 358 238 199 c 0xfa
138 169 m 0
 138 331 269 440 601 477 c 1
 601 516 l 2
 601 725 564 826 410 826 c 0
 299 826 269 730 254 609 c 1
 211 609 172 631 172 676 c 0
 172 779 327 877 463 877 c 0
 617 877 691 780 691 569 c 2
 691 229 l 2xf6
 691 137 692 65 779 50 c 1
 845 37 l 1
 840 3 l 1
 832 -1 819 -5 805 -9 c 1
 749 -81 735 -123 735 -166 c 0
 735 -248 785 -300 876 -353 c 1
 843 -387 l 1
 699 -372 637 -294 637 -209 c 0xf1
 637 -160 655 -106 744 -18 c 1
 742 -18 741 -18 739 -18 c 0
 657 -18 614 45 614 117 c 2
 614 130 l 1
 609 130 l 1
 587 69 485 -26 346 -26 c 0
 240 -26 138 46 138 169 c 0
EndSplineSet
Validated: 8388609
EndChar

StartChar: approxequal
Encoding: 8776 8776 135
Width: 985
VWidth: 0
Flags: W
HStem: 278 463 727 20G<792.769 868>
VStem: 82 39<286.854 310.589 543.854 567.589> 822 46<451 489 708 746>
DStem2: 321 741 274 643 0.962763 -0.270346<-94.9183 443.158> 321 484 274 386 0.962763 -0.270346<-94.9183 443.158>
LayerCount: 2
Fore
SplineSet
82 292 m 1xb0
 82 292 145 532 321 484 c 1
 670 386 l 1
 770 359 822 490 822 490 c 1
 868 489 l 1
 868 489 799 241 622 289 c 1
 274 386 l 2
 182 412 121 278 121 278 c 1
 82 292 l 1xb0
82 549 m 1
 82 549 145 789 321 741 c 1xb0
 670 643 l 1
 770 616 822 747 822 747 c 1x70
 868 746 l 1
 868 746 799 498 622 546 c 1
 274 643 l 2
 182 669 121 535 121 535 c 1
 82 549 l 1
EndSplineSet
Validated: 33
EndChar

StartChar: aring
Encoding: 229 229 136
Width: 864
VWidth: 0
Flags: W
HStem: -26 69<288.545 485.365 779 839.049> 432 45<485.785 601> 826 51<339.43 512.31> 1003 41<397.54 509.588> 1300 40<389.402 497.052>
VStem: 138 100<82.3071 309.481> 172 82<636.349 759.163> 287 65<1078.49 1267.78> 547 66<1075.36 1263.68> 601 90<68.5534 432 473.321 758.702>
LayerCount: 2
Fore
SplineSet
352 1180 m 0xf980
 352 1116 384 1044 453 1044 c 0
 512 1044 547 1087 547 1163 c 0
 547 1229 509 1300 443 1300 c 0
 379 1300 352 1240 352 1180 c 0xf980
287 1169 m 0
 287 1261 361 1340 455 1340 c 0
 552 1340 613 1272 613 1178 c 0
 613 1087 545 1003 443 1003 c 0
 351 1003 287 1067 287 1169 c 0
238 199 m 0xfd40
 238 117 290 43 378 43 c 0
 474 43 555 106 601 185 c 1
 601 432 l 1
 401 403 238 358 238 199 c 0xfd40
138 169 m 0
 138 331 269 440 601 477 c 1
 601 516 l 2
 601 725 564 826 410 826 c 0
 299 826 269 730 254 609 c 1
 211 609 172 631 172 676 c 0xfb40
 172 779 327 877 463 877 c 0
 617 877 691 780 691 569 c 2
 691 229 l 2
 691 137 692 65 779 50 c 1
 845 37 l 1
 840 3 l 1
 820 -6 781 -18 739 -18 c 0
 657 -18 614 45 614 117 c 2
 614 130 l 1
 609 130 l 1
 587 69 485 -26 346 -26 c 0
 240 -26 138 46 138 169 c 0
EndSplineSet
Validated: 8388609
EndChar

StartChar: asciicircum
Encoding: 94 94 137
Width: 746
VWidth: 0
Flags: W
HStem: 796 455
VStem: 57 638
LayerCount: 2
Fore
SplineSet
57 826 m 1
 345 1238 l 1
 401 1251 l 1
 695 824 l 1
 656 796 l 1
 372 1123 l 1
 363 1123 l 1
 90 802 l 1
 57 826 l 1
EndSplineSet
Validated: 1
EndChar

StartChar: asciitilde
Encoding: 126 126 138
Width: 946
VWidth: 0
Flags: W
HStem: 408 206
VStem: 82 39<416.854 440.589> 822 46<581 619>
DStem2: 321 614 274 516 0.962763 -0.270346<-94.9183 443.158>
LayerCount: 2
Fore
SplineSet
82 422 m 1
 82 422 145 662 321 614 c 1
 670 516 l 1
 770 489 822 620 822 620 c 1
 868 619 l 1
 868 619 799 371 622 419 c 1
 274 516 l 2
 182 542 121 408 121 408 c 1
 82 422 l 1
EndSplineSet
Validated: 33
EndChar

StartChar: asterisk
Encoding: 42 42 139
Width: 377
VWidth: 0
Flags: W
HStem: 623 666
VStem: 374 109<1125.67 1281.18>
LayerCount: 2
Fore
SplineSet
374 1289 m 1
 483 1280 l 1
 458 973 l 1
 751 1097 l 1
 776 990 l 1
 476 923 l 1
 683 680 l 1
 591 623 l 1
 434 893 l 1
 265 616 l 1
 182 684 l 1
 386 919 l 1
 76 990 l 1
 118 1093 l 1
 402 970 l 1
 374 1289 l 1
EndSplineSet
Validated: 1
EndChar

StartChar: at
Encoding: 64 64 140
Width: 1357
VWidth: 0
Flags: W
HStem: -227 64<531.169 907.74> 60 78<540.126 677.57 803.5 990.145> 725 65<658.856 841.763> 988 56<602.918 909.571>
VStem: 121 90<126.69 580.031> 418 89<159.676 541.092> 786 94<137.665 188> 1218 84<367.966 727.091>
DStem2: 788 243 894 385 0.115985 0.993251<-32.8485 476.882>
LayerCount: 2
Fore
SplineSet
507 369 m 0
 507 218 540 138 591 138 c 0
 644 138 752 203 788 243 c 1
 843 714 l 1
 816 723 759 725 728 725 c 0
 603 725 507 577 507 369 c 0
121 333 m 0
 121 691 372 1044 790 1044 c 0
 1071 1044 1302 847 1302 573 c 0
 1302 302 1107 69 833 69 c 0
 774 69 783 131 786 188 c 1
 777 188 l 1
 737 128 641 60 565 60 c 0
 472 60 418 153 418 325 c 0
 418 609 613 790 782 790 c 0
 835 790 863 785 921 772 c 1
 925 772 l 1
 936 752 l 1
 894 385 l 2
 887 328 880 243 880 197 c 0
 880 142 883 136 905 136 c 0
 1059 136 1218 280 1218 540 c 0
 1218 812 988 988 752 988 c 0
 440 988 211 721 211 358 c 0
 211 46 403 -163 730 -163 c 0
 880 -163 1051 -83 1097 -43 c 1
 1118 -82 l 1
 1031 -146 914 -227 693 -227 c 0
 388 -227 121 -32 121 333 c 0
EndSplineSet
Validated: 33
EndChar

StartChar: atilde
Encoding: 227 227 141
Width: 864
VWidth: 0
Flags: W
HStem: -26 69<288.545 485.365 779 839.049> 432 45<485.785 601> 826 51<339.43 512.31>
VStem: 138 100<82.3071 309.481> 172 82<636.349 759.163> 231 28<983.856 1005.36> 601 90<68.5534 432 473.321 758.702>
DStem2: 389 1125 358 1054 0.958262 -0.28589<-62.5169 248.786>
LayerCount: 2
Fore
SplineSet
231 990 m 1xe6
 231 990 264 1162 389 1125 c 2
 570 1071 l 2
 643 1049 666 1138 666 1138 c 1
 700 1136 l 1
 700 1136 661 965 534 1002 c 2
 358 1054 l 1
 294 1074 259 978 259 978 c 1
 231 990 l 1xe6
238 199 m 0xf2
 238 117 290 43 378 43 c 0
 474 43 555 106 601 185 c 1
 601 432 l 1
 401 403 238 358 238 199 c 0xf2
138 169 m 0
 138 331 269 440 601 477 c 1
 601 516 l 2
 601 725 564 826 410 826 c 0
 299 826 269 730 254 609 c 1
 211 609 172 631 172 676 c 0xea
 172 779 327 877 463 877 c 0
 617 877 691 780 691 569 c 2
 691 229 l 2
 691 137 692 65 779 50 c 1
 845 37 l 1
 840 3 l 1
 820 -6 781 -18 739 -18 c 0
 657 -18 614 45 614 117 c 2
 614 130 l 1
 609 130 l 1
 587 69 485 -26 346 -26 c 0
 240 -26 138 46 138 169 c 0
EndSplineSet
Validated: 8388641
EndChar

StartChar: b
Encoding: 98 98 142
Width: 966
VWidth: 0
Flags: W
HStem: -24 61<347.249 605.634> 802 72<450.798 669.076> 1221 31<57 122.68>
VStem: 206 95<67.9315 707.928 725.559 1190> 802 104<237.53 660.791>
LayerCount: 2
Fore
SplineSet
301 98 m 1
 343 56 418 37 505 37 c 0
 641 37 802 180 802 404 c 0
 802 673 716 802 526 802 c 0
 451 802 380 748 301 664 c 1
 301 98 l 1
51 1221 m 1
 57 1252 l 1
 296 1271 l 1
 301 1262 l 1
 301 824 l 1
 286 721 l 1
 299 721 l 1
 378 809 480 874 593 874 c 0
 786 874 906 711 906 460 c 0
 906 143 689 -24 429 -24 c 0
 338 -24 278 0 206 48 c 1
 206 1190 l 1
 51 1221 l 1
EndSplineSet
Validated: 1
EndChar

StartChar: backslash
Encoding: 92 92 143
Width: 543
VWidth: 0
Flags: W
VStem: 27 544
DStem2: 110 1241 27 1244 0.2794 -0.960175<0 1638.21>
LayerCount: 2
Fore
SplineSet
27 1244 m 1
 110 1241 l 1
 571 -358 l 1
 492 -354 l 1
 27 1244 l 1
EndSplineSet
Validated: 1
EndChar

StartChar: bar
Encoding: 124 124 144
Width: 564
VWidth: 0
Flags: W
VStem: 274 76<-368 1248>
LayerCount: 2
Fore
SplineSet
274 -368 m 1
 274 1260 l 1
 350 1248 l 1
 350 -380 l 1
 274 -368 l 1
EndSplineSet
Validated: 1
EndChar

StartChar: braceleft
Encoding: 123 123 145
Width: 663
VWidth: 0
Flags: W
HStem: -378 55<127.614 277> 414 49<-244 -195> 1207 49<123.4 271>
VStem: -244 116<425.56 456.381>
LayerCount: 2
Fore
SplineSet
283 -378 m 1
 181 -378 l 2
 -233 -378 108 374 -191 408 c 2
 -244 414 l 1
 -244 463 l 1
 -195 470 l 1
 106 506 -232 1256 176 1256 c 2
 279 1256 l 1
 271 1207 l 1
 165 1200 l 1
 -53 1189 201 524 -128 441 c 1
 -128 437 l 1
 201 385 -52 -314 176 -323 c 1
 277 -329 l 1
 283 -378 l 1
EndSplineSet
Validated: 1
EndChar

StartChar: braceright
Encoding: 125 125 146
Width: 663
VWidth: 0
Flags: W
HStem: -378 49<48 194.137> 414 49<520 569> 1200 56<54 215.972>
VStem: 453 116<425.56 456.381>
LayerCount: 2
Fore
SplineSet
42 -378 m 1
 48 -329 l 1
 149 -323 l 1
 377 -314 124 385 453 437 c 1
 453 441 l 1
 124 524 378 1189 160 1200 c 1
 54 1207 l 1
 46 1256 l 1
 149 1256 l 2
 557 1256 219 506 520 470 c 1
 569 463 l 1
 569 414 l 1
 516 408 l 2
 217 374 558 -378 144 -378 c 2
 42 -378 l 1
EndSplineSet
Validated: 1
EndChar

StartChar: bracketleft
Encoding: 91 91 147
Width: 478
VWidth: 0
Flags: W
HStem: -374 41<258.872 429> 1203 53<257.92 429>
VStem: 67 110<-312 1182>
LayerCount: 2
Fore
SplineSet
435 -333 m 1
 429 -374 l 1
 67 -374 l 1
 67 1256 l 1
 429 1256 l 1
 432 1203 l 1
 177 1182 l 1
 177 -312 l 1
 435 -333 l 1
EndSplineSet
Validated: 1
EndChar

StartChar: bracketright
Encoding: 93 93 148
Width: 478
VWidth: 0
Flags: W
HStem: -374 41<54 224.128> 1203 53<54 225.08>
VStem: 306 110<-312 1182>
LayerCount: 2
Fore
SplineSet
48 -333 m 1
 306 -312 l 1
 306 1182 l 1
 51 1203 l 1
 54 1256 l 1
 416 1256 l 1
 416 -374 l 1
 54 -374 l 1
 48 -333 l 1
EndSplineSet
Validated: 1
EndChar

StartChar: breve
Encoding: 728 728 149
Width: 626
VWidth: 0
Flags: W
HStem: 1375 75<218.933 406.36>
VStem: 121 30<1550.77 1564.47>
LayerCount: 2
Fore
SplineSet
121 1553 m 1
 151 1577 l 1
 175 1531 227 1450 311 1450 c 0
 398 1450 453 1529 480 1579 c 1
 503 1558 l 1
 474 1470 421 1375 311 1375 c 0
 193 1375 143 1466 121 1553 c 1
EndSplineSet
Validated: 1
EndChar

StartChar: brokenbar
Encoding: 166 166 150
Width: 564
VWidth: 0
Flags: W
VStem: 279 69<-374 410 535 1248>
LayerCount: 2
Fore
SplineSet
279 535 m 1
 279 1253 l 1
 347 1248 l 1
 344 529 l 1
 279 535 l 1
279 -374 m 1
 279 414 l 1
 348 410 l 1
 348 -380 l 1
 279 -374 l 1
EndSplineSet
Validated: 1
EndChar

StartChar: bullet
Encoding: 8226 8226 151
Width: 543
VWidth: 0
Flags: W
HStem: 394 292<209.528 355.672>
VStem: 190 184<408.522 672.989>
LayerCount: 2
Fore
SplineSet
190 544 m 0
 190 636 219 686 282 686 c 0
 345 686 374 637 374 544 c 0
 374 448 349 394 282 394 c 0
 215 394 190 451 190 544 c 0
EndSplineSet
Validated: 1
EndChar

StartChar: c
Encoding: 99 99 152
Width: 779
VWidth: 0
Flags: W
HStem: -29 76<377.849 639.194> 813 62<364.609 559.632>
VStem: 132 100<200.466 637.138> 663 65<648.875 691.12>
LayerCount: 2
Fore
SplineSet
132 395 m 0
 132 692 290 875 507 875 c 0
 676 875 728 785 728 706 c 0
 728 660 711 627 663 612 c 1
 617 748 564 813 459 813 c 0
 341 813 232 696 232 453 c 0
 232 154 357 47 517 47 c 0
 616 47 704 97 752 144 c 1
 770 111 l 1
 722 36 599 -29 469 -29 c 0
 247 -29 132 156 132 395 c 0
EndSplineSet
Validated: 1
EndChar

StartChar: cacute
Encoding: 263 263 153
Width: 779
VWidth: 0
Flags: W
HStem: -29 76<377.849 639.194> 813 62<364.609 559.632>
VStem: 132 100<200.466 637.138> 663 65<648.875 691.12>
LayerCount: 2
Fore
SplineSet
132 395 m 0
 132 692 290 875 507 875 c 0
 676 875 728 785 728 706 c 0
 728 660 711 627 663 612 c 1
 617 748 564 813 459 813 c 0
 341 813 232 696 232 453 c 0
 232 154 357 47 517 47 c 0
 616 47 704 97 752 144 c 1
 770 111 l 1
 722 36 599 -29 469 -29 c 0
 247 -29 132 156 132 395 c 0
417 1023 m 1
 549 1360 l 1
 645 1321 l 1
 462 997 l 1
 417 1023 l 1
EndSplineSet
Validated: 1
EndChar

StartChar: caron
Encoding: 711 711 154
Width: 651
VWidth: 0
Flags: W
HStem: 1357 229
VStem: 123 409
DStem2: 178 1586 123 1537 0.705134 -0.709074<0 236.886> 353 1417 358 1371 0.687087 0.726575<0 218.138>
LayerCount: 2
Fore
SplineSet
123 1537 m 1
 178 1586 l 1
 344 1417 l 1
 353 1417 l 1
 496 1582 l 1
 532 1555 l 1
 358 1371 l 1
 302 1357 l 1
 123 1537 l 1
EndSplineSet
Validated: 1
EndChar

StartChar: ccaron
Encoding: 269 269 155
Width: 779
VWidth: 0
Flags: W
HStem: -29 76<377.849 639.194> 813 62<364.609 559.632>
VStem: 132 100<200.466 637.138> 663 65<648.875 691.12>
DStem2: 324 1239 269 1190 0.705134 -0.709074<0 236.886> 499 1070 504 1024 0.687087 0.726575<0 218.138>
LayerCount: 2
Fore
SplineSet
132 395 m 0
 132 692 290 875 507 875 c 0
 676 875 728 785 728 706 c 0
 728 660 711 627 663 612 c 1
 617 748 564 813 459 813 c 0
 341 813 232 696 232 453 c 0
 232 154 357 47 517 47 c 0
 616 47 704 97 752 144 c 1
 770 111 l 1
 722 36 599 -29 469 -29 c 0
 247 -29 132 156 132 395 c 0
269 1190 m 1
 324 1239 l 1
 490 1070 l 1
 499 1070 l 1
 642 1235 l 1
 678 1208 l 1
 504 1024 l 1
 448 1010 l 1
 269 1190 l 1
EndSplineSet
Validated: 8388609
EndChar

StartChar: ccedilla
Encoding: 231 231 156
Width: 779
VWidth: 0
Flags: W
HStem: -29 76<379.297 454> 813 62<364.609 559.632>
VStem: 132 100<202.531 637.138> 477 92<-306.084 -156.082> 663 65<648.875 691.12>
LayerCount: 2
Fore
SplineSet
132 395 m 0
 132 692 290 875 507 875 c 0
 676 875 728 785 728 706 c 0
 728 660 711 627 663 612 c 1
 617 748 564 813 459 813 c 0
 341 813 232 696 232 453 c 0
 232 154 357 47 517 47 c 0
 616 47 704 97 752 144 c 1
 770 111 l 1
 728 45 627 -13 515 -26 c 1
 480 -76 l 1
 517 -109 569 -161 569 -227 c 0
 569 -306 488 -354 370 -390 c 1
 359 -347 l 1
 417 -327 477 -276 477 -247 c 0
 477 -182 427 -154 391 -118 c 1
 454 -29 l 1
 242 -21 132 162 132 395 c 0
EndSplineSet
Validated: 8388609
EndChar

StartChar: cdotaccent
Encoding: 267 267 157
Width: 779
VWidth: 0
Flags: W
HStem: -29 76<377.849 639.194> 813 62<364.609 559.632> 983 200<409.212 520.788>
VStem: 132 100<200.466 637.138> 402 126<985.803 1180.53> 663 65<648.875 691.12>
LayerCount: 2
Fore
SplineSet
402 1086 m 0
 402 1149 422 1183 465 1183 c 0
 508 1183 528 1150 528 1086 c 0
 528 1020 511 983 465 983 c 0
 419 983 402 1022 402 1086 c 0
132 395 m 0
 132 692 290 875 507 875 c 0
 676 875 728 785 728 706 c 0
 728 660 711 627 663 612 c 1
 617 748 564 813 459 813 c 0
 341 813 232 696 232 453 c 0
 232 154 357 47 517 47 c 0
 616 47 704 97 752 144 c 1
 770 111 l 1
 722 36 599 -29 469 -29 c 0
 247 -29 132 156 132 395 c 0
EndSplineSet
Validated: 1
EndChar

StartChar: cedilla
Encoding: 184 184 158
Width: 380
VWidth: 0
Flags: W
HStem: -390 393
VStem: 209 92<-306.084 -156.082>
DStem2: 208 3 212 -76 0.574823 0.818278<-65.2705 0>
LayerCount: 2
Fore
SplineSet
91 -347 m 1
 149 -327 209 -276 209 -247 c 0
 209 -182 159 -154 123 -118 c 1
 208 3 l 1
 267 3 l 1
 212 -76 l 1
 249 -109 301 -161 301 -227 c 0
 301 -306 220 -354 102 -390 c 1
 91 -347 l 1
EndSplineSet
Validated: 1
EndChar

StartChar: cent
Encoding: 162 162 159
Width: 797
VWidth: 0
Flags: W
HStem: 0 47<441 489> 840 23<437.005 482.679>
VStem: 132 100<209.511 654.036> 414 108<-252.257 -223.821 1061.04 1115.81> 438 55<-107.124 -28 898.312 985.449> 663 65<674.351 717.243>
LayerCount: 2
Back
SplineSet
113.135 349.123 m 4
 113.135 603.157 247.788 769.736 433.802 769.736 c 4
 578.17 769.736 622.591 692.694 622.591 625.367 c 4
 622.591 585.805 609.404 558.736 567.76 545.549 c 5
 528.196 662.154 483.08 718.375 392.851 718.375 c 4
 291.515 718.375 198.507 605.934 198.507 398.403 c 4
 198.507 142.98 306.09 40.9512 442.824 40.9512 c 4
 527.501 40.9512 602.463 82.5967 644.108 123.547 c 5
 659.378 95.0898 l 5
 617.733 31.2334 512.232 -24.9873 401.179 -24.9873 c 4
 211.694 -24.9873 113.135 144.368 113.135 349.123 c 4
345.652 954.363 m 1
 436.577 968.938 l 1
 415.756 739.197 l 1
 372.722 739.197 l 1
 345.652 954.363 l 1
354.676 -228.353 m 1
 376.886 0 l 1
 418.531 0 l 1
 446.989 -214.472 l 1
 354.676 -228.353 l 1
EndSplineSet
Fore
SplineSet
404 1115 m 1xe4
 510 1133 l 1
 489 899 l 1
 470 898 450 895 432 891 c 1
 404 1115 l 1xe4
432 891 m 1
 254 852 132 670 132 408 c 0
 132 180 236 -10 438 -28 c 1
 441 0 l 1
 489 0 l 1
 493 -28 l 1xec
 614 -21 725 41 770 111 c 1
 752 144 l 1
 704 97 616 47 517 47 c 0
 357 47 232 166 232 465 c 0
 232 708 341 840 459 840 c 0
 564 840 617 774 663 638 c 1
 711 653 728 685 728 731 c 0
 728 810 676 899 507 899 c 0
 501 899 495 899 489 899 c 1
 486 863 l 1
 436 863 l 1
 432 891 l 1
493 -28 m 1
 522 -250 l 1
 414 -267 l 1xf4
 438 -28 l 1
 448 -29 458 -29 469 -29 c 0
 477 -29 485 -28 493 -28 c 1
EndSplineSet
Validated: 5
EndChar

StartChar: circumflex
Encoding: 710 710 160
Width: 646
VWidth: 0
Flags: W
HStem: 1359 223
VStem: 121 400
LayerCount: 2
Fore
SplineSet
121 1388 m 1
 288 1569 l 1
 342 1582 l 1
 521 1396 l 1
 489 1359 l 1
 308 1494 l 1
 299 1494 l 1
 142 1358 l 1
 121 1388 l 1
EndSplineSet
Validated: 1
EndChar

StartChar: colon
Encoding: 58 58 161
Width: 398
VWidth: 0
Flags: W
HStem: 0 200<152.212 263.788> 631 198<149.438 260.446>
VStem: 145 126<2.80304 197.529 634.385 825.632>
LayerCount: 2
Fore
SplineSet
145 103 m 0
 145 166 165 200 208 200 c 0
 251 200 271 167 271 103 c 0
 271 37 254 0 208 0 c 0
 162 0 145 39 145 103 c 0
142 734 m 0
 142 797 162 829 205 829 c 0
 248 829 267 798 267 734 c 0
 267 668 252 631 206 631 c 0
 160 631 142 670 142 734 c 0
EndSplineSet
Validated: 1
EndChar

StartChar: comma
Encoding: 44 44 162
Width: 360
VWidth: 0
Flags: W
HStem: 112 106<104.646 203.197>
VStem: 232 100<-132.173 85.5388>
LayerCount: 2
Fore
SplineSet
54 -236 m 1
 197 -179 232 -112 232 -30 c 0
 232 57 182 112 123 112 c 0
 114 112 105 112 96 108 c 1
 93 117 93 118 93 127 c 0
 93 182 132 218 189 218 c 0
 265 218 332 147 332 9 c 0
 332 -85 275 -215 66 -281 c 1
 54 -236 l 1
EndSplineSet
Validated: 1
EndChar

StartChar: commaaccent
Encoding: 806 806 163
Width: 360
VWidth: 0
Flags: W
HStem: -390 37<15.8006 59.0156> -151 66<57.9139 111.946>
VStem: 132 76<-308.093 -170.559>
LayerCount: 2
Fore
SplineSet
6 -353 m 1
 85 -334 132 -294 132 -241 c 0
 132 -176 84 -155 27 -151 c 1
 27 -121 58 -85 104 -85 c 0
 161 -85 208 -127 208 -206 c 0
 208 -269 163 -363 22 -390 c 1
 6 -353 l 1
EndSplineSet
Validated: 1
EndChar

StartChar: copyright
Encoding: 169 169 164
Width: 1377
VWidth: 0
Flags: W
HStem: -27 58<521.891 862.001> 262 63<605.415 825.028> 788 21G<824 862.5> 953 51<597.833 757.951> 1226 55<524.124 857.706>
VStem: 91 68<417.541 842.846> 407 82<443.362 818.984> 843 53<814.351 853.093> 1243 65<412.823 829.609>
LayerCount: 2
Fore
SplineSet
159 631 m 0
 159 286 377 31 689 31 c 0
 1008 31 1243 278 1243 613 c 0
 1243 966 1008 1226 691 1226 c 0
 379 1226 159 973 159 631 c 0
91 620 m 0
 91 1018 350 1281 689 1281 c 0
 1067 1281 1308 1016 1308 623 c 0
 1308 233 1065 -27 680 -27 c 0
 315 -27 91 231 91 620 c 0
407 610 m 0
 407 854 537 1004 715 1004 c 0
 854 1004 896 930 896 865 c 0
 896 827 882 800 843 788 c 1
 805 900 761 953 675 953 c 0
 578 953 489 856 489 657 c 0
 489 412 592 325 723 325 c 0
 804 325 877 365 916 404 c 1
 930 377 l 1
 891 315 791 262 684 262 c 0
 502 262 407 414 407 610 c 0
EndSplineSet
Validated: 1
EndChar

StartChar: currency
Encoding: 164 164 165
Width: 774
VWidth: 0
Flags: W
HStem: 220 68<286.012 505.316> 700 72<292.037 505.69> 762 20G<128.167 166.528 629.976 664.849>
VStem: 134 74<364.624 612.7> 587 73<369.308 619.3>
LayerCount: 2
Fore
SplineSet
208 496 m 0xd8
 208 372 282 288 393 288 c 0
 509 288 587 371 587 489 c 0
 587 616 509 700 391 700 c 0
 280 700 208 617 208 496 c 0xd8
99 734 m 1
 149 782 l 1xb8
 227 693 l 1
 270 729 348 772 396 772 c 0
 450 772 531 730 571 701 c 1
 649 783 l 1
 691 730 l 1
 607 656 l 1
 629 619 660 539 660 493 c 0
 660 442 627 364 600 327 c 1
 693 241 l 1
 641 193 l 1
 562 283 l 1
 516 256 436 220 390 220 c 0
 350 220 280 252 238 278 c 1
 160 190 l 1
 111 239 l 1
 195 317 l 1
 168 359 134 439 134 492 c 0
 134 538 166 611 190 647 c 1
 99 734 l 1
EndSplineSet
Validated: 8388609
EndChar

StartChar: d
Encoding: 100 100 166
Width: 1005
VWidth: 0
Flags: W
HStem: -22 69<370.533 593.143 922 975.056> 818 59<406.747 633.785> 1221 31<587 651.755>
VStem: 130 100<199.736 615.355> 742 91<138.792 748.42 853.08 1190>
LayerCount: 2
Fore
SplineSet
230 442 m 0
 230 209 312 47 497 47 c 0
 581 47 690 114 742 190 c 1
 742 704 l 1
 683 780 592 818 496 818 c 0
 365 818 230 695 230 442 c 0
130 386 m 0
 130 693 330 877 546 877 c 0
 612 877 707 851 740 825 c 1
 750 825 l 1
 734 960 l 1
 734 1190 l 1
 581 1221 l 1
 587 1252 l 1
 825 1272 l 1
 833 1262 l 1
 833 229 l 2
 833 73 885 59 922 50 c 2
 982 37 l 1
 976 1 l 1
 956 -8 927 -20 881 -20 c 0
 789 -20 752 42 752 124 c 2
 752 131 l 1
 742 131 l 1
 685 53 580 -22 442 -22 c 0
 265 -22 130 119 130 386 c 0
EndSplineSet
Validated: 1
EndChar

StartChar: dagger
Encoding: 8224 8224 167
Width: 898
VWidth: 0
Flags: W
HStem: 734 76<127 424 497 796>
VStem: 408 106<-351 567.153> 424 73<-190.153 740 803 1244>
LayerCount: 2
Fore
SplineSet
118 734 m 1xa0
 127 810 l 1
 424 803 l 1
 414 1256 l 1
 508 1244 l 1
 497 803 l 1
 803 810 l 1
 796 730 l 1
 497 740 l 1xa0
 514 -363 l 1
 408 -351 l 1xc0
 424 742 l 1
 118 734 l 1xa0
EndSplineSet
Validated: 8388609
EndChar

StartChar: daggerdbl
Encoding: 8225 8225 168
Width: 898
VWidth: 0
Flags: W
HStem: 87 82<139 420> 97 60<154.549 420 496 801> 734 75<127 423 496 793>
VStem: 420 76<-353 97 157 268.675 609.73 739 802 1244> 426 62<157 739>
LayerCount: 2
Fore
SplineSet
118 734 m 1x68
 127 809 l 1
 423 802 l 1
 413 1256 l 1
 507 1244 l 1
 496 802 l 1
 801 809 l 1
 793 729 l 1
 496 739 l 1x70
 488 429 l 1x68
 496 154 l 1
 807 162 l 1
 801 87 l 1xb0
 496 97 l 1
 502 -363 l 1
 410 -353 l 1
 420 97 l 1x70
 134 87 l 1
 139 169 l 1xb0
 420 157 l 1x70
 426 498 l 1
 423 740 l 1
 118 734 l 1x68
EndSplineSet
Validated: 8388609
EndChar

StartChar: dcaron
Encoding: 271 271 169
Width: 1005
VWidth: 0
Flags: W
HStem: -22 69<370.533 593.143 922 975.056> 818 59<406.747 633.785> 1195 106<134.646 233.197> 1221 31<587 651.755>
VStem: 130 100<199.736 615.355> 262 100<950.827 1168.54> 742 91<138.792 748.42 853.08 1190>
LayerCount: 2
Fore
SplineSet
230 442 m 0xce
 230 209 312 47 497 47 c 0
 581 47 690 114 742 190 c 1
 742 704 l 1
 683 780 592 818 496 818 c 0
 365 818 230 695 230 442 c 0xce
130 386 m 0
 130 693 330 877 546 877 c 0
 612 877 707 851 740 825 c 1
 750 825 l 1
 734 960 l 1
 734 1190 l 1
 581 1221 l 1
 587 1252 l 1xde
 825 1272 l 1
 833 1262 l 1
 833 229 l 2
 833 73 885 59 922 50 c 2
 982 37 l 1
 976 1 l 1
 956 -8 927 -20 881 -20 c 0
 789 -20 752 42 752 124 c 2
 752 131 l 1
 742 131 l 1
 685 53 580 -22 442 -22 c 0
 265 -22 130 119 130 386 c 0
84 847 m 1
 227 904 262 971 262 1053 c 0
 262 1140 212 1195 153 1195 c 0
 144 1195 135 1195 126 1191 c 1
 123 1200 123 1201 123 1210 c 0
 123 1265 162 1301 219 1301 c 0xee
 295 1301 362 1230 362 1092 c 0
 362 998 305 868 96 802 c 1
 84 847 l 1
EndSplineSet
Validated: 8388609
EndChar

StartChar: dcroat
Encoding: 273 273 170
Width: 1005
VWidth: 0
Flags: W
HStem: -22 69<370.533 593.143 922 975.056> 818 59<406.747 633.785> 1011 52<478 734 833 969> 1221 31<587 651.755>
VStem: 130 100<199.736 615.355> 734 99<132.43 753.875 839.04 1011 1063 1190>
LayerCount: 2
Fore
SplineSet
470 1011 m 1
 478 1063 l 1
 734 1063 l 1
 734 1190 l 1
 581 1221 l 1
 587 1252 l 1
 825 1272 l 1
 833 1262 l 1
 833 1063 l 1
 976 1063 l 1
 969 1011 l 1
 833 1011 l 1
 833 229 l 2
 833 73 885 59 922 50 c 2
 982 37 l 1
 976 1 l 1
 956 -8 927 -20 881 -20 c 0
 789 -20 752 42 752 124 c 2
 752 131 l 1
 742 131 l 1
 685 53 580 -22 442 -22 c 0
 265 -22 130 119 130 386 c 0
 130 693 330 877 546 877 c 0
 612 877 707 851 740 825 c 1
 750 825 l 1
 734 960 l 1
 734 1011 l 1
 470 1011 l 1
230 442 m 0
 230 209 312 47 497 47 c 0
 581 47 690 114 742 190 c 1
 742 704 l 1
 683 780 592 818 496 818 c 0
 365 818 230 695 230 442 c 0
EndSplineSet
Validated: 1
EndChar

StartChar: degree
Encoding: 176 176 171
Width: 398
VWidth: 0
Flags: W
HStem: 949 48<138.518 266.911> 1238 46<135.399 257.022>
VStem: 36 61<1031.68 1208.05> 300 60<1023.56 1202.83>
LayerCount: 2
Fore
SplineSet
97 1117 m 0
 97 1056 133 997 206 997 c 0
 269 997 300 1045 300 1118 c 0
 300 1181 264 1238 192 1238 c 0
 126 1238 97 1174 97 1117 c 0
36 1115 m 0
 36 1207 112 1284 206 1284 c 0
 303 1284 360 1217 360 1123 c 0
 360 1032 294 949 192 949 c 0
 100 949 36 1013 36 1115 c 0
EndSplineSet
Validated: 1
EndChar

StartChar: dieresis
Encoding: 168 168 172
Width: 683
VWidth: 0
Flags: W
HStem: 1384 159<157.518 262.932 426.344 531.141>
VStem: 154 113<1385.06 1541.7> 423 112<1385.06 1541.7>
LayerCount: 2
Fore
SplineSet
423 1465 m 0
 423 1515 438 1543 477 1543 c 0
 514 1543 535 1516 535 1465 c 0
 535 1412 520 1384 478 1384 c 0
 436 1384 423 1414 423 1465 c 0
154 1465 m 0
 154 1515 170 1543 209 1543 c 0
 246 1543 267 1516 267 1465 c 0
 267 1412 253 1384 211 1384 c 0
 169 1384 154 1414 154 1465 c 0
EndSplineSet
Validated: 1
EndChar

StartChar: dieresiscomb
Encoding: 776 776 173
Width: 0
VWidth: 0
Flags: W
HStem: 1384 159<157.518 262.932 426.344 531.141>
VStem: 154 113<1385.06 1541.7> 423 112<1385.06 1541.7>
LayerCount: 2
Fore
SplineSet
423 1465 m 0
 423 1515 438 1543 477 1543 c 0
 514 1543 535 1516 535 1465 c 0
 535 1412 520 1384 478 1384 c 0
 436 1384 423 1414 423 1465 c 0
154 1465 m 0
 154 1515 170 1543 209 1543 c 0
 246 1543 267 1516 267 1465 c 0
 267 1412 253 1384 211 1384 c 0
 169 1384 154 1414 154 1465 c 0
EndSplineSet
Validated: 1
EndChar

StartChar: divide
Encoding: 247 247 174
Width: 984
VWidth: 0
Flags: W
HStem: 120 197<433.004 545.267> 476 65<94 895> 685 200<433.004 545.267>
VStem: 426 127<123.317 313.816 688.317 881.539>
LayerCount: 2
Fore
SplineSet
426 789 m 0
 426 852 443 885 486 885 c 0
 529 885 553 853 553 789 c 0
 553 723 534 685 488 685 c 0
 442 685 426 725 426 789 c 0
426 224 m 0
 426 287 443 317 486 317 c 0
 529 317 553 288 553 224 c 0
 553 158 534 120 488 120 c 0
 442 120 426 160 426 224 c 0
82 476 m 1
 94 541 l 1
 906 541 l 1
 895 476 l 1
 82 476 l 1
EndSplineSet
Validated: 1
EndChar

StartChar: dollar
Encoding: 36 36 175
Width: 860
VWidth: 0
Flags: W
VStem: 124 48<280.872 393> 143 98<867.745 1119.34> 396 118<-165.822 -26 1285.53 1397.84> 426 56<54 557 728 1205> 688 46<858 985.672> 716 110<148.829 395.362>
LayerCount: 2
Fore
SplineSet
94 116 m 1x24
 124 401 l 1
 172 393 l 1xa4
 200 174 l 1
 238 101 327 54 421 41 c 1
 426 54 l 1
 426 594 l 1
 284 686 143 785 143 959 c 0
 143 1132 274 1240 413 1265 c 1
 404 1396 l 1
 513 1411 l 1
 500 1270 l 1
 601 1265 705 1230 767 1161 c 1
 734 851 l 1
 688 858 l 1x58
 661 1101 l 1
 630 1158 556 1200 483 1211 c 1
 480 1205 l 1
 480 694 l 1
 642 587 826 489 826 308 c 0
 826 140 704 7 503 -21 c 1
 514 -164 l 1
 396 -179 l 1
 406 -26 l 1
 270 -21 155 40 94 116 c 1x24
431 728 m 1
 431 1208 l 1
 429 1213 l 1
 326 1204 241 1129 241 1006 c 0x40
 241 885 326 803 431 728 c 1
482 557 m 1x14
 482 54 l 1
 491 37 l 1
 609 43 716 119 716 262 c 0
 716 393 606 476 482 557 c 1x14
EndSplineSet
Validated: 8388609
EndChar

StartChar: dollar.osf
Encoding: 65538 -1 176
Width: 860
VWidth: 0
Flags: W
HStem: 855 36<342 426> 895 147<340.83 395.11>
VStem: 92 80<120.701 225.814> 142 78<624.755 801.216> 323 115<-181.244 -35 931.085 1044.24> 555 90<80.4001 269.025>
LayerCount: 2
Fore
SplineSet
92 178 m 0xec
 92 235 136 259 172 268 c 1xec
 198 92 253 15 389 15 c 0
 489 15 555 103 555 169 c 0
 555 358 142 411 142 672 c 0
 142 777 203 875 342 895 c 1
 342 891 l 1
 426 891 l 1
 426 897 l 1
 539 884 613 801 613 716 c 0
 613 646 575 630 543 627 c 1
 534 663 l 1
 492 822 433 855 372 855 c 0
 276 855 220 812 220 728 c 0xdc
 220 499 645 451 645 216 c 0
 645 91 550 -2 428 -28 c 1
 438 -179 l 1
 323 -197 l 1
 334 -35 l 1
 203 -26 92 58 92 178 c 0xec
426 897 m 1
 438 1060 l 1
 330 1042 l 1
 342 895 l 1
 359 897 377 899 396 899 c 0
 406 899 416 898 426 897 c 1
EndSplineSet
Validated: 8388613
EndChar

StartChar: dotaccent
Encoding: 729 729 177
Width: 484
VWidth: 0
Flags: W
HStem: 1376 200<237.212 348.788>
VStem: 230 126<1378.8 1573.53>
LayerCount: 2
Fore
SplineSet
230 1479 m 0
 230 1542 250 1576 293 1576 c 0
 336 1576 356 1543 356 1479 c 0
 356 1413 339 1376 293 1376 c 0
 247 1376 230 1415 230 1479 c 0
EndSplineSet
Validated: 1
EndChar

StartChar: dotaccentcomb
Encoding: 775 775 178
Width: 0
VWidth: 0
Flags: W
HStem: 1350 199<175.71 285.242>
VStem: 169 124<1352.87 1546.17>
LayerCount: 2
Fore
SplineSet
169 1454 m 0
 169 1517 185 1549 228 1549 c 0
 271 1549 293 1518 293 1454 c 0
 293 1388 275 1350 229 1350 c 0
 183 1350 169 1390 169 1454 c 0
EndSplineSet
Validated: 1
EndChar

StartChar: dotbelowcomb
Encoding: 803 803 179
Width: 398
VWidth: 0
Flags: W
HStem: -380 199<49.849 161.929>
VStem: 43 126<-377.263 -183.988>
LayerCount: 2
Fore
SplineSet
43 -278 m 0
 43 -215 61 -181 104 -181 c 0
 147 -181 169 -214 169 -278 c 0
 169 -344 151 -380 105 -380 c 0
 59 -380 43 -342 43 -278 c 0
EndSplineSet
Validated: 1
EndChar

StartChar: dotlessi
Encoding: 305 305 180
Width: 570
VWidth: 0
Flags: W
HStem: 0 31<136 212.8 458.08 529> 842 25<136 206.114>
VStem: 286 94<59 812>
LayerCount: 2
Fore
SplineSet
123 0 m 1
 136 31 l 1
 286 59 l 1
 286 812 l 1
 133 842 l 1
 136 867 l 1
 372 888 l 1
 380 880 l 1
 380 59 l 1
 540 33 l 1
 529 0 l 1
 123 0 l 1
EndSplineSet
Validated: 1
EndChar

StartChar: e
Encoding: 101 101 181
Width: 821
VWidth: 0
Flags: W
HStem: -29 82<386.457 654.33> 444 48<241 493.183> 818 56<375.918 548.032>
VStem: 136 103<215.89 444 492 638.605> 638 102<514.309 744.288>
LayerCount: 2
Fore
SplineSet
241 492 m 1
 628 514 l 1
 637 531 638 579 638 605 c 0
 638 725 559 818 459 818 c 0
 329 818 241 701 241 492 c 1
136 411 m 0
 136 710 315 874 508 874 c 0
 654 874 740 793 740 582 c 0
 740 551 731 487 722 451 c 1
 239 444 l 1
 239 224 326 53 534 53 c 2
 537 53 l 2
 630 53 704 91 750 137 c 1
 767 104 l 1
 710 29 610 -29 477 -29 c 0
 287 -29 136 109 136 411 c 0
EndSplineSet
Validated: 1
EndChar

StartChar: eacute
Encoding: 233 233 182
Width: 821
VWidth: 0
Flags: W
HStem: -29 82<386.457 654.33> 444 48<241 493.183> 818 56<375.918 548.032>
VStem: 136 103<215.89 444 492 638.605> 638 102<514.309 744.288>
LayerCount: 2
Fore
SplineSet
241 492 m 1
 628 514 l 1
 637 531 638 579 638 605 c 0
 638 725 559 818 459 818 c 0
 329 818 241 701 241 492 c 1
136 411 m 0
 136 710 315 874 508 874 c 0
 654 874 740 793 740 582 c 0
 740 551 731 487 722 451 c 1
 239 444 l 1
 239 224 326 53 534 53 c 2
 537 53 l 2
 630 53 704 91 750 137 c 1
 767 104 l 1
 710 29 610 -29 477 -29 c 0
 287 -29 136 109 136 411 c 0
405 998 m 1
 537 1335 l 1
 633 1296 l 1
 450 972 l 1
 405 998 l 1
EndSplineSet
Validated: 1
EndChar

StartChar: ecaron
Encoding: 283 283 183
Width: 821
VWidth: 0
Flags: W
HStem: -29 82<386.457 654.33> 444 48<241 493.183> 818 56<375.918 548.032>
VStem: 136 103<215.89 444 492 638.605> 638 102<514.309 744.288>
DStem2: 338 1223 283 1174 0.705134 -0.709074<0 236.886> 513 1054 518 1008 0.687087 0.726575<0 218.138>
LayerCount: 2
Fore
SplineSet
241 492 m 1
 628 514 l 1
 637 531 638 579 638 605 c 0
 638 725 559 818 459 818 c 0
 329 818 241 701 241 492 c 1
136 411 m 0
 136 710 315 874 508 874 c 0
 654 874 740 793 740 582 c 0
 740 551 731 487 722 451 c 1
 239 444 l 1
 239 224 326 53 534 53 c 2
 537 53 l 2
 630 53 704 91 750 137 c 1
 767 104 l 1
 710 29 610 -29 477 -29 c 0
 287 -29 136 109 136 411 c 0
283 1174 m 1
 338 1223 l 1
 504 1054 l 1
 513 1054 l 1
 656 1219 l 1
 692 1192 l 1
 518 1008 l 1
 462 994 l 1
 283 1174 l 1
EndSplineSet
Validated: 8388609
EndChar

StartChar: ecircumflex
Encoding: 234 234 184
Width: 821
VWidth: 0
Flags: W
HStem: -29 82<386.457 654.33> 444 48<241 493.183> 818 56<375.918 548.032>
VStem: 136 103<215.89 444 492 638.605> 638 102<514.309 744.288>
LayerCount: 2
Fore
SplineSet
241 492 m 1
 628 514 l 1
 637 531 638 579 638 605 c 0
 638 725 559 818 459 818 c 0
 329 818 241 701 241 492 c 1
136 411 m 0
 136 710 315 874 508 874 c 0
 654 874 740 793 740 582 c 0
 740 551 731 487 722 451 c 1
 239 444 l 1
 239 224 326 53 534 53 c 2
 537 53 l 2
 630 53 704 91 750 137 c 1
 767 104 l 1
 710 29 610 -29 477 -29 c 0
 287 -29 136 109 136 411 c 0
275 1025 m 1
 442 1206 l 1
 496 1219 l 1
 675 1033 l 1
 643 996 l 1
 462 1131 l 1
 453 1131 l 1
 296 995 l 1
 275 1025 l 1
EndSplineSet
Validated: 8388609
EndChar

StartChar: edieresis
Encoding: 235 235 185
Width: 821
VWidth: 0
Flags: W
HStem: -29 82<386.457 654.33> 444 48<241 493.183> 818 56<375.918 548.032> 1004 159<286.518 391.932 555.344 660.141>
VStem: 136 103<215.89 444 492 638.605> 283 113<1005.06 1161.7> 552 112<1005.06 1161.7> 638 102<514.309 744.288>
LayerCount: 2
Fore
SplineSet
241 492 m 1xfd
 628 514 l 1
 637 531 638 579 638 605 c 0
 638 725 559 818 459 818 c 0
 329 818 241 701 241 492 c 1xfd
136 411 m 0
 136 710 315 874 508 874 c 0
 654 874 740 793 740 582 c 0
 740 551 731 487 722 451 c 1
 239 444 l 1
 239 224 326 53 534 53 c 2
 537 53 l 2
 630 53 704 91 750 137 c 1
 767 104 l 1
 710 29 610 -29 477 -29 c 0
 287 -29 136 109 136 411 c 0
552 1085 m 0xfe
 552 1135 567 1163 606 1163 c 0
 643 1163 664 1136 664 1085 c 0
 664 1032 649 1004 607 1004 c 0
 565 1004 552 1034 552 1085 c 0xfe
283 1085 m 0
 283 1135 299 1163 338 1163 c 0
 375 1163 396 1136 396 1085 c 0
 396 1032 382 1004 340 1004 c 0
 298 1004 283 1034 283 1085 c 0
EndSplineSet
Validated: 8388609
EndChar

StartChar: edotaccent
Encoding: 279 279 186
Width: 821
VWidth: 0
Flags: W
HStem: -29 82<386.457 654.33> 444 48<241 493.183> 818 56<375.918 548.032> 1013 200<430.212 541.788>
VStem: 136 103<215.89 444 492 638.605> 423 126<1015.8 1210.53> 638 102<514.309 744.288>
LayerCount: 2
Fore
SplineSet
241 492 m 1
 628 514 l 1
 637 531 638 579 638 605 c 0
 638 725 559 818 459 818 c 0
 329 818 241 701 241 492 c 1
136 411 m 0
 136 710 315 874 508 874 c 0
 654 874 740 793 740 582 c 0
 740 551 731 487 722 451 c 1
 239 444 l 1
 239 224 326 53 534 53 c 2
 537 53 l 2
 630 53 704 91 750 137 c 1
 767 104 l 1
 710 29 610 -29 477 -29 c 0
 287 -29 136 109 136 411 c 0
423 1116 m 0
 423 1179 443 1213 486 1213 c 0
 529 1213 549 1180 549 1116 c 0
 549 1050 532 1013 486 1013 c 0
 440 1013 423 1052 423 1116 c 0
EndSplineSet
Validated: 1
EndChar

StartChar: egrave
Encoding: 232 232 187
Width: 821
VWidth: 0
Flags: W
HStem: -29 82<386.457 654.33> 444 48<241 493.183> 818 56<375.918 548.032>
VStem: 136 103<215.89 444 492 638.605> 638 102<514.309 744.288>
LayerCount: 2
Fore
SplineSet
241 492 m 1
 628 514 l 1
 637 531 638 579 638 605 c 0
 638 725 559 818 459 818 c 0
 329 818 241 701 241 492 c 1
136 411 m 0
 136 710 315 874 508 874 c 0
 654 874 740 793 740 582 c 0
 740 551 731 487 722 451 c 1
 239 444 l 1
 239 224 326 53 534 53 c 2
 537 53 l 2
 630 53 704 91 750 137 c 1
 767 104 l 1
 710 29 610 -29 477 -29 c 0
 287 -29 136 109 136 411 c 0
298 1307 m 1
 392 1344 l 1
 525 1008 l 1
 479 981 l 1
 298 1307 l 1
EndSplineSet
Validated: 1
EndChar

StartChar: eight
Encoding: 56 56 188
Width: 1000
VWidth: 0
Flags: W
HStem: -27 60<452.267 667.193> 1156 46<425.137 604.365>
VStem: 200 90<166.619 430.801> 245 75<837.905 1057.61> 746 80<765.871 1032.15> 791 89<134.892 359.031>
LayerCount: 2
Fore
SplineSet
320 955 m 0xd8
 320 846 381 783 597 634 c 1
 664 684 746 773 746 891 c 0
 746 1032 632 1156 526 1156 c 0
 410 1156 320 1082 320 955 c 0xd8
290 319 m 0xe4
 290 137 452 33 558 33 c 0
 707 33 791 118 791 230 c 0
 791 345 726 414 465 580 c 1
 378 526 290 430 290 319 c 0xe4
200 281 m 0
 200 394 274 513 426 605 c 1
 426 610 l 1
 299 698 245 797 245 914 c 0
 245 1073 360 1202 553 1202 c 0
 743 1202 826 1077 826 926 c 0xd8
 826 772 736 676 640 610 c 1
 639 607 l 1
 801 504 880 410 880 281 c 0
 880 98 702 -27 514 -27 c 0
 330 -27 200 109 200 281 c 0
EndSplineSet
Validated: 8388609
EndChar

StartChar: eight.osf
Encoding: 65539 -1 189
Width: 825
VWidth: 0
Flags: W
HStem: -27 60<330.8 545.886> 1156 46<307.479 482.943>
VStem: 79 91<166.619 424.643> 125 75<835.346 1057.61> 626 78<768.501 1029.04> 672 86<137.005 356.307>
LayerCount: 2
Fore
SplineSet
200 955 m 0xd8
 200 846 260 783 476 634 c 1
 543 684 626 773 626 891 c 0
 626 1032 511 1156 405 1156 c 0
 289 1156 200 1082 200 955 c 0xd8
170 319 m 0xe4
 170 137 332 33 438 33 c 0
 587 33 672 118 672 230 c 0
 672 345 606 414 345 580 c 1
 258 526 170 450 170 319 c 0xe4
79 281 m 0
 79 394 161 506 306 605 c 1
 306 610 l 1
 179 698 125 797 125 914 c 0
 125 1073 238 1202 431 1202 c 0
 621 1202 704 1077 704 926 c 0xd8
 704 772 613 676 517 610 c 1
 516 607 l 1
 678 504 758 410 758 281 c 0
 758 98 579 -27 391 -27 c 0
 207 -27 79 109 79 281 c 0
EndSplineSet
Validated: 8388609
EndChar

StartChar: ellipsis
Encoding: 8230 8230 190
Width: 1534
VWidth: 0
Flags: W
HStem: -33 200<260.212 371.788 706.212 817.788 1178.21 1289.79>
VStem: 253 126<-30.197 164.529> 699 126<-30.197 164.529> 1171 126<-30.197 164.529>
LayerCount: 2
Fore
SplineSet
699 70 m 0
 699 133 719 167 762 167 c 0
 805 167 825 134 825 70 c 0
 825 4 808 -33 762 -33 c 0
 716 -33 699 6 699 70 c 0
1171 70 m 0
 1171 133 1191 167 1234 167 c 0
 1277 167 1297 134 1297 70 c 0
 1297 4 1280 -33 1234 -33 c 0
 1188 -33 1171 6 1171 70 c 0
253 70 m 0
 253 133 273 167 316 167 c 0
 359 167 379 134 379 70 c 0
 379 4 362 -33 316 -33 c 0
 270 -33 253 6 253 70 c 0
EndSplineSet
Validated: 1
EndChar

StartChar: emacron
Encoding: 275 275 191
Width: 821
VWidth: 0
Flags: W
HStem: -29 82<386.457 654.33> 444 48<241 493.183> 818 56<375.918 548.032> 1017 52<263 695>
VStem: 136 103<215.89 444 492 638.605> 638 102<514.309 744.288>
LayerCount: 2
Fore
SplineSet
241 492 m 1
 628 514 l 1
 637 531 638 579 638 605 c 0
 638 725 559 818 459 818 c 0
 329 818 241 701 241 492 c 1
136 411 m 0
 136 710 315 874 508 874 c 0
 654 874 740 793 740 582 c 0
 740 551 731 487 722 451 c 1
 239 444 l 1
 239 224 326 53 534 53 c 2
 537 53 l 2
 630 53 704 91 750 137 c 1
 767 104 l 1
 710 29 610 -29 477 -29 c 0
 287 -29 136 109 136 411 c 0
254 1017 m 1
 263 1069 l 1
 703 1069 l 1
 695 1017 l 1
 254 1017 l 1
EndSplineSet
Validated: 8388609
EndChar

StartChar: emdash
Encoding: 8212 8212 192
Width: 1297
VWidth: 0
Flags: W
HStem: 430 63<98 1205>
LayerCount: 2
Fore
SplineSet
85 430 m 1
 98 493 l 1
 1217 498 l 1
 1205 437 l 1
 85 430 l 1
EndSplineSet
Validated: 1
EndChar

StartChar: emptyset
Encoding: 8709 8709 193
Width: 985
VWidth: 0
Flags: W
HStem: -37 64<338.81 638.568> 861 70<329.606 635.281>
VStem: 24 87<240.961 631.183> 848 88<235.977 653.28>
DStem2: 169 212 199 167 0.745441 0.666572<0 778.479>
LayerCount: 2
Fore
SplineSet
24 444 m 0
 24 698 249 931 482 931 c 0
 619 931 730 879 808 795 c 1
 895 889 l 1
 945 813 l 1
 852 741 l 1
 907 659 936 556 936 444 c 0
 936 187 761 -37 483 -37 c 0
 349 -37 230 15 146 106 c 1
 53 9 l 1
 3 87 l 1
 102 163 l 1
 52 239 24 334 24 444 c 0
785 691 m 1
 199 167 l 1
 271 75 378 27 484 27 c 0
 695 27 848 165 848 444 c 0
 848 544 824 626 785 691 c 1
753 736 m 1
 684 818 586 861 482 861 c 0
 271 861 111 698 111 444 c 0
 111 352 133 274 169 212 c 1
 753 736 l 1
EndSplineSet
Validated: 1
EndChar

StartChar: endash
Encoding: 8211 8211 194
Width: 788
VWidth: 0
Flags: W
HStem: 430 63<97 697>
VStem: 85 621
LayerCount: 2
Fore
SplineSet
85 430 m 1
 97 493 l 1
 706 498 l 1
 697 437 l 1
 85 430 l 1
EndSplineSet
Validated: 1
EndChar

StartChar: eng
Encoding: 331 331 195
Width: 967
VWidth: 0
Flags: W
HStem: 0 31<127 211.913 437.703 510> 801 79<536.141 752.364> 815 28<129 208.768>
VStem: 281 93<57 703.469 717 788> 819 95<-118.066 734.994>
LayerCount: 2
Fore
SplineSet
120 0 m 1xd8
 127 31 l 1
 281 57 l 1
 281 788 l 1
 127 815 l 1
 129 843 l 1xb8
 363 863 l 1
 369 854 l 1
 365 717 l 1
 372 717 l 1
 418 778 552 880 693 880 c 0
 811 880 914 802 914 584 c 2
 914 149 l 1
 913 -101 824 -259 691 -353 c 1
 646 -384 l 1
 614 -335 l 1
 722 -253 819 -122 819 149 c 2
 819 559 l 2
 819 736 738 801 653 801 c 0
 535 801 479 765 374 665 c 1
 374 57 l 1
 516 36 l 1
 510 0 l 1
 120 0 l 1xd8
EndSplineSet
Validated: 8388609
EndChar

StartChar: eogonek
Encoding: 281 281 196
Width: 821
VWidth: 0
Flags: W
HStem: -387 34<651.495 656.914> -29 82<386.457 536.109> 444 48<241 493.183> 818 56<375.918 548.032>
VStem: 136 103<215.89 444 492 638.605> 437 98<-278.248 -88.6688> 638 102<514.309 744.288>
LayerCount: 2
Fore
SplineSet
241 492 m 1
 628 514 l 1
 637 531 638 579 638 605 c 0
 638 725 559 818 459 818 c 0
 329 818 241 701 241 492 c 1
136 411 m 0
 136 710 315 874 508 874 c 0
 654 874 740 793 740 582 c 0
 740 551 731 487 722 451 c 1
 239 444 l 1
 239 224 326 53 534 53 c 2
 537 53 l 2
 630 53 704 91 750 137 c 1
 767 104 l 1
 730 56 675 14 605 -9 c 1
 549 -81 535 -123 535 -166 c 0
 535 -248 585 -300 676 -353 c 1
 643 -387 l 1
 499 -372 437 -294 437 -209 c 0
 437 -161 454 -108 537 -25 c 1
 518 -28 498 -29 477 -29 c 0
 287 -29 136 109 136 411 c 0
EndSplineSet
Validated: 8388609
EndChar

StartChar: equal
Encoding: 61 61 197
Width: 791
VWidth: 0
Flags: W
HStem: 340 65<94 698> 580 65<98 700>
VStem: 85 626
LayerCount: 2
Fore
SplineSet
85 580 m 1
 98 645 l 1
 711 645 l 1
 700 580 l 1
 85 580 l 1
82 340 m 1
 94 405 l 1
 709 405 l 1
 698 340 l 1
 82 340 l 1
EndSplineSet
Validated: 1
EndChar

StartChar: eth
Encoding: 240 240 198
Width: 949
VWidth: 0
Flags: W
HStem: -27 56<440.853 633.142> 893 56<390.983 576.655>
VStem: 160 101<221.865 721.023> 772 101<204.602 679.462>
DStem2: 347 1099 335 1048 0.979305 0.20239<0 210.237 317.021 437.436>
LayerCount: 2
Fore
SplineSet
261 498 m 0
 261 185 390 29 541 29 c 0
 695 29 772 210 772 425 c 0
 772 742 616 893 480 893 c 2
 476 893 l 1
 322 890 261 693 261 498 c 0
160 451 m 0
 160 747 280 949 492 949 c 0
 610 949 703 858 732 782 c 1
 739 783 l 1
 710 901 648 1012 584 1099 c 1
 335 1048 l 1
 347 1099 l 1
 553 1141 l 1
 489 1221 428 1276 401 1302 c 1
 467 1302 l 1
 525 1265 581 1216 632 1157 c 1
 794 1192 l 1
 785 1141 l 1
 667 1117 l 1
 785 963 873 745 873 465 c 0
 873 157 732 -27 517 -27 c 0
 274 -27 160 208 160 451 c 0
EndSplineSet
Validated: 1
EndChar

StartChar: exclam
Encoding: 33 33 199
Width: 481
VWidth: 0
Flags: W
HStem: -33 192<216.666 317.929>
VStem: 209 117<-30.9609 156.235 804.547 1289.61> 242 48<369 694.181>
LayerCount: 2
Fore
SplineSet
215 1251 m 2xa0
 215 1253 l 1
 224 1280 248 1294 284 1294 c 0
 311 1294 337 1284 337 1253 c 0
 337 1084 317 686 290 363 c 1
 284 358 l 1
 242 369 l 1
 242 372 l 1
 227 689 215 1141 215 1251 c 2xa0
209 66 m 0xc0
 209 120 232 159 266 159 c 0
 302 159 326 120 326 66 c 0
 326 8 312 -33 267 -33 c 0
 225 -33 209 12 209 66 c 0xc0
EndSplineSet
Validated: 8388609
EndChar

StartChar: exclamdown
Encoding: 161 161 200
Width: 481
VWidth: 0
Flags: W
HStem: 717 193<191.422 292.334>
VStem: 184 116<-412.008 68.7634 719.193 908.039> 221 46<217.721 509>
LayerCount: 2
Fore
SplineSet
184 809 m 0xc0
 184 867 198 910 243 910 c 0
 285 910 300 863 300 809 c 0
 300 755 277 717 243 717 c 0
 207 717 184 755 184 809 c 0xc0
172 -375 m 0
 172 -206 194 192 221 515 c 1
 227 517 l 1
 267 509 l 1
 267 507 l 1xa0
 282 190 296 -264 296 -374 c 2
 296 -375 l 1
 287 -402 262 -416 226 -416 c 0
 199 -416 172 -406 172 -375 c 0
EndSplineSet
Validated: 8388609
EndChar

StartChar: f
Encoding: 102 102 201
Width: 607
VWidth: 0
Flags: W
HStem: 0 30<118 192.152 502.699 609> 798 50<371 616> 798 35<132 222.577> 1241 63<474.437 630.007>
VStem: 268 103<61 798 855 1058.89>
LayerCount: 2
Fore
SplineSet
105 0 m 1xd8
 118 30 l 1
 268 59 l 1
 268 798 l 1
 120 798 l 1
 132 833 l 1xb8
 271 855 l 1
 297 1172 447 1304 589 1304 c 0
 695 1304 758 1251 758 1194 c 0
 758 1155 743 1134 710 1121 c 1
 674 1180 619 1241 532 1241 c 0
 450 1241 371 1146 371 982 c 2
 371 848 l 1
 627 848 l 1
 616 798 l 1
 371 798 l 1
 371 61 l 1
 616 39 l 1
 609 0 l 1
 105 0 l 1xd8
EndSplineSet
Validated: 8388609
EndChar

StartChar: f.alt2
Encoding: 65540 -1 202
Width: 607
VWidth: 0
Flags: W
HStem: 0 30<118 192.152 502.699 609> 798 50<371 616> 798 35<132 222.577> 1241 63<420.671 544.732>
VStem: 268 103<61 798 855 1125.61>
LayerCount: 2
Fore
SplineSet
105 0 m 1xd8
 118 30 l 1
 268 59 l 1
 268 798 l 1
 120 798 l 1
 132 833 l 1xb8
 271 855 l 1
 271 1190 407 1304 516 1304 c 0
 585 1304 641 1282 641 1225 c 0
 641 1186 625 1164 592 1151 c 1
 556 1210 521 1241 464 1241 c 0
 418 1241 371 1146 371 982 c 2
 371 848 l 1
 627 848 l 1
 616 798 l 1
 371 798 l 1
 371 61 l 1
 616 39 l 1
 609 0 l 1
 105 0 l 1xd8
EndSplineSet
Validated: 8388609
EndChar

StartChar: five
Encoding: 53 53 203
Width: 1000
VWidth: 0
Flags: W
HStem: -7 54<373.524 598.722> 1081 117<585.748 797>
VStem: 200 48<236.312 340> 744 119<206.311 468.903>
DStem2: 274 677 363 779 0.21923 0.975673<119.03 407.302>
LayerCount: 2
Fore
SplineSet
169 103 m 1
 200 351 l 1
 248 340 l 1
 263 154 l 1
 330 84 409 47 489 47 c 0
 649 47 744 159 744 325 c 0
 744 525 537 662 274 677 c 1
 385 1171 l 1
 813 1198 l 1
 797 1081 l 1
 414 1063 l 1
 363 779 l 1
 686 755 863 591 863 383 c 0
 863 172 691 -7 446 -7 c 0
 346 -7 253 27 169 103 c 1
EndSplineSet
Validated: 1
EndChar

StartChar: five.osf
Encoding: 65541 -1 204
Width: 1000
VWidth: 0
Flags: W
HStem: -297 62<164.214 413.357> -35 20G<24 66>
VStem: -43 91<-128.948 -82.7604> 571 117<-69.0278 219.699>
DStem2: 120 401 206 503 0.165963 0.986132<114.858 420.812> 206 912 261 804 0.996758 0.0804558<46.1325 421.092>
LayerCount: 2
Fore
SplineSet
-43 -136 m 0
 -43 -89 0 -18 48 -15 c 1
 84 -157 153 -235 283 -235 c 0
 413 -235 571 -147 571 64 c 0
 571 264 394 382 120 401 c 1
 206 912 l 1
 652 948 l 1
 635 831 l 1
 261 804 l 1
 206 503 l 1
 490 479 688 347 688 120 c 0
 688 -123 506 -297 243 -297 c 0
 116 -297 -43 -249 -43 -136 c 0
EndSplineSet
Validated: 1
EndChar

StartChar: four
Encoding: 52 52 205
Width: 1000
VWidth: 0
Flags: W
HStem: 1 46<350 452.167 805.112 905> 372 72<208 604 713 952>
VStem: 607 106<73 369 444 984>
DStem2: 98 398 208 444 0.598863 0.800852<102.714 772.324>
LayerCount: 2
Fore
SplineSet
208 444 m 1
 604 444 l 1
 604 984 l 1
 208 444 l 1
98 398 m 1
 688 1187 l 1
 722 1175 l 1
 715 1057 713 865 713 683 c 2
 713 444 l 1
 969 444 l 1
 952 369 l 1
 713 369 l 1
 713 66 l 1
 915 47 l 1
 905 1 l 1
 342 1 l 1
 350 43 l 1
 607 73 l 1
 607 372 l 1
 112 372 l 1
 98 398 l 1
EndSplineSet
Validated: 1
EndChar

StartChar: four.osf
Encoding: 65542 -1 206
Width: 948
VWidth: 0
Flags: W
HStem: 127 73<222 612 721 961>
VStem: 616 105<-271 125 200 751>
DStem2: 106 154 222 200 0.587699 0.809079<105.391 780.396>
LayerCount: 2
Fore
SplineSet
222 200 m 1
 612 200 l 1
 612 751 l 1
 222 200 l 1
106 154 m 1
 698 969 l 1
 732 958 l 1
 725 840 721 658 721 476 c 2
 721 200 l 1
 976 200 l 1
 961 125 l 1
 721 125 l 1
 721 -271 l 1
 616 -297 l 1
 616 127 l 1
 121 127 l 1
 106 154 l 1
EndSplineSet
Validated: 1
EndChar

StartChar: fraction
Encoding: 8260 8260 207
Width: 1739
VWidth: 0
Flags: W
DStem2: 205 -43 306 -47 0.46656 0.88449<43.5846 1418.9>
LayerCount: 2
Fore
SplineSet
205 -43 m 1
 551 588 l 1
 867 1212 l 1
 964 1207 l 1
 964 1206 l 1
 630 591 l 1
 306 -47 l 1
 205 -43 l 1
EndSplineSet
Validated: 1
EndChar

StartChar: g
Encoding: 103 103 208
Width: 840
VWidth: 0
Flags: W
HStem: -387 68<281.154 590.881> 31 83<264.285 724.639> 281 56<362.602 538.203> 827 46<348.409 511.947>
VStem: 76 96<-240.811 -56.0943> 160 90<131.941 239.999 437.855 724.734> 622 95<430.182 732.53> 750 87<-194.181 1.61264>
LayerCount: 2
Fore
SplineSet
251 589 m 0xf3
 251 471 328 337 453 337 c 0
 541 337 622 410 622 551 c 0
 622 705 544 827 438 827 c 0
 304 827 251 720 251 589 c 0xf3
172 -123 m 0xfb
 172 -259 285 -319 484 -319 c 0
 611 -319 750 -248 750 -115 c 0
 750 -27 747 31 559 31 c 2
 307 31 l 1
 307 31 172 -13 172 -123 c 0xfb
76 -169 m 0
 76 -56 184 3 256 39 c 1
 256 44 l 1
 210 64 160 103 160 160 c 0
 160 206 227 269 297 317 c 1
 245 343 159 429 159 565 c 0
 159 731 290 873 462 873 c 0
 522 873 582 845 633 809 c 1
 648 809 858 826 858 826 c 1
 868 813 l 1
 837 734 l 1
 829 732 l 1
 670 772 l 1
 665 768 l 1
 682 744 717 648 717 576 c 0
 717 416 569 281 426 281 c 0
 386 281 342 294 330 300 c 1
 294 266 250 234 250 195 c 0xf7
 250 131 324 114 406 114 c 2
 576 113 l 2
 748 112 841 98 837 -64 c 0
 832 -236 642 -387 406 -387 c 0
 198 -387 76 -294 76 -169 c 0
EndSplineSet
Validated: 8388641
EndChar

StartChar: gbreve
Encoding: 287 287 209
Width: 840
VWidth: 0
Flags: W
HStem: -387 68<281.154 590.881> 31 83<264.285 724.639> 281 56<362.602 538.203> 827 46<348.409 511.947> 1012 75<364.933 552.36>
VStem: 76 96<-240.811 -56.0943> 160 90<131.941 239.999 437.855 724.734> 267 30<1187.77 1201.47> 622 95<430.182 732.53> 750 87<-194.181 1.61264>
LayerCount: 2
Fore
SplineSet
251 589 m 0xf9c0
 251 471 328 337 453 337 c 0
 541 337 622 410 622 551 c 0
 622 705 544 827 438 827 c 0
 304 827 251 720 251 589 c 0xf9c0
172 -123 m 0xfdc0
 172 -259 285 -319 484 -319 c 0
 611 -319 750 -248 750 -115 c 0
 750 -27 747 31 559 31 c 2
 307 31 l 1
 307 31 172 -13 172 -123 c 0xfdc0
76 -169 m 0
 76 -56 184 3 256 39 c 1
 256 44 l 1
 210 64 160 103 160 160 c 0
 160 206 227 269 297 317 c 1
 245 343 159 429 159 565 c 0
 159 731 290 873 462 873 c 0
 522 873 582 845 633 809 c 1
 648 809 858 826 858 826 c 1
 868 813 l 1
 837 734 l 1
 829 732 l 1
 670 772 l 1
 665 768 l 1
 682 744 717 648 717 576 c 0
 717 416 569 281 426 281 c 0
 386 281 342 294 330 300 c 1
 294 266 250 234 250 195 c 0xfbc0
 250 131 324 114 406 114 c 2
 576 113 l 2
 748 112 841 98 837 -64 c 0
 832 -236 642 -387 406 -387 c 0
 198 -387 76 -294 76 -169 c 0
267 1190 m 1
 297 1214 l 1
 321 1168 373 1087 457 1087 c 0
 544 1087 599 1166 626 1216 c 1
 649 1195 l 1
 620 1107 567 1012 457 1012 c 0
 339 1012 289 1103 267 1190 c 1
EndSplineSet
Validated: 8388641
EndChar

StartChar: gcommaaccent
Encoding: 291 291 210
Width: 840
VWidth: 0
Flags: W
HStem: -387 68<281.154 590.881> 31 83<264.285 724.639> 281 56<362.602 538.203> 827 46<348.409 511.947> 992 66<450.054 504.086> 1260 37<502.984 546.199>
VStem: 76 96<-240.811 -56.0943> 160 90<131.941 239.999 437.855 724.734> 354 76<1077.56 1215.09> 622 95<430.182 732.53> 750 87<-194.181 1.61264>
LayerCount: 2
Fore
SplineSet
251 589 m 0xfce0
 251 471 328 337 453 337 c 0
 541 337 622 410 622 551 c 0
 622 705 544 827 438 827 c 0
 304 827 251 720 251 589 c 0xfce0
172 -123 m 0xfee0
 172 -259 285 -319 484 -319 c 0
 611 -319 750 -248 750 -115 c 0
 750 -27 747 31 559 31 c 2
 307 31 l 1
 307 31 172 -13 172 -123 c 0xfee0
76 -169 m 0
 76 -56 184 3 256 39 c 1
 256 44 l 1
 210 64 160 103 160 160 c 0
 160 206 227 269 297 317 c 1
 245 343 159 429 159 565 c 0
 159 731 290 873 462 873 c 0
 522 873 582 845 633 809 c 1
 648 809 858 826 858 826 c 1
 868 813 l 1
 837 734 l 1
 829 732 l 1
 670 772 l 1
 665 768 l 1
 682 744 717 648 717 576 c 0
 717 416 569 281 426 281 c 0
 386 281 342 294 330 300 c 1
 294 266 250 234 250 195 c 0xfde0
 250 131 324 114 406 114 c 2
 576 113 l 2
 748 112 841 98 837 -64 c 0
 832 -236 642 -387 406 -387 c 0
 198 -387 76 -294 76 -169 c 0
556 1260 m 1
 477 1241 430 1201 430 1148 c 0
 430 1083 478 1062 535 1058 c 1
 535 1028 504 992 458 992 c 0
 401 992 354 1034 354 1113 c 0
 354 1176 399 1270 540 1297 c 1
 556 1260 l 1
EndSplineSet
Validated: 8388641
EndChar

StartChar: gdotaccent
Encoding: 289 289 211
Width: 840
VWidth: 0
Flags: W
HStem: -387 68<281.154 590.881> 31 83<264.285 724.639> 281 56<362.602 538.203> 827 46<348.409 511.947> 983 200<397.212 508.788>
VStem: 76 96<-240.811 -56.0943> 160 90<131.941 239.999 437.855 724.734> 390 126<985.803 1180.53> 622 95<430.182 732.53> 750 87<-194.181 1.61264>
LayerCount: 2
Fore
SplineSet
390 1086 m 0xf9c0
 390 1149 410 1183 453 1183 c 0
 496 1183 516 1150 516 1086 c 0
 516 1020 499 983 453 983 c 0
 407 983 390 1022 390 1086 c 0xf9c0
251 589 m 0
 251 471 328 337 453 337 c 0
 541 337 622 410 622 551 c 0
 622 705 544 827 438 827 c 0
 304 827 251 720 251 589 c 0
172 -123 m 0xfdc0
 172 -259 285 -319 484 -319 c 0
 611 -319 750 -248 750 -115 c 0
 750 -27 747 31 559 31 c 2
 307 31 l 1
 307 31 172 -13 172 -123 c 0xfdc0
76 -169 m 0
 76 -56 184 3 256 39 c 1
 256 44 l 1
 210 64 160 103 160 160 c 0
 160 206 227 269 297 317 c 1
 245 343 159 429 159 565 c 0
 159 731 290 873 462 873 c 0
 522 873 582 845 633 809 c 1
 648 809 858 826 858 826 c 1
 868 813 l 1
 837 734 l 1
 829 732 l 1
 670 772 l 1
 665 768 l 1
 682 744 717 648 717 576 c 0
 717 416 569 281 426 281 c 0
 386 281 342 294 330 300 c 1
 294 266 250 234 250 195 c 0xfbc0
 250 131 324 114 406 114 c 2
 576 113 l 2
 748 112 841 98 837 -64 c 0
 832 -236 642 -387 406 -387 c 0
 198 -387 76 -294 76 -169 c 0
EndSplineSet
Validated: 8388641
EndChar

StartChar: germandbls
Encoding: 223 223 212
Width: 1144
VWidth: 0
Flags: W
HStem: -36 51<704.898 906.25> 0 30<118 192.152> 824 34<132 222.577> 1241 61<466.173 658.415>
VStem: 268 103<59 824 880 1092.25> 517 80<117.84 221.541> 576 79<579.064 758.017> 776 97<927.763 1147.97> 982 88<72.8547 245.435>
LayerCount: 2
Fore
SplineSet
105 0 m 1x7b80
 118 30 l 1
 268 59 l 1
 268 824 l 1
 120 824 l 1
 132 858 l 1
 271 880 l 1
 283 1118 385 1302 602 1302 c 0
 740 1302 873 1215 873 1055 c 0
 873 895 655 780 655 680 c 0x7b80
 655 469 1070 422 1070 205 c 0
 1070 56 937 -36 783 -36 c 0
 642 -36 517 47 517 174 c 0
 517 231 561 254 597 263 c 1
 623 87 677 15 813 15 c 0xbd80
 913 15 982 88 982 154 c 0
 982 326 576 383 576 625 c 0
 576 812 776 873 776 1027 c 0
 776 1145 661 1241 553 1241 c 0
 430 1241 371 1121 371 982 c 2
 371 0 l 1
 105 0 l 1x7b80
EndSplineSet
Validated: 8388609
EndChar

StartChar: grave
Encoding: 96 96 213
Width: 623
VWidth: 0
Flags: W
HStem: 1335 363
VStem: 177 227
LayerCount: 2
Fore
SplineSet
177 1661 m 1
 271 1698 l 1
 404 1362 l 1
 358 1335 l 1
 177 1661 l 1
EndSplineSet
Validated: 1
EndChar

StartChar: greater
Encoding: 62 62 214
Width: 680
VWidth: 0
Flags: W
VStem: 75 574
LayerCount: 2
Fore
SplineSet
75 -37 m 1
 515 444 l 1
 94 926 l 1
 110 973 l 1
 649 456 l 1
 651 426 l 1
 97 -82 l 1
 75 -37 l 1
EndSplineSet
Validated: 1
EndChar

StartChar: greaterequal
Encoding: 8805 8805 215
Width: 713
VWidth: 0
Flags: W
HStem: -247 64<84 678>
VStem: 67 628
LayerCount: 2
Fore
SplineSet
108 -37 m 1
 548 444 l 1
 127 926 l 1
 143 973 l 1
 682 456 l 1
 684 426 l 1
 130 -82 l 1
 108 -37 l 1
67 -247 m 1
 84 -183 l 1
 695 -183 l 1
 678 -247 l 1
 67 -247 l 1
EndSplineSet
Validated: 8388609
EndChar

StartChar: guillemotleft
Encoding: 171 171 216
Width: 717
VWidth: 0
Flags: W
VStem: 79 543
LayerCount: 2
Fore
SplineSet
326 469 m 1
 594 822 l 1
 622 786 l 1
 434 462 l 1
 621 116 l 1
 589 78 l 1
 329 449 l 1
 326 469 l 1
79 469 m 1
 347 822 l 1
 375 786 l 1
 187 462 l 1
 374 116 l 1
 342 78 l 1
 82 449 l 1
 79 469 l 1
EndSplineSet
Validated: 8388609
EndChar

StartChar: guillemotright
Encoding: 187 187 217
Width: 717
VWidth: 0
Flags: W
VStem: 100 542
LayerCount: 2
Fore
SplineSet
395 469 m 1
 392 449 l 1
 132 78 l 1
 100 116 l 1
 287 462 l 1
 99 786 l 1
 127 822 l 1
 395 469 l 1
642 469 m 1
 639 449 l 1
 379 78 l 1
 347 116 l 1
 534 462 l 1
 346 786 l 1
 374 822 l 1
 642 469 l 1
EndSplineSet
Validated: 8388609
EndChar

StartChar: guilsinglleft
Encoding: 8249 8249 218
Width: 468
VWidth: 0
Flags: W
VStem: 79 296
LayerCount: 2
Fore
SplineSet
79 469 m 1
 347 822 l 1
 375 786 l 1
 187 462 l 1
 374 116 l 1
 342 78 l 1
 82 449 l 1
 79 469 l 1
EndSplineSet
Validated: 1
EndChar

StartChar: guilsinglright
Encoding: 8250 8250 219
Width: 468
VWidth: 0
Flags: W
VStem: -144 295
LayerCount: 2
Fore
SplineSet
151 469 m 1
 148 449 l 1
 -112 78 l 1
 -144 116 l 1
 43 462 l 1
 -145 786 l 1
 -117 822 l 1
 151 469 l 1
EndSplineSet
Validated: 1
EndChar

StartChar: h
Encoding: 104 104 220
Width: 1062
VWidth: 0
Flags: W
HStem: 0 34<111 193.15 429.252 498 661 742.176 953.824 1029> 802 78<521.029 734.024> 1221 31<118 182.755>
VStem: 265 98<59 710.499 721 1190> 804 91<57 733.817>
LayerCount: 2
Fore
SplineSet
100 0 m 1
 111 34 l 1
 265 59 l 1
 265 1190 l 1
 112 1221 l 1
 118 1252 l 1
 356 1272 l 1
 363 1262 l 1
 363 826 l 1
 353 721 l 1
 358 721 l 1
 433 801 554 880 672 880 c 0
 810 880 895 788 895 576 c 2
 895 57 l 1
 1035 37 l 1
 1029 0 l 1
 655 0 l 1
 661 33 l 1
 801 57 l 1
 804 549 l 1
 804 555 l 2
 804 734 730 802 628 802 c 0
 507 802 433 746 363 664 c 1
 363 59 l 1
 505 36 l 1
 498 0 l 1
 100 0 l 1
EndSplineSet
Validated: 1
EndChar

StartChar: hbar
Encoding: 295 295 221
Width: 1062
VWidth: 0
Flags: W
HStem: 0 34<111 193.15 429.252 498 661 742.176 953.824 1029> 802 78<521.029 734.024> 993 52<97 265 363 672> 1221 31<118 182.755>
VStem: 265 98<59 710.499 721 993 1045 1190> 804 91<57 733.817>
LayerCount: 2
Fore
SplineSet
87 993 m 1
 97 1045 l 1
 265 1045 l 1
 265 1190 l 1
 112 1221 l 1
 118 1252 l 1
 356 1272 l 1
 363 1262 l 1
 363 1045 l 1
 680 1045 l 1
 672 993 l 1
 363 993 l 1
 363 826 l 1
 353 721 l 1
 358 721 l 1
 433 801 554 880 672 880 c 0
 810 880 895 788 895 576 c 2
 895 57 l 1
 1035 37 l 1
 1029 0 l 1
 655 0 l 1
 661 33 l 1
 801 57 l 1
 804 549 l 1
 804 555 l 2
 804 734 730 802 628 802 c 0
 507 802 433 746 363 664 c 1
 363 59 l 1
 505 36 l 1
 498 0 l 1
 100 0 l 1
 111 34 l 1
 265 59 l 1
 265 993 l 1
 87 993 l 1
EndSplineSet
Validated: 1
EndChar

StartChar: hungarumlaut
Encoding: 733 733 222
Width: 774
VWidth: 0
Flags: W
HStem: 1359 242
VStem: 133 522
LayerCount: 2
Fore
SplineSet
342 1392 m 1
 599 1591 l 1
 655 1527 l 1
 363 1359 l 1
 342 1392 l 1
133 1392 m 1
 393 1601 l 1
 453 1531 l 1
 154 1359 l 1
 133 1392 l 1
EndSplineSet
Validated: 1
EndChar

StartChar: hyphen
Encoding: 45 45 223
Width: 564
VWidth: 0
Flags: W
HStem: 419 61<92 406.153> 437 60<164.847 489>
VStem: 82 416
LayerCount: 2
Fore
SplineSet
82 419 m 1xa0
 92 480 l 1xa0
 498 497 l 1
 489 437 l 1x60
 82 419 l 1xa0
EndSplineSet
Validated: 8388609
EndChar

StartChar: i
Encoding: 105 105 224
Width: 570
VWidth: 0
Flags: W
HStem: 0 31<136 212.8 458.08 529> 816 27<136 211.336> 1091 199<274.144 386.182>
VStem: 267 126<1093.74 1287.01> 286 94<59 788>
LayerCount: 2
Fore
SplineSet
267 1193 m 0xf0
 267 1256 286 1290 329 1290 c 0
 372 1290 393 1257 393 1193 c 0
 393 1127 376 1091 330 1091 c 0
 284 1091 267 1129 267 1193 c 0xf0
123 0 m 1
 136 31 l 1
 286 59 l 1
 286 788 l 1
 133 816 l 1
 136 843 l 1
 372 863 l 1
 380 854 l 1
 380 59 l 1xe8
 540 33 l 1
 529 0 l 1
 123 0 l 1
EndSplineSet
Validated: 8388609
EndChar

StartChar: iacute
Encoding: 237 237 225
Width: 570
VWidth: 0
Flags: W
HStem: 0 31<136 212.8 458.08 529> 842 25<136 206.114>
VStem: 286 94<59 812>
LayerCount: 2
Fore
SplineSet
123 0 m 1
 136 31 l 1
 286 59 l 1
 286 812 l 1
 133 842 l 1
 136 867 l 1
 372 888 l 1
 380 880 l 1
 380 59 l 1
 540 33 l 1
 529 0 l 1
 123 0 l 1
260 1032 m 1
 392 1369 l 1
 488 1330 l 1
 305 1006 l 1
 260 1032 l 1
EndSplineSet
Validated: 8388609
EndChar

StartChar: icaron
Encoding: 464 464 226
Width: 570
VWidth: 0
Flags: W
HStem: 0 31<136 212.8 458.08 529> 842 25<136 206.114>
VStem: 286 94<59 812>
DStem2: 169 1248 114 1199 0.705134 -0.709074<0 236.886> 344 1079 349 1033 0.687087 0.726575<0 218.138>
LayerCount: 2
Fore
SplineSet
123 0 m 1
 136 31 l 1
 286 59 l 1
 286 812 l 1
 133 842 l 1
 136 867 l 1
 372 888 l 1
 380 880 l 1
 380 59 l 1
 540 33 l 1
 529 0 l 1
 123 0 l 1
114 1199 m 1
 169 1248 l 1
 335 1079 l 1
 344 1079 l 1
 487 1244 l 1
 523 1217 l 1
 349 1033 l 1
 293 1019 l 1
 114 1199 l 1
EndSplineSet
Validated: 8388609
EndChar

StartChar: icircumflex
Encoding: 238 238 227
Width: 570
VWidth: 0
Flags: W
HStem: 0 31<136 212.8 458.08 529> 842 25<136 206.114>
VStem: 286 94<59 812>
LayerCount: 2
Fore
SplineSet
123 0 m 1
 136 31 l 1
 286 59 l 1
 286 812 l 1
 133 842 l 1
 136 867 l 1
 372 888 l 1
 380 880 l 1
 380 59 l 1
 540 33 l 1
 529 0 l 1
 123 0 l 1
88 1050 m 1
 255 1231 l 1
 309 1244 l 1
 488 1058 l 1
 456 1021 l 1
 275 1156 l 1
 266 1156 l 1
 109 1020 l 1
 88 1050 l 1
EndSplineSet
Validated: 8388609
EndChar

StartChar: idieresis
Encoding: 239 239 228
Width: 570
VWidth: 0
Flags: W
HStem: 0 31<136 212.8 458.08 529> 842 25<136 206.114> 1030 159<131.518 236.932 400.344 505.141>
VStem: 128 113<1031.06 1187.7> 286 94<59 812> 397 112<1031.06 1187.7>
LayerCount: 2
Fore
SplineSet
123 0 m 1
 136 31 l 1
 286 59 l 1
 286 812 l 1
 133 842 l 1
 136 867 l 1
 372 888 l 1
 380 880 l 1
 380 59 l 1
 540 33 l 1
 529 0 l 1
 123 0 l 1
397 1111 m 0
 397 1161 412 1189 451 1189 c 0
 488 1189 509 1162 509 1111 c 0
 509 1058 494 1030 452 1030 c 0
 410 1030 397 1060 397 1111 c 0
128 1111 m 0
 128 1161 144 1189 183 1189 c 0
 220 1189 241 1162 241 1111 c 0
 241 1058 227 1030 185 1030 c 0
 143 1030 128 1060 128 1111 c 0
EndSplineSet
Validated: 1
EndChar

StartChar: igrave
Encoding: 236 236 229
Width: 570
VWidth: 0
Flags: W
HStem: 0 31<136 212.8 458.08 529> 842 25<136 206.114>
VStem: 286 94<59 812>
LayerCount: 2
Fore
SplineSet
123 0 m 1
 136 31 l 1
 286 59 l 1
 286 812 l 1
 133 842 l 1
 136 867 l 1
 372 888 l 1
 380 880 l 1
 380 59 l 1
 540 33 l 1
 529 0 l 1
 123 0 l 1
129 1323 m 1
 223 1360 l 1
 356 1024 l 1
 310 997 l 1
 129 1323 l 1
EndSplineSet
Validated: 8388609
EndChar

StartChar: imacron
Encoding: 299 299 230
Width: 570
VWidth: 0
Flags: W
HStem: 0 31<136 212.8 458.08 529> 842 25<136 206.114> 1042 52<76 508>
VStem: 286 94<59 812>
LayerCount: 2
Fore
SplineSet
123 0 m 1
 136 31 l 1
 286 59 l 1
 286 812 l 1
 133 842 l 1
 136 867 l 1
 372 888 l 1
 380 880 l 1
 380 59 l 1
 540 33 l 1
 529 0 l 1
 123 0 l 1
67 1042 m 1
 76 1094 l 1
 516 1094 l 1
 508 1042 l 1
 67 1042 l 1
EndSplineSet
Validated: 8388609
EndChar

StartChar: infinity
Encoding: 8734 8734 231
Width: 1389
VWidth: 0
Flags: W
HStem: 227 72<283.336 524.153 940.068 1143.28> 767 79<222.623 454.408 873.139 1113.62>
VStem: 66 61<440.224 653.298> 1251 43<423.332 599.074>
LayerCount: 2
Fore
SplineSet
726 592 m 1
 875 376 940 299 1049 299 c 0
 1176 299 1251 405 1251 521 c 0
 1251 627 1125 767 984 767 c 0
 866 767 776 659 726 592 c 1
127 554 m 0
 127 418 231 312 413 312 c 0
 524 312 619 376 673 463 c 1
 507 724 438 763 323 763 c 0
 211 763 127 703 127 554 c 0
66 508 m 0
 66 687 191 851 374 851 c 0
 503 851 597 796 700 634 c 1
 701 635 l 1
 767 731 865 846 1019 846 c 0
 1170 846 1294 738 1294 548 c 0
 1294 355 1165 227 1006 227 c 0
 889 227 789 298 701 425 c 1
 698 425 l 1
 606 273 487 221 374 221 c 0
 202 221 66 324 66 508 c 0
EndSplineSet
Validated: 1
EndChar

StartChar: integral
Encoding: 8747 8747 232
Width: 957
VWidth: 0
Flags: W
HStem: -383 66<203.431 366.404> 1241 63<656.976 818.248>
VStem: 464 101<-174.913 1110.31>
LayerCount: 2
Fore
SplineSet
75 -271 m 0
 75 -231 89 -209 123 -196 c 1
 160 -256 218 -317 306 -317 c 0
 388 -317 453 -219 464 -55 c 1
 464 880 l 2
 464 1180 638 1304 780 1304 c 0
 886 1304 951 1251 951 1194 c 0
 951 1155 934 1134 901 1121 c 1
 865 1180 808 1241 721 1241 c 0
 636 1241 562 1136 562 982 c 2
 565 46 l 2
 566 -228 395 -383 246 -383 c 0
 137 -383 75 -328 75 -271 c 0
EndSplineSet
Validated: 33
EndChar

StartChar: iogonek
Encoding: 303 303 233
Width: 570
VWidth: 0
Flags: W
HStem: -387 34<559.495 564.914> 0 31<136 212.8 458.08 471 509.907 529> 842 25<136 206.114> 1038 200<277.212 388.788>
VStem: 270 126<1040.8 1235.53> 286 94<59 812> 345 98<-278.248 -89.4588>
LayerCount: 2
Fore
SplineSet
123 0 m 1xf2
 136 31 l 1
 286 59 l 1
 286 812 l 1
 133 842 l 1
 136 867 l 1
 372 888 l 1
 380 880 l 1
 380 59 l 1xf4
 540 33 l 1
 529 0 l 1
 521 0 l 1
 459 -77 443 -122 443 -166 c 0
 443 -248 493 -300 584 -353 c 1
 551 -387 l 1
 407 -372 345 -294 345 -209 c 0
 345 -157 366 -98 471 0 c 1
 123 0 l 1xf2
270 1141 m 0xf8
 270 1204 290 1238 333 1238 c 0
 376 1238 396 1205 396 1141 c 0
 396 1075 379 1038 333 1038 c 0
 287 1038 270 1077 270 1141 c 0xf8
EndSplineSet
Validated: 8388609
EndChar

StartChar: j
Encoding: 106 106 234
Width: 456
VWidth: 0
Flags: W
HStem: 816 27<97 173.706> 1091 199<231.438 346.425>
VStem: 224 130<1094.31 1286.45> 245 95<-118.066 789>
LayerCount: 2
Fore
SplineSet
224 1193 m 0xe0
 224 1256 244 1290 287 1290 c 0
 330 1290 354 1257 354 1193 c 0
 354 1127 334 1091 288 1091 c 0
 242 1091 224 1129 224 1193 c 0xe0
42 -335 m 1
 150 -253 245 -122 245 149 c 2
 245 789 l 1
 93 816 l 1
 97 843 l 1
 333 863 l 1
 340 854 l 1
 340 151 l 2xd0
 340 -100 250 -258 118 -353 c 2
 75 -384 l 1
 42 -335 l 1
EndSplineSet
Validated: 8388609
EndChar

StartChar: k
Encoding: 107 107 235
Width: 982
VWidth: 0
Flags: W
HStem: -20 21G<830 902.5> 0 31<117 195.848 440.592 516 953.726 984> 818 34<582 635.213 868.8 936> 1223 28<118 193.635>
VStem: 271 92<59 1194>
DStem2: 399 442 493 459 0.672887 0.739745<75.8271 463.673> 493 459 399 425 0.637488 -0.770461<0 546.549>
LayerCount: 2
Fore
SplineSet
399 425 m 1xb8
 399 442 l 1
 711 785 l 1
 577 818 l 1
 582 852 l 1
 943 852 l 1
 936 818 l 1
 786 786 l 1
 493 459 l 1
 613 323 l 2
 789 123 825 61 952 46 c 1
 991 42 l 1
 984 0 l 1x78
 969 -6 925 -20 880 -20 c 0
 780 -20 736 19 562 228 c 2
 399 425 l 1xb8
108 0 m 1
 117 31 l 1
 271 59 l 1
 271 1194 l 1
 118 1223 l 1
 118 1251 l 1
 356 1271 l 1
 363 1262 l 1
 363 59 l 1
 522 33 l 1
 516 0 l 1
 108 0 l 1
EndSplineSet
Validated: 8388609
EndChar

StartChar: kcommaaccent
Encoding: 311 311 236
Width: 982
VWidth: 0
Flags: W
HStem: -390 37<504.801 548.016> -151 66<546.914 600.946> -20 21G<830 902.5> 0 31<117 195.848 440.592 516 953.726 984> 818 34<582 635.213 868.8 936> 1223 28<118 193.635>
VStem: 271 92<59 1194> 621 76<-308.093 -170.559>
DStem2: 399 442 493 459 0.672887 0.739745<75.8271 463.673> 493 459 399 425 0.637488 -0.770461<0 546.549>
LayerCount: 2
Fore
SplineSet
399 425 m 1xef
 399 442 l 1
 711 785 l 1
 577 818 l 1
 582 852 l 1
 943 852 l 1
 936 818 l 1
 786 786 l 1
 493 459 l 1
 613 323 l 2
 789 123 825 61 952 46 c 1
 991 42 l 1
 984 0 l 1xdf
 969 -6 925 -20 880 -20 c 0
 780 -20 736 19 562 228 c 2
 399 425 l 1xef
108 0 m 1
 117 31 l 1
 271 59 l 1
 271 1194 l 1
 118 1223 l 1
 118 1251 l 1
 356 1271 l 1
 363 1262 l 1
 363 59 l 1
 522 33 l 1
 516 0 l 1
 108 0 l 1
495 -353 m 1
 574 -334 621 -294 621 -241 c 0
 621 -176 573 -155 516 -151 c 1
 516 -121 547 -85 593 -85 c 0
 650 -85 697 -127 697 -206 c 0
 697 -269 652 -363 511 -390 c 1
 495 -353 l 1
EndSplineSet
Validated: 8388609
EndChar

StartChar: l
Encoding: 108 108 237
Width: 570
VWidth: 0
Flags: W
HStem: 0 31<118 196.336 442.056 514> 1223 28<118 193.635>
VStem: 271 92<59 1194>
LayerCount: 2
Fore
SplineSet
108 0 m 1
 118 31 l 1
 271 59 l 1
 271 1194 l 1
 118 1223 l 1
 118 1251 l 1
 354 1271 l 1
 363 1262 l 1
 363 59 l 1
 525 33 l 1
 514 0 l 1
 108 0 l 1
EndSplineSet
Validated: 1
EndChar

StartChar: lacute
Encoding: 314 314 238
Width: 570
VWidth: 0
Flags: W
HStem: 0 31<118 196.336 442.056 514> 1223 28<118 193.635>
VStem: 271 92<59 1194>
LayerCount: 2
Fore
SplineSet
108 0 m 1
 118 31 l 1
 271 59 l 1
 271 1194 l 1
 118 1223 l 1
 118 1251 l 1
 354 1271 l 1
 363 1262 l 1
 363 59 l 1
 525 33 l 1
 514 0 l 1
 108 0 l 1
254 1376 m 1
 386 1713 l 1
 482 1674 l 1
 299 1350 l 1
 254 1376 l 1
EndSplineSet
Validated: 8388609
EndChar

StartChar: lcaron
Encoding: 318 318 239
Width: 715
VWidth: 0
Flags: W
HStem: 0 31<118 196.336 442.056 514> 782 21G<429.667 539.5> 1175 106<473.646 572.197> 1223 28<118 193.635>
VStem: 271 92<59 1194> 601 100<930.827 1148.54>
LayerCount: 2
Fore
SplineSet
108 0 m 1xdc
 118 31 l 1
 271 59 l 1
 271 1194 l 1
 118 1223 l 1
 118 1251 l 1
 354 1271 l 1
 363 1262 l 1
 363 59 l 1
 525 33 l 1
 514 0 l 1
 108 0 l 1xdc
423 827 m 1
 566 884 601 951 601 1033 c 0
 601 1120 551 1175 492 1175 c 0
 483 1175 474 1175 465 1171 c 1
 462 1180 462 1181 462 1190 c 0
 462 1245 501 1281 558 1281 c 0xec
 634 1281 701 1210 701 1072 c 0
 701 978 644 848 435 782 c 1
 423 827 l 1
EndSplineSet
Validated: 8388609
EndChar

StartChar: lcommaaccent
Encoding: 316 316 240
Width: 570
VWidth: 0
Flags: W
HStem: -390 37<229.801 273.016> -151 66<271.914 325.946> 0 31<118 196.336 442.056 514> 1223 28<118 193.635>
VStem: 271 92<59 1194> 346 76<-308.093 -170.559>
LayerCount: 2
Fore
SplineSet
108 0 m 1xf8
 118 31 l 1
 271 59 l 1
 271 1194 l 1
 118 1223 l 1
 118 1251 l 1
 354 1271 l 1
 363 1262 l 1
 363 59 l 1
 525 33 l 1
 514 0 l 1
 108 0 l 1xf8
220 -353 m 1
 299 -334 346 -294 346 -241 c 0
 346 -176 298 -155 241 -151 c 1
 241 -121 272 -85 318 -85 c 0
 375 -85 422 -127 422 -206 c 0xf4
 422 -269 377 -363 236 -390 c 1
 220 -353 l 1
EndSplineSet
Validated: 8388609
EndChar

StartChar: less
Encoding: 60 60 241
Width: 680
VWidth: 0
Flags: W
VStem: 29 576
LayerCount: 2
Fore
SplineSet
605 -37 m 1
 583 -82 l 1
 29 426 l 1
 31 456 l 1
 570 973 l 1
 586 926 l 1
 165 444 l 1
 605 -37 l 1
EndSplineSet
Validated: 1
EndChar

StartChar: lessequal
Encoding: 8804 8804 242
Width: 713
VWidth: 0
Flags: W
HStem: -247 64<23 617>
VStem: 6 628
LayerCount: 2
Fore
SplineSet
608 -37 m 1
 586 -82 l 1
 32 426 l 1
 34 456 l 1
 573 973 l 1
 589 926 l 1
 168 444 l 1
 608 -37 l 1
6 -247 m 1
 23 -183 l 1
 634 -183 l 1
 617 -247 l 1
 6 -247 l 1
EndSplineSet
Validated: 8388609
EndChar

StartChar: logicalnot
Encoding: 172 172 243
Width: 951
VWidth: 0
Flags: W
HStem: 609 55<94 768>
VStem: 768 72<351 609>
LayerCount: 2
Fore
SplineSet
82 609 m 1
 94 664 l 1
 840 664 l 1
 840 351 l 1
 768 333 l 1
 768 609 l 1
 82 609 l 1
EndSplineSet
Validated: 1
EndChar

StartChar: lozenge
Encoding: 9674 9674 244
Width: 940
VWidth: 0
Flags: W
HStem: 224 493
VStem: 312 322
LayerCount: 2
Fore
SplineSet
312 474 m 1
 472 717 l 1
 634 472 l 1
 474 224 l 1
 312 474 l 1
EndSplineSet
Validated: 1
EndChar

StartChar: lslash
Encoding: 322 322 245
Width: 577
VWidth: 0
Flags: W
HStem: 0 31<118 196.336 442.056 514> 1223 28<118 193.635>
VStem: 271 92<59 591 732 1194>
DStem2: 131 558 118 475 0.8 0.6<0 131.8 290 408.8>
LayerCount: 2
Fore
SplineSet
118 475 m 1
 131 558 l 1
 271 663 l 1
 271 1194 l 1
 118 1223 l 1
 118 1251 l 1
 354 1271 l 1
 363 1262 l 1
 363 732 l 1
 507 840 l 1
 492 758 l 1
 363 660 l 1
 363 59 l 1
 525 33 l 1
 514 0 l 1
 108 0 l 1
 118 31 l 1
 271 59 l 1
 271 591 l 1
 118 475 l 1
EndSplineSet
Validated: 1
EndChar

StartChar: m
Encoding: 109 109 246
Width: 1597
VWidth: 0
Flags: W
HStem: 0 33<127 218.989 431.179 508 683 763.64 958.749 1029 1212 1293.24 1508.05 1577> 803 77<535.838 748.364 1058.91 1277.15> 816 27<129 205.848>
VStem: 281 93<57 707.099 716 788> 818 88<57 702.125> 1348 95<59 735.291>
LayerCount: 2
Fore
SplineSet
120 0 m 1xdc
 127 33 l 1
 281 57 l 1
 281 788 l 1
 127 816 l 1
 129 843 l 1xbc
 363 863 l 1
 369 855 l 1
 365 716 l 1
 372 716 l 1
 436 795 559 880 686 880 c 0
 796 880 872 819 891 716 c 1
 901 716 l 1
 962 792 1080 880 1207 880 c 0
 1392 880 1443 758 1443 586 c 2
 1443 59 l 1
 1588 40 l 1
 1577 3 l 1
 1207 3 l 1
 1212 33 l 1
 1348 57 l 1
 1348 559 l 2
 1348 728 1281 800 1163 800 c 0
 1050 800 952 708 906 660 c 1
 906 57 l 1
 1037 37 l 1
 1029 0 l 1
 677 0 l 1
 683 33 l 1
 818 57 l 1
 818 559 l 2
 818 702 764 803 643 803 c 0
 535 803 431 735 374 659 c 1
 374 57 l 1
 516 37 l 1
 508 0 l 1
 120 0 l 1xdc
EndSplineSet
Validated: 8388609
EndChar

StartChar: macron
Encoding: 175 175 247
Width: 697
VWidth: 0
Flags: W
HStem: 1380 52<133 565>
VStem: 124 449
LayerCount: 2
Fore
SplineSet
124 1380 m 1
 133 1432 l 1
 573 1432 l 1
 565 1380 l 1
 124 1380 l 1
EndSplineSet
Validated: 1
EndChar

StartChar: minus
Encoding: 8722 8722 248
Width: 788
VWidth: 0
Flags: W
HStem: 432 64<99 693>
VStem: 82 628
LayerCount: 2
Fore
SplineSet
82 432 m 1
 99 496 l 1
 710 496 l 1
 693 432 l 1
 82 432 l 1
EndSplineSet
Validated: 1
EndChar

StartChar: mu
Encoding: 956 956 249
Width: 1025
VWidth: 0
Flags: W
HStem: -24 83<397.087 615.994> -18 55<926 981.048> 816 27<91 161.069 591 663.069>
VStem: 227 90<-363 -324.441> 242 87<135.488 786> 744 91<69.3777 133 139.578 786>
LayerCount: 2
Fore
SplineSet
87 816 m 1xac
 91 843 l 1
 321 863 l 1
 329 854 l 1
 329 317 l 2
 329 140 395 59 516 59 c 0xac
 607 59 697 126 744 183 c 1
 744 786 l 1
 589 816 l 1
 591 843 l 1
 828 863 l 1
 835 854 l 1
 835 230 l 2
 835 131 839 65 926 50 c 1
 988 37 l 1
 982 3 l 1
 962 -6 922 -18 880 -18 c 0x6c
 798 -18 755 47 755 117 c 2
 755 133 l 1
 744 133 l 1
 675 31 562 -24 475 -24 c 0
 408 -24 338 0 308 60 c 1
 302 60 l 1
 305 42 303 -21 306 -85 c 2
 317 -389 l 1
 227 -363 l 1xb4
 230 -336 242 160 242 495 c 2
 242 786 l 1
 87 816 l 1xac
EndSplineSet
Validated: 8388609
EndChar

StartChar: multiply
Encoding: 215 215 250
Width: 955
VWidth: 0
Flags: W
HStem: 242 436
VStem: 63 450
DStem2: 63 294 109 236 0.738486 0.674269<0 0 304.738 547.571>
LayerCount: 2
Fore
SplineSet
63 294 m 1
 247 462 l 1
 65 630 l 1
 123 678 l 1
 287 496 l 1
 459 680 l 1
 505 622 l 1
 325 459 l 1
 513 287 l 1
 455 242 l 1
 284 425 l 1
 109 236 l 1
 63 294 l 1
EndSplineSet
Validated: 1
EndChar

StartChar: n
Encoding: 110 110 251
Width: 1082
VWidth: 0
Flags: W
HStem: 0 31<127 211.913 437.703 510 677 755.297 975.46 1048> 801 79<536.141 752.364> 815 28<129 208.768>
VStem: 281 93<57 703.469 717 788> 819 95<57 734.994>
LayerCount: 2
Fore
SplineSet
120 0 m 1xd8
 127 31 l 1
 281 57 l 1
 281 788 l 1
 127 815 l 1
 129 843 l 1xb8
 363 863 l 1
 369 854 l 1
 365 717 l 1
 372 717 l 1
 418 778 552 880 693 880 c 0
 811 880 914 802 914 584 c 2
 914 57 l 1
 1051 37 l 1
 1048 0 l 1
 671 0 l 1
 677 31 l 1
 819 57 l 1
 819 559 l 2
 819 736 738 801 653 801 c 0
 535 801 479 765 374 665 c 1
 374 57 l 1
 516 36 l 1
 510 0 l 1
 120 0 l 1xd8
EndSplineSet
Validated: 8388609
EndChar

StartChar: nacute
Encoding: 324 324 252
Width: 1082
VWidth: 0
Flags: W
HStem: 0 31<127 211.913 437.703 510 677 755.297 975.46 1048> 801 79<536.141 752.364> 815 28<129 208.768>
VStem: 281 93<57 703.469 717 788> 819 95<57 734.994>
LayerCount: 2
Fore
SplineSet
120 0 m 1xd8
 127 31 l 1
 281 57 l 1
 281 788 l 1
 127 815 l 1
 129 843 l 1xb8
 363 863 l 1
 369 854 l 1
 365 717 l 1
 372 717 l 1
 418 778 552 880 693 880 c 0
 811 880 914 802 914 584 c 2
 914 57 l 1
 1051 37 l 1
 1048 0 l 1
 671 0 l 1
 677 31 l 1
 819 57 l 1
 819 559 l 2
 819 736 738 801 653 801 c 0
 535 801 479 765 374 665 c 1
 374 57 l 1
 516 36 l 1
 510 0 l 1
 120 0 l 1xd8
510 1007 m 1
 642 1344 l 1
 738 1305 l 1
 555 981 l 1
 510 1007 l 1
EndSplineSet
Validated: 8388609
EndChar

StartChar: ncaron
Encoding: 328 328 254
Width: 1082
VWidth: 0
Flags: W
HStem: 0 31<127 211.913 437.703 510 677 755.297 975.46 1048> 801 79<536.141 752.364> 815 28<129 208.768>
VStem: 281 93<57 703.469 717 788> 819 95<57 734.994>
DStem2: 426 1223 371 1174 0.705134 -0.709074<0 236.886> 601 1054 606 1008 0.687087 0.726575<0 218.138>
LayerCount: 2
Fore
SplineSet
120 0 m 1xd8
 127 31 l 1
 281 57 l 1
 281 788 l 1
 127 815 l 1
 129 843 l 1xb8
 363 863 l 1
 369 854 l 1
 365 717 l 1
 372 717 l 1
 418 778 552 880 693 880 c 0
 811 880 914 802 914 584 c 2
 914 57 l 1
 1051 37 l 1
 1048 0 l 1
 671 0 l 1
 677 31 l 1
 819 57 l 1
 819 559 l 2
 819 736 738 801 653 801 c 0
 535 801 479 765 374 665 c 1
 374 57 l 1
 516 36 l 1
 510 0 l 1
 120 0 l 1xd8
371 1174 m 1
 426 1223 l 1
 592 1054 l 1
 601 1054 l 1
 744 1219 l 1
 780 1192 l 1
 606 1008 l 1
 550 994 l 1
 371 1174 l 1
EndSplineSet
Validated: 8388609
EndChar

StartChar: ncommaaccent
Encoding: 326 326 255
Width: 1082
VWidth: 0
Flags: W
HStem: -390 37<490.801 534.016> -151 66<532.914 586.946> 0 31<127 211.913 437.703 510 677 755.297 975.46 1048> 801 79<536.141 752.364> 815 28<129 208.768>
VStem: 281 93<57 703.469 717 788> 607 76<-308.093 -170.559> 819 95<57 734.994>
LayerCount: 2
Fore
SplineSet
120 0 m 1xf7
 127 31 l 1
 281 57 l 1
 281 788 l 1
 127 815 l 1
 129 843 l 1xef
 363 863 l 1
 369 854 l 1
 365 717 l 1
 372 717 l 1
 418 778 552 880 693 880 c 0
 811 880 914 802 914 584 c 2
 914 57 l 1
 1051 37 l 1
 1048 0 l 1
 671 0 l 1
 677 31 l 1
 819 57 l 1
 819 559 l 2
 819 736 738 801 653 801 c 0
 535 801 479 765 374 665 c 1
 374 57 l 1
 516 36 l 1
 510 0 l 1
 120 0 l 1xf7
481 -353 m 1
 560 -334 607 -294 607 -241 c 0
 607 -176 559 -155 502 -151 c 1
 502 -121 533 -85 579 -85 c 0
 636 -85 683 -127 683 -206 c 0
 683 -269 638 -363 497 -390 c 1
 481 -353 l 1
EndSplineSet
Validated: 8388609
EndChar

StartChar: nine
Encoding: 57 57 256
Width: 1000
VWidth: 0
Flags: W
HStem: -27 42<269.221 308.661> 478 77<415.482 651.567> 1157 50<411.585 610.089>
VStem: 172 116<683.122 1011.61> 768 118<572.311 999.932>
LayerCount: 2
Fore
SplineSet
288 860 m 0
 288 686 388 555 548 555 c 0
 657 555 732 604 758 640 c 1
 767 683 768 743 768 779 c 0
 768 1024 642 1157 519 1157 c 0
 365 1157 288 1048 288 860 c 0
172 833 m 0
 172 1039 326 1207 543 1207 c 0
 798 1207 886 989 886 756 c 0
 886 421 648 46 274 -27 c 1
 260 15 l 1
 583 112 714 377 754 577 c 1
 747 577 l 1
 687 531 611 478 475 478 c 0
 280 478 172 651 172 833 c 0
EndSplineSet
Validated: 1
EndChar

StartChar: nine.osf
Encoding: 65543 -1 257
Width: 814
VWidth: 0
Flags: W
HStem: 215 77<308.428 534.822> 895 50<308.068 486.139>
VStem: 79 118<407.066 756.326> 632 120<315.388 751.819>
LayerCount: 2
Fore
SplineSet
197 597 m 0
 197 423 279 292 430 292 c 0
 533 292 598 336 625 372 c 1
 632 408 632 480 632 516 c 0
 632 761 525 895 402 895 c 0
 264 895 197 785 197 597 c 0
79 571 m 0
 79 777 220 945 426 945 c 0
 681 945 752 734 752 501 c 0
 752 166 501 -144 166 -261 c 1
 144 -217 l 1
 425 -81 562 106 622 306 c 1
 616 306 l 1
 556 260 492 215 356 215 c 0
 177 215 79 389 79 571 c 0
EndSplineSet
Validated: 1
EndChar

StartChar: notequal
Encoding: 8800 8800 258
Width: 756
VWidth: 0
Flags: W
HStem: 339 65<29 250 366 730> 579 65<32 430 543 733>
DStem2: 63 53 136 59 0.566529 0.824042<46.3009 341.617 460.897 641.362 758.943 990.241>
LayerCount: 2
Fore
SplineSet
20 579 m 1
 32 644 l 1
 469 644 l 1
 624 869 l 1
 698 873 l 1
 543 644 l 1
 743 644 l 1
 733 579 l 1
 492 579 l 1
 366 404 l 1
 741 404 l 1
 730 339 l 1
 328 339 l 1
 136 59 l 1
 63 53 l 1
 250 339 l 1
 17 339 l 1
 29 404 l 1
 304 404 l 1
 430 579 l 1
 20 579 l 1
EndSplineSet
Validated: 1
EndChar

StartChar: ntilde
Encoding: 241 241 259
Width: 1082
VWidth: 0
Flags: W
HStem: 0 31<127 211.913 437.703 510 677 755.297 975.46 1048> 801 79<536.141 752.364> 815 28<129 208.768>
VStem: 281 93<57 703.469 717 788> 334 28<1013.86 1035.36> 819 95<57 734.994>
DStem2: 492 1155 461 1084 0.958262 -0.28589<-62.5169 248.786>
LayerCount: 2
Fore
SplineSet
120 0 m 1xd4
 127 31 l 1
 281 57 l 1
 281 788 l 1
 127 815 l 1
 129 843 l 1xb4
 363 863 l 1
 369 854 l 1
 365 717 l 1
 372 717 l 1
 418 778 552 880 693 880 c 0
 811 880 914 802 914 584 c 2
 914 57 l 1
 1051 37 l 1
 1048 0 l 1
 671 0 l 1
 677 31 l 1
 819 57 l 1
 819 559 l 2
 819 736 738 801 653 801 c 0
 535 801 479 765 374 665 c 1
 374 57 l 1
 516 36 l 1
 510 0 l 1
 120 0 l 1xd4
334 1020 m 1x8c
 334 1020 367 1192 492 1155 c 2
 673 1101 l 2
 746 1079 769 1168 769 1168 c 1
 803 1166 l 1
 803 1166 764 995 637 1032 c 2
 461 1084 l 1
 397 1104 362 1008 362 1008 c 1
 334 1020 l 1x8c
EndSplineSet
Validated: 8388641
EndChar

StartChar: numbersign
Encoding: 35 35 260
Width: 914
VWidth: 0
Flags: W
HStem: 326 77<-17 236 313 565 644 871> 712 77<55 293 371 623 702 947>
DStem2: 183 -26 250 -19 0.14834 0.988936<16.8614 355.968 443.538 746.152 833.871 1190.09> 512 -26 581 -19 0.147643 0.989041<17.1107 355.967 443.787 746.3 834.12 1190.23>
LayerCount: 2
Back
SplineSet
263.058 102.03 m 17
 204.754 95.7832 l 9
 319.972 858.579 l 17
 378.275 866.908 l 9
 263.058 102.03 l 17
89.5371 591.357 m 17
 104.112 650.354 l 9
 793.335 650.354 l 17
 780.842 591.357 l 9
 89.5371 591.357 l 17
43.0332 324.137 m 17
 61.7734 383.133 l 9
 748.914 383.133 l 17
 730.868 324.137 l 9
 43.0332 324.137 l 17
524.726 102.03 m 17
 465.729 95.7832 l 9
 580.947 858.579 l 17
 639.943 866.213 l 9
 524.726 102.03 l 17
EndSplineSet
Fore
SplineSet
581 -19 m 1
 512 -26 l 1
 565 326 l 1
 302 326 l 1
 250 -19 l 1
 183 -26 l 1
 236 326 l 1
 -38 326 l 1
 -17 403 l 1
 247 403 l 1
 293 712 l 1
 33 712 l 1
 55 789 l 1
 305 789 l 1
 359 1151 l 1
 427 1161 l 1
 371 789 l 1
 635 789 l 1
 689 1151 l 1
 757 1160 l 1
 702 789 l 1
 966 789 l 1
 947 712 l 1
 690 712 l 1
 644 403 l 1
 892 403 l 1
 871 326 l 1
 633 326 l 1
 581 -19 l 1
577 403 m 1
 623 712 l 1
 360 712 l 1
 313 403 l 1
 577 403 l 1
EndSplineSet
Validated: 1
Colour: ffffff
EndChar

StartChar: o
Encoding: 111 111 261
Width: 954
VWidth: 0
Flags: W
HStem: -27 64<426.032 650.323> 813 66<382.027 607.806>
VStem: 136 105<237.893 632.694> 789 105<216.015 614.258>
LayerCount: 2
Fore
SplineSet
241 468 m 0
 241 232 359 37 547 37 c 0
 693 37 789 193 789 401 c 0
 789 607 677 813 493 813 c 0
 342 813 241 662 241 468 c 0
136 396 m 0
 136 698 313 879 537 879 c 0
 755 879 894 672 894 437 c 0
 894 157 716 -27 511 -27 c 0
 300 -27 136 134 136 396 c 0
EndSplineSet
Validated: 1
EndChar

StartChar: oacute
Encoding: 243 243 262
Width: 954
VWidth: 0
Flags: W
HStem: -27 64<426.032 650.323> 813 66<382.027 607.806>
VStem: 136 105<237.893 632.694> 789 105<216.015 614.258>
LayerCount: 2
Fore
SplineSet
241 468 m 0
 241 232 359 37 547 37 c 0
 693 37 789 193 789 401 c 0
 789 607 677 813 493 813 c 0
 342 813 241 662 241 468 c 0
136 396 m 0
 136 698 313 879 537 879 c 0
 755 879 894 672 894 437 c 0
 894 157 716 -27 511 -27 c 0
 300 -27 136 134 136 396 c 0
454 1007 m 1
 586 1344 l 1
 682 1305 l 1
 499 981 l 1
 454 1007 l 1
EndSplineSet
Validated: 1
EndChar

StartChar: ocaron
Encoding: 466 466 263
Width: 954
VWidth: 0
Flags: W
HStem: -27 64<426.032 650.323> 813 66<382.027 607.806>
VStem: 136 105<237.893 632.694> 789 105<216.015 614.258>
DStem2: 378 1223 323 1174 0.705134 -0.709074<0 236.886> 553 1054 558 1008 0.687087 0.726575<0 218.138>
LayerCount: 2
Fore
SplineSet
241 468 m 0
 241 232 359 37 547 37 c 0
 693 37 789 193 789 401 c 0
 789 607 677 813 493 813 c 0
 342 813 241 662 241 468 c 0
136 396 m 0
 136 698 313 879 537 879 c 0
 755 879 894 672 894 437 c 0
 894 157 716 -27 511 -27 c 0
 300 -27 136 134 136 396 c 0
323 1174 m 1
 378 1223 l 1
 544 1054 l 1
 553 1054 l 1
 696 1219 l 1
 732 1192 l 1
 558 1008 l 1
 502 994 l 1
 323 1174 l 1
EndSplineSet
Validated: 1
EndChar

StartChar: ocircumflex
Encoding: 244 244 264
Width: 954
VWidth: 0
Flags: W
HStem: -27 64<426.032 650.323> 813 66<382.027 607.806>
VStem: 136 105<237.893 632.694> 789 105<216.015 614.258>
LayerCount: 2
Fore
SplineSet
241 468 m 0
 241 232 359 37 547 37 c 0
 693 37 789 193 789 401 c 0
 789 607 677 813 493 813 c 0
 342 813 241 662 241 468 c 0
136 396 m 0
 136 698 313 879 537 879 c 0
 755 879 894 672 894 437 c 0
 894 157 716 -27 511 -27 c 0
 300 -27 136 134 136 396 c 0
317 1025 m 1
 484 1206 l 1
 538 1219 l 1
 717 1033 l 1
 685 996 l 1
 504 1131 l 1
 495 1131 l 1
 338 995 l 1
 317 1025 l 1
EndSplineSet
Validated: 1
EndChar

StartChar: odieresis
Encoding: 246 246 265
Width: 954
VWidth: 0
Flags: W
HStem: -27 64<426.032 650.323> 813 66<382.027 607.806> 1004 159<319.518 424.932 588.344 693.141>
VStem: 136 105<237.893 632.694> 316 113<1005.06 1161.7> 585 112<1005.06 1161.7> 789 105<216.015 614.258>
LayerCount: 2
Fore
SplineSet
241 468 m 0
 241 232 359 37 547 37 c 0
 693 37 789 193 789 401 c 0
 789 607 677 813 493 813 c 0
 342 813 241 662 241 468 c 0
136 396 m 0
 136 698 313 879 537 879 c 0
 755 879 894 672 894 437 c 0
 894 157 716 -27 511 -27 c 0
 300 -27 136 134 136 396 c 0
585 1085 m 0
 585 1135 600 1163 639 1163 c 0
 676 1163 697 1136 697 1085 c 0
 697 1032 682 1004 640 1004 c 0
 598 1004 585 1034 585 1085 c 0
316 1085 m 0
 316 1135 332 1163 371 1163 c 0
 408 1163 429 1136 429 1085 c 0
 429 1032 415 1004 373 1004 c 0
 331 1004 316 1034 316 1085 c 0
EndSplineSet
Validated: 1
EndChar

StartChar: oe
Encoding: 339 339 266
Width: 1423
VWidth: 0
Flags: W
HStem: -29 82<983.941 1259.05> -27 64<379.424 596.922> 438 44<843 1097.14> 809 65<326.035 569.752 974.782 1171.18>
VStem: 85 107<247.189 633.682> 739 104<210.189 438 482 628.779> 1241 104<504.242 755.887>
LayerCount: 2
Fore
SplineSet
843 482 m 1x3e
 1233 504 l 1
 1239 524 1241 616 1241 631 c 0
 1241 749 1160 809 1063 809 c 0
 959 809 843 691 843 482 c 1x3e
192 480 m 0
 192 244 308 37 496 37 c 0x7e
 641 37 739 205 739 413 c 0
 739 618 628 813 444 813 c 0
 293 813 192 674 192 480 c 0
85 408 m 0
 85 712 279 879 467 879 c 0
 600 879 733 825 802 665 c 1
 853 774 966 874 1112 874 c 0
 1258 874 1345 810 1345 599 c 0
 1345 568 1336 480 1327 444 c 1
 843 438 l 1
 843 218 928 53 1136 53 c 0
 1231 53 1306 90 1353 137 c 1
 1371 104 l 1
 1314 29 1214 -29 1081 -29 c 0xbe
 936 -29 829 58 783 190 c 1
 714 41 580 -27 444 -27 c 0
 254 -27 85 145 85 408 c 0
EndSplineSet
Validated: 8388609
EndChar

StartChar: ogonek
Encoding: 731 731 267
Width: 516
VWidth: 0
Flags: W
HStem: -387 34<371.495 376.914> -17 20G<232 335>
VStem: 157 98<-278.248 -89.8675>
LayerCount: 2
Fore
SplineSet
157 -209 m 0
 157 -156 178 -97 286 3 c 1
 335 3 l 1
 271 -76 255 -121 255 -166 c 0
 255 -248 305 -300 396 -353 c 1
 363 -387 l 1
 219 -372 157 -294 157 -209 c 0
EndSplineSet
Validated: 1
EndChar

StartChar: ograve
Encoding: 242 242 268
Width: 954
VWidth: 0
Flags: W
HStem: -27 64<426.032 650.323> 813 66<382.027 607.806>
VStem: 136 105<237.893 632.694> 789 105<216.015 614.258>
LayerCount: 2
Fore
SplineSet
241 468 m 0
 241 232 359 37 547 37 c 0
 693 37 789 193 789 401 c 0
 789 607 677 813 493 813 c 0
 342 813 241 662 241 468 c 0
136 396 m 0
 136 698 313 879 537 879 c 0
 755 879 894 672 894 437 c 0
 894 157 716 -27 511 -27 c 0
 300 -27 136 134 136 396 c 0
339 1298 m 1
 433 1335 l 1
 566 999 l 1
 520 972 l 1
 339 1298 l 1
EndSplineSet
Validated: 1
EndChar

StartChar: ohungarumlaut
Encoding: 337 337 269
Width: 954
VWidth: 0
Flags: W
HStem: -27 64<426.032 650.323> 813 66<382.027 607.806>
VStem: 136 105<237.893 632.694> 789 105<216.015 614.258>
LayerCount: 2
Fore
SplineSet
241 468 m 0
 241 232 359 37 547 37 c 0
 693 37 789 193 789 401 c 0
 789 607 677 813 493 813 c 0
 342 813 241 662 241 468 c 0
136 396 m 0
 136 698 313 879 537 879 c 0
 755 879 894 672 894 437 c 0
 894 157 716 -27 511 -27 c 0
 300 -27 136 134 136 396 c 0
539 1029 m 1
 796 1228 l 1
 852 1164 l 1
 560 996 l 1
 539 1029 l 1
330 1029 m 1
 590 1238 l 1
 650 1168 l 1
 351 996 l 1
 330 1029 l 1
EndSplineSet
Validated: 8388609
EndChar

StartChar: omacron
Encoding: 333 333 270
Width: 954
VWidth: 0
Flags: W
HStem: -27 64<426.032 650.323> 813 66<382.027 607.806> 1017 52<305 737>
VStem: 136 105<237.893 632.694> 789 105<216.015 614.258>
LayerCount: 2
Fore
SplineSet
241 468 m 0
 241 232 359 37 547 37 c 0
 693 37 789 193 789 401 c 0
 789 607 677 813 493 813 c 0
 342 813 241 662 241 468 c 0
136 396 m 0
 136 698 313 879 537 879 c 0
 755 879 894 672 894 437 c 0
 894 157 716 -27 511 -27 c 0
 300 -27 136 134 136 396 c 0
296 1017 m 1
 305 1069 l 1
 745 1069 l 1
 737 1017 l 1
 296 1017 l 1
EndSplineSet
Validated: 1
EndChar

StartChar: one
Encoding: 49 49 271
Width: 1000
VWidth: 0
Flags: W
HStem: 3 45<200 310.038 757.469 864> 1089 44<221 319.384>
VStem: 484 115<85 1089>
LayerCount: 2
Fore
SplineSet
199 3 m 1
 200 48 l 1
 484 85 l 1
 484 1089 l 1
 216 1089 l 1
 221 1133 l 1
 571 1184 l 1
 599 1184 l 1
 599 82 l 1
 873 58 l 1
 864 3 l 1
 199 3 l 1
EndSplineSet
Validated: 1
EndChar

StartChar: one.osf
Encoding: 65544 -1 272
Width: 629
VWidth: 0
Flags: W
HStem: 3 45<85 166.754 524.827 605> 837 44<115 186.149>
VStem: 296 112<85 837>
LayerCount: 2
Fore
SplineSet
82 3 m 1
 85 48 l 1
 296 85 l 1
 296 837 l 1
 109 837 l 1
 115 881 l 1
 383 935 l 1
 408 935 l 1
 408 82 l 1
 610 58 l 1
 605 3 l 1
 82 3 l 1
EndSplineSet
Validated: 1
EndChar

StartChar: onehalf
Encoding: 189 189 273
Width: 1042
VWidth: 0
Flags: W
HStem: 0 57<706 899> 429 54<724.934 844.034> 501 31<108 193.261 301.336 393> 915 31<117 194.892>
VStem: 221 69<551 915> 643 34<333.94 362.344> 863 73<242.87 417.172>
DStem2: 154 -29 238 -22 0.569727 0.821834<53.6099 1205.34> 724 123 706 57 0.767572 0.640962<-56.1198 160.13>
LayerCount: 2
Fore
SplineSet
627 42 m 1
 724 123 l 1
 789 180 863 247 863 329 c 0
 863 384 847 429 782 429 c 0
 725 429 695 373 677 327 c 1
 643 339 l 1
 658 405 723 483 806 483 c 0
 893 483 936 433 936 346 c 0
 936 231 809 149 743 85 c 1
 706 57 l 1
 899 57 l 1
 936 125 l 1
 965 121 l 1
 942 0 l 1
 630 0 l 1
 627 42 l 1
154 -29 m 1
 843 960 l 1
 925 969 l 1
 238 -22 l 1
 154 -29 l 1
104 501 m 1
 108 532 l 1
 221 551 l 1
 221 915 l 1
 113 915 l 1
 117 946 l 1
 280 976 l 1
 290 976 l 1
 290 548 l 1
 399 535 l 1
 393 501 l 1
 104 501 l 1
EndSplineSet
Validated: 1
EndChar

StartChar: onequarter
Encoding: 188 188 274
Width: 1039
VWidth: 0
Flags: W
HStem: -6 21G<779 843> 143 49<643 776 843 939> 501 31<87 172.261 280.544 374> 915 31<97 174.892>
VStem: 200 69<551 915> 779 64<6 142 192 363>
DStem2: 154 -29 238 -22 0.569727 0.821834<53.6099 1205.34> 574 172 643 192 0.629636 0.77689<58.9827 275.573>
LayerCount: 2
Fore
SplineSet
643 192 m 1
 776 192 l 1
 776 363 l 1
 643 192 l 1
574 172 m 1
 822 478 l 1
 847 470 l 1
 844 424 843 346 843 273 c 2
 843 192 l 1
 946 192 l 1
 939 142 l 1
 843 142 l 1
 843 6 l 1
 779 -6 l 1
 779 143 l 1
 584 143 l 1
 574 172 l 1
154 -29 m 1
 843 960 l 1
 925 969 l 1
 238 -22 l 1
 154 -29 l 1
85 501 m 1
 87 532 l 1
 200 551 l 1
 200 915 l 1
 93 915 l 1
 97 946 l 1
 260 976 l 1
 269 976 l 1
 269 548 l 1
 380 535 l 1
 374 501 l 1
 85 501 l 1
EndSplineSet
Validated: 1
EndChar

StartChar: onesuperior
Encoding: 185 185 275
Width: 216
VWidth: 0
Flags: W
HStem: 1009 23<36 84 136 187> 1244 22<40 84>
VStem: 40 96<1244 1266> 84 52<1045 1244>
LayerCount: 2
Fore
SplineSet
31 1009 m 1xd0
 36 1032 l 1
 84 1045 l 1
 84 1244 l 1xd0
 37 1244 l 1
 40 1266 l 1xe0
 127 1290 l 1
 136 1290 l 1
 136 1044 l 1
 190 1035 l 1
 187 1009 l 1
 31 1009 l 1xd0
EndSplineSet
Validated: 8388609
EndChar

StartChar: ordfeminine
Encoding: 170 170 276
Width: 398
VWidth: 0
Flags: W
HStem: 286 43<36 368> 408 41<124.231 212.367 308.438 356> 577 36<173.212 247> 739 37<133.724 216.056>
VStem: 64 54<451.728 543.151 674.852 733.396> 247 50<461.779 467 475.143 577 609.672 713.33>
LayerCount: 2
Fore
SplineSet
118 497 m 0
 118 464 135 449 162 449 c 0
 195 449 238 485 247 500 c 1
 247 577 l 1
 148 562 118 534 118 497 c 0
64 480 m 0
 64 538 129 598 247 613 c 1
 247 631 l 2
 247 698 219 739 166 739 c 0
 129 739 125 708 118 660 c 1
 96 660 73 660 73 700 c 0
 73 743 143 776 200 776 c 0
 270 776 297 737 297 653 c 2
 297 507 l 2
 297 461 318 460 363 451 c 1
 356 416 l 1
 336 413 325 408 301 408 c 0
 255 408 255 437 255 463 c 2
 255 467 l 1
 250 467 l 1
 237 440 195 408 142 408 c 0
 100 408 64 432 64 480 c 0
27 286 m 1
 36 329 l 1
 374 329 l 1
 368 286 l 1
 27 286 l 1
EndSplineSet
Validated: 1
EndChar

StartChar: ordmasculine
Encoding: 186 186 277
Width: 398
VWidth: 0
Flags: W
HStem: 286 51<36 368> 402 36<156.482 254.435> 734 38<137.069 240.959>
VStem: 37 63<483.619 698.441> 292 61<475.881 693.322>
LayerCount: 2
Fore
SplineSet
100 602 m 0
 100 503 146 438 206 438 c 0
 265 438 292 489 292 576 c 0
 292 668 255 734 189 734 c 0
 132 734 100 690 100 602 c 0
37 584 m 0
 37 708 118 772 205 772 c 0
 304 772 353 700 353 589 c 0
 353 478 285 402 193 402 c 0
 87 402 37 480 37 584 c 0
27 286 m 1
 36 337 l 1
 374 337 l 1
 368 286 l 1
 27 286 l 1
EndSplineSet
Validated: 1
EndChar

StartChar: oslash
Encoding: 248 248 278
Width: 954
VWidth: 0
Flags: W
HStem: -27 64<427.219 647.366> 840 63<389.42 605.669>
VStem: 136 105<242.192 648.806> 789 105<225.229 636.164>
LayerCount: 2
Fore
SplineSet
136 408 m 0
 136 715 313 903 537 903 c 0
 633 903 714 861 774 793 c 1
 818 847 l 1
 932 857 l 1
 818 734 l 1
 867 654 894 553 894 449 c 0
 894 169 716 -27 511 -27 c 0
 400 -27 304 18 237 97 c 1
 199 54 l 1
 87 46 l 1
 195 159 l 1
 157 227 136 311 136 408 c 0
734 661 m 1
 309 193 l 1
 362 98 444 37 547 37 c 0
 692 37 789 205 789 413 c 0
 789 499 770 587 734 661 c 1
708 707 m 1
 657 786 584 840 493 840 c 0
 342 840 241 674 241 480 c 0
 241 393 257 309 287 239 c 1
 708 707 l 1
EndSplineSet
Validated: 1
EndChar

StartChar: otilde
Encoding: 245 245 279
Width: 954
VWidth: 0
Flags: W
HStem: -27 64<426.032 650.323> 813 66<382.027 607.806>
VStem: 136 105<237.893 632.694> 277 28<1013.86 1035.36> 789 105<216.015 614.258>
DStem2: 435 1155 404 1084 0.958262 -0.28589<-62.5169 248.786>
LayerCount: 2
Fore
SplineSet
241 468 m 0
 241 232 359 37 547 37 c 0
 693 37 789 193 789 401 c 0
 789 607 677 813 493 813 c 0
 342 813 241 662 241 468 c 0
136 396 m 0
 136 698 313 879 537 879 c 0
 755 879 894 672 894 437 c 0
 894 157 716 -27 511 -27 c 0
 300 -27 136 134 136 396 c 0
277 1020 m 1
 277 1020 310 1192 435 1155 c 2
 616 1101 l 2
 689 1079 712 1168 712 1168 c 1
 746 1166 l 1
 746 1166 707 995 580 1032 c 2
 404 1084 l 1
 340 1104 305 1008 305 1008 c 1
 277 1020 l 1
EndSplineSet
Validated: 33
EndChar

StartChar: overline
Encoding: 8254 8254 280
Width: 564
VWidth: 0
Flags: W
HStem: 1304 52<68 500>
VStem: 59 449
LayerCount: 2
Fore
SplineSet
59 1304 m 1
 68 1356 l 1
 508 1356 l 1
 500 1304 l 1
 59 1304 l 1
EndSplineSet
Validated: 1
EndChar

StartChar: p
Encoding: 112 112 281
Width: 988
VWidth: 0
Flags: W
HStem: -374 39<97 194.745 388.896 493> -20 60<385.433 652.073> 793 81<483.993 699.992> 815 28<98 169.635>
VStem: 247 98<-313 704.828 710 786> 824 101<232.258 652.037>
LayerCount: 2
Fore
SplineSet
92 -374 m 1xec
 97 -335 l 1
 247 -313 l 1
 247 786 l 1
 94 815 l 1
 98 843 l 1xdc
 335 864 l 1
 342 855 l 1
 337 710 l 1
 345 710 l 1
 396 780 497 874 628 874 c 0
 800 874 925 749 925 456 c 0
 925 172 744 -20 496 -20 c 0
 467 -20 418 -16 385 -9 c 1
 380 63 l 1
 426 45 470 40 549 40 c 0
 687 40 824 159 824 402 c 0
 824 632 750 793 568 793 c 0
 468 793 402 718 345 659 c 1
 345 -315 l 1
 500 -333 l 1
 493 -374 l 1
 92 -374 l 1xec
EndSplineSet
Validated: 8388609
EndChar

StartChar: paragraph
Encoding: 182 182 282
Width: 1291
VWidth: 0
Flags: W
HStem: 1 42<587 690.219 1122.93 1244> 478 50<586.786 704> 1187 58<552.599 803> 1207 38<1128.68 1239>
VStem: 245 132<679.82 1012.54> 803 100<73 1185> 959 103<64 1184>
LayerCount: 2
Fore
SplineSet
959 1 m 1xde
 959 1245 l 1
 1243 1245 l 1
 1239 1207 l 1
 1062 1184 l 1
 1062 64 l 1
 1254 46 l 1
 1244 -2 l 1
 959 1 l 1xde
245 843 m 0
 245 1081 473 1245 721 1245 c 2xee
 903 1245 l 1xde
 903 1 l 1
 581 1 l 1
 587 43 l 1
 803 73 l 1
 803 1185 l 1
 761 1188 739 1187 730 1187 c 0xee
 475 1187 377 1076 377 840 c 0
 377 668 507 528 722 528 c 1
 704 478 l 1
 443 478 245 551 245 843 c 0
EndSplineSet
Validated: 8388641
EndChar

StartChar: paragraph.osf
Encoding: 65545 -1 283
Width: 1380
VWidth: 0
Flags: W
HStem: 1 42<586 689.219 1122.93 1244> 339 54<603.031 725> 897 55<583.722 802.465> 915 39<1118.17 1239>
VStem: 341 122<493.35 774.358> 802 98<73 897.151> 960 102<64 894>
LayerCount: 2
Fore
SplineSet
960 -3 m 1xde
 960 954 l 1
 1243 954 l 1
 1239 915 l 1
 1062 894 l 1
 1062 64 l 1
 1254 46 l 1
 1244 -3 l 1
 960 -3 l 1xde
341 630 m 0
 341 820 539 952 739 952 c 2
 900 952 l 1
 900 1 l 1
 580 1 l 1
 586 43 l 1
 802 73 l 1
 804 895 l 1
 771 898 754 897 745 897 c 0xee
 539 897 463 817 463 627 c 0
 463 491 568 393 740 393 c 1
 725 339 l 1
 516 339 341 397 341 630 c 0
EndSplineSet
Validated: 8388609
EndChar

StartChar: parenleft
Encoding: 40 40 284
Width: 471
VWidth: 0
Flags: W
VStem: 50 113<115.708 795.592>
LayerCount: 2
Fore
SplineSet
412 1213 m 1
 327 1100 163 881 163 456 c 0
 163 40 365 -269 410 -342 c 1
 382 -374 l 1
 331 -328 50 -61 50 455 c 0
 50 981 322 1199 388 1256 c 1
 412 1213 l 1
EndSplineSet
Validated: 1
EndChar

StartChar: parenright
Encoding: 41 41 285
Width: 471
VWidth: 0
Flags: W
VStem: 313 113<115.708 795.592>
LayerCount: 2
Fore
SplineSet
64 1213 m 1
 88 1256 l 1
 154 1199 426 981 426 455 c 0
 426 -61 145 -328 94 -374 c 1
 66 -342 l 1
 111 -269 313 40 313 456 c 0
 313 881 149 1100 64 1213 c 1
EndSplineSet
Validated: 1
EndChar

